<?xml version="1.0" standalone="no"?>
<!DOCTYPE svg PUBLIC "-//W3C//DTD SVG 20010904//EN"
 "http://www.w3.org/TR/2001/REC-SVG-20010904/DTD/svg10.dtd">
<svg version="1.0" xmlns="http://www.w3.org/2000/svg"
 width="962.000000pt" height="562.000000pt" viewBox="0 0 962.000000 562.000000"
 preserveAspectRatio="xMidYMid meet">

<g transform="translate(0.000000,562.000000) scale(0.100000,-0.100000)"
fill="#000000" stroke="none">
<path d="M0 2810 l0 -2810 4810 0 4810 0 0 2810 0 2810 -4810 0 -4810 0 0
-2810z m8468 1687 l-3 -562 -25 0 -25 0 -5 512 -5 511 -58 -69 c-37 -45 -65
-69 -75 -67 -35 7 -15 48 71 152 78 95 90 105 107 96 20 -11 20 -21 18 -573z
m-2811 562 c42 -16 83 -58 109 -114 21 -44 24 -65 24 -167 l0 -118 -80 0 -80
0 0 98 c0 58 -5 107 -13 122 -17 34 -60 39 -81 8 -14 -20 -16 -70 -16 -393 0
-323 2 -373 16 -393 21 -31 64 -26 81 8 8 16 13 67 13 138 l0 112 -35 0 -35 0
0 70 0 70 115 0 115 0 0 -280 0 -280 -49 0 c-44 0 -49 3 -55 25 l-6 24 -37
-25 c-46 -31 -73 -38 -129 -31 -57 6 -106 43 -135 104 -24 47 -24 53 -27 406
-2 213 1 385 7 424 20 131 95 203 212 203 32 0 70 -5 86 -11z m2243 -9 c84
-43 126 -141 118 -278 -9 -145 -58 -241 -192 -376 -111 -113 -156 -204 -172
-353 l-7 -63 184 -2 c176 -3 184 -4 184 -23 0 -19 -7 -20 -210 -20 l-210 0 3
75 c7 175 60 295 185 422 96 99 131 151 159 241 27 89 22 201 -11 265 -42 81
-151 104 -221 46 -34 -29 -48 -68 -58 -156 -7 -59 -9 -63 -32 -63 -24 0 -25 2
-24 66 2 68 27 144 62 183 49 54 170 73 242 36z m1015 9 c23 -7 57 -28 81 -53
71 -70 74 -93 74 -515 -1 -281 -4 -375 -14 -404 -38 -105 -113 -157 -225 -157
-115 1 -190 54 -227 162 -17 48 -19 86 -18 403 1 298 4 359 18 408 39 133 165
196 311 156z m-2835 -559 l0 -560 -85 0 -85 0 0 560 0 560 85 0 85 0 0 -560z
m322 548 c3 -7 27 -132 54 -278 l49 -266 52 276 c29 151 52 276 53 278 0 1 45
2 100 2 l100 0 0 -560 0 -560 -75 0 -75 0 0 377 c0 207 -2 374 -4 372 -3 -3
-28 -162 -55 -354 -28 -193 -53 -360 -56 -372 -4 -18 -12 -23 -40 -23 -23 0
-35 5 -39 18 -3 9 -28 177 -56 372 -28 195 -53 356 -56 359 -2 2 -4 -165 -4
-372 l0 -377 -75 0 -75 0 0 560 0 560 99 0 c70 0 100 -4 103 -12z m835 -18
c96 -48 142 -130 151 -267 11 -186 -54 -311 -187 -358 -24 -8 -56 -15 -72 -15
l-29 0 0 -225 0 -225 -85 0 -85 0 0 560 0 560 123 0 c118 0 127 -2 184 -30z
m-4977 -968 c123 -14 186 -39 254 -102 61 -57 95 -115 96 -162 0 -24 4 -28 30
-28 38 0 38 -13 1 -39 -31 -22 -66 -27 -76 -11 -8 13 -63 37 -104 45 -21 5
-64 0 -113 -11 -78 -19 -79 -19 -74 -46 4 -23 0 -32 -25 -50 -29 -21 -69 -84
-69 -108 0 -5 13 -10 29 -10 17 0 33 -4 36 -10 11 -18 -47 -9 -125 19 -65 23
-77 31 -94 63 -11 21 -17 40 -14 44 3 3 24 0 47 -7 38 -11 42 -11 64 13 13 14
30 27 38 30 24 9 -4 43 -40 46 -52 5 -35 23 19 20 27 -2 50 -7 50 -12 0 -6 6
-2 13 8 13 18 46 27 157 47 97 16 100 18 100 43 0 32 -58 116 -95 138 -32 18
-118 37 -198 43 -26 2 -63 9 -83 15 -30 10 -33 14 -22 27 13 16 9 16 198 -5z
m848 -46 c15 -8 36 -24 47 -36 11 -12 40 -36 64 -53 l44 -30 -24 -21 c-13 -12
-34 -34 -46 -50 -15 -19 -23 -23 -23 -13 0 9 -11 24 -25 35 -14 11 -25 27 -25
35 0 8 -7 20 -15 27 -8 7 -15 19 -15 27 0 26 -53 61 -105 69 -39 5 -46 9 -30
15 33 13 124 10 153 -5z m5117 -51 c0 -25 -4 -30 -25 -30 -16 0 -26 6 -28 18
-6 30 6 49 30 45 18 -2 23 -9 23 -33z m-6388 -20 c37 -37 57 -42 96 -24 58 26
94 -49 37 -78 -28 -14 -50 -2 -50 28 0 21 -25 26 -37 7 -4 -7 -9 -24 -11 -38
-6 -45 -36 -84 -70 -91 -30 -6 -32 -4 -32 20 0 14 -8 53 -18 86 -19 64 -45 82
-72 50 -7 -8 -17 -15 -22 -15 -15 0 12 29 56 62 52 37 80 36 123 -7z m1691
-29 c15 -8 43 -27 63 -43 20 -15 47 -35 58 -43 51 -35 86 -135 57 -159 -21
-18 -20 -31 2 -31 38 0 120 -49 166 -101 27 -30 46 -45 41 -34 -4 11 -9 35
-11 54 -2 20 -14 46 -30 62 -14 15 -26 30 -25 33 3 18 0 26 -11 26 -7 0 -31
16 -53 35 -29 24 -35 34 -22 35 9 0 17 6 17 13 0 17 -53 68 -88 83 -26 12 -26
12 18 13 30 1 57 -6 81 -22 55 -33 166 -159 174 -197 4 -18 18 -48 31 -67 32
-48 31 -86 -3 -113 -15 -11 -32 -19 -39 -16 -9 3 -11 -4 -8 -27 11 -66 -51
-87 -76 -27 -7 16 -19 31 -27 34 -10 4 -14 15 -10 33 3 15 0 36 -7 47 -12 23
-39 47 -45 40 -8 -8 -10 -81 -2 -111 7 -23 6 -33 -4 -37 -21 -8 -39 21 -41 67
-2 23 -4 42 -4 42 -1 0 -3 11 -4 24 -3 25 -76 99 -93 94 -5 -2 -22 1 -36 6
-29 11 -36 38 -13 47 16 6 15 9 -19 87 -9 22 -11 36 -6 32 7 -3 8 0 5 9 -3 9
-10 16 -16 16 -5 0 -28 20 -50 45 -23 25 -43 43 -46 40 -3 -3 -12 1 -21 9 -9
8 -25 17 -36 20 -11 3 8 3 43 1 34 -3 75 -11 90 -19z m4167 -116 c4 -6 -7 -10
-24 -10 l-31 0 -1 -127 c-1 -152 -16 -131 -18 25 l-1 102 -32 1 -33 2 35 7
c53 11 98 11 105 0z m-4530 -10 c3 -5 1 -10 -4 -10 -6 0 -11 5 -11 10 0 6 2
10 4 10 3 0 8 -4 11 -10z m2283 -2 c7 -7 12 -23 11 -37 l-1 -26 -7 24 c-9 33
-36 49 -58 35 -14 -9 -19 -28 -21 -95 -4 -107 2 -129 32 -129 13 0 29 6 35 14
18 22 10 69 -12 72 -33 4 -32 14 1 14 36 0 50 -28 34 -71 -22 -57 -83 -64
-103 -11 -15 37 -8 185 10 205 16 20 62 22 79 5z m98 -98 l39 -95 6 105 5 105
2 -135 c1 -73 -2 -130 -6 -125 -5 6 -26 55 -48 110 l-39 100 -6 -110 -5 -110
-2 135 c-1 73 2 130 6 125 5 -6 26 -53 48 -105z m99 -107 c4 -16 13 -23 31
-23 13 0 27 6 29 13 3 7 9 62 14 122 l8 110 2 -112 c1 -101 -1 -115 -19 -133
-24 -24 -43 -25 -64 -4 -13 12 -16 37 -14 132 l2 117 3 -100 c2 -55 5 -110 8
-122z m215 93 c0 -73 -4 -127 -10 -131 -6 -4 -10 40 -10 124 0 81 4 131 10
131 6 0 10 -48 10 -124z m65 12 c15 -54 29 -98 30 -98 1 0 15 44 30 98 16 53
32 101 37 107 4 5 7 -52 6 -125 l-2 -135 -5 100 -6 100 -26 -95 c-14 -52 -29
-94 -35 -93 -5 1 -20 44 -34 95 l-25 93 -6 -100 -5 -100 -2 135 c-1 73 2 130
6 125 5 -6 21 -54 37 -107z m236 -19 c16 -67 27 -124 24 -127 -5 -6 -25 43
-25 64 0 9 -11 14 -35 14 -31 0 -35 -3 -41 -35 -6 -32 -24 -60 -24 -36 0 11
48 219 56 240 8 24 15 6 45 -120z m149 112 c13 -25 13 -51 0 -51 -5 0 -10 8
-10 19 0 45 -62 52 -74 8 -3 -12 -6 -54 -6 -93 0 -80 13 -108 51 -102 20 2 25
9 27 41 3 34 1 37 -22 37 -14 0 -26 5 -26 10 0 6 16 10 35 10 34 0 35 -1 35
-40 0 -27 -7 -47 -20 -60 -24 -24 -38 -25 -68 -4 -20 14 -22 23 -22 118 0 66
4 106 12 114 20 20 76 15 88 -7z m93 12 l-43 -4 0 -55 0 -54 43 -1 c32 0 37
-2 22 -9 -11 -4 -30 -6 -42 -3 -22 5 -23 2 -23 -51 l0 -56 35 0 c19 0 35 -5
35 -11 0 -6 -17 -9 -42 -7 l-43 3 -3 128 -3 127 53 -2 c50 -1 51 -2 11 -5z
m182 -98 c16 -58 32 -102 36 -98 4 4 19 52 34 106 15 53 32 97 36 97 5 0 9
-56 9 -125 0 -143 -18 -173 -22 -37 l-3 87 -24 -87 c-13 -49 -27 -88 -31 -88
-5 0 -18 33 -30 73 -11 39 -23 77 -25 82 -2 6 -4 -27 -4 -72 -1 -48 -5 -83
-11 -83 -6 0 -10 48 -10 125 0 69 4 125 9 125 4 0 21 -47 36 -105z m240 -28
c15 -65 24 -121 22 -124 -3 -3 -11 13 -17 36 -10 38 -14 41 -44 41 -31 0 -34
-3 -40 -35 -4 -19 -11 -35 -17 -35 -6 0 -8 3 -6 8 2 4 17 60 32 126 15 65 31
114 35 110 4 -5 20 -62 35 -127z m100 31 l40 -103 6 105 5 105 2 -129 c1 -71
0 -127 -3 -125 -2 3 -22 47 -44 99 l-40 95 -1 -97 c0 -59 -4 -98 -10 -98 -6 0
-10 48 -10 125 0 69 3 125 8 125 4 0 25 -46 47 -102z m105 -23 c0 -77 -4 -125
-10 -125 -6 0 -10 48 -10 125 0 77 4 125 10 125 6 0 10 -48 10 -125z m114 103
c33 -47 8 -105 -47 -110 -32 -3 -32 -3 -38 -68 -4 -50 -6 -34 -7 68 l-2 132
39 0 c30 0 44 -6 55 -22z m59 -205 c11 -17 42 -17 55 0 6 7 13 62 15 123 l3
109 2 -117 c2 -115 2 -118 -23 -134 -23 -15 -27 -15 -50 0 -25 16 -25 19 -23
134 l2 117 5 -110 c3 -60 10 -116 14 -122z m162 -13 c25 0 45 -4 45 -10 0 -5
-22 -10 -50 -10 l-50 0 2 133 2 132 3 -122 4 -123 44 0z m159 118 c28 -128 33
-171 12 -103 -11 36 -17 40 -47 43 -33 3 -36 0 -47 -35 l-11 -38 4 35 c9 64
47 220 55 220 4 0 19 -55 34 -122z m216 -8 c0 -80 -4 -130 -10 -130 -6 0 -10
50 -10 130 0 80 4 130 10 130 6 0 10 -50 10 -130z m118 118 c8 -8 12 -48 12
-114 0 -95 -2 -104 -22 -118 -29 -20 -47 -20 -70 1 -15 14 -18 32 -18 118 0
111 6 125 55 125 17 0 36 -5 43 -12z m90 -90 l41 -103 0 103 c1 61 5 102 11
102 13 0 14 -247 1 -254 -5 -4 -26 38 -48 91 l-38 97 -3 -89 c-5 -145 -22
-127 -22 23 0 73 4 132 8 132 5 0 27 -46 50 -102z m256 80 c33 -47 8 -105 -47
-110 -32 -3 -32 -3 -38 -68 -4 -50 -6 -34 -7 68 l-2 132 39 0 c30 0 44 -6 55
-22z m133 -4 c14 -22 15 -33 6 -67 -7 -26 -8 -48 -2 -59 12 -22 12 -98 0 -98
-6 0 -11 24 -13 53 l-3 52 -37 3 -37 3 -4 -58 c-2 -32 -4 -1 -5 70 l-2 127 40
0 c32 0 43 -5 57 -26z m133 7 c5 -11 10 -63 10 -115 0 -89 -2 -97 -24 -111
-27 -18 -69 -7 -80 20 -13 35 -6 180 10 203 20 28 69 30 84 3z m128 7 c7 -7
12 -23 11 -37 l-1 -26 -7 24 c-9 33 -36 49 -58 35 -15 -9 -18 -27 -18 -115 0
-101 1 -104 23 -107 33 -5 52 15 52 54 0 28 -4 33 -27 37 -26 4 -26 4 5 6 32
1 32 0 32 -44 0 -35 -5 -48 -23 -59 -29 -20 -62 -11 -76 20 -17 38 -14 175 5
202 17 24 62 30 82 10z m130 0 c20 -26 23 -58 9 -87 -12 -24 -12 -32 -1 -52
15 -28 19 -99 5 -99 -6 0 -11 24 -13 53 l-3 52 -37 3 -37 3 -4 -58 c-2 -32 -4
-1 -5 70 l-2 127 39 0 c21 0 43 -6 49 -12z m142 -113 c13 -55 25 -106 27 -112
3 -7 0 -13 -6 -13 -6 0 -11 9 -11 19 0 38 -11 51 -46 51 -30 0 -34 -3 -40 -35
-3 -19 -10 -35 -15 -35 -5 0 -7 6 -4 13 2 6 13 55 25 107 29 132 31 136 40
119 4 -8 18 -59 30 -114z m95 10 c15 -55 28 -101 30 -103 1 -1 15 44 30 100
45 167 62 157 47 -29 l-9 -118 -2 100 -2 100 -25 -85 c-14 -47 -29 -89 -34
-94 -5 -4 -21 34 -37 85 l-28 94 -6 -95 -5 -95 -2 130 c-1 78 2 125 7 120 5
-6 21 -55 36 -110z m-5845 -14 c0 -27 3 -56 6 -65 4 -11 1 -16 -10 -16 -11 0
-16 -10 -17 -32 -1 -22 -3 -26 -6 -13 -3 11 -15 34 -27 50 -13 17 -25 40 -28
52 -8 32 28 70 70 72 8 1 12 -15 12 -48z m-1148 -35 c0 -6 2 -16 2 -22 1 -6 7
-18 15 -27 16 -20 7 -37 -19 -37 -12 0 -29 16 -45 43 -28 48 -32 73 -12 80 15
5 56 -21 59 -37z m841 27 c-7 -2 -19 -2 -25 0 -7 3 -2 5 12 5 14 0 19 -2 13
-5z m-287 -29 c18 -14 17 -15 -16 -9 -19 3 -53 10 -75 14 l-40 8 56 2 c37 1
62 -4 75 -15z m964 -28 c-19 -13 -37 -22 -39 -21 -7 7 12 27 33 35 39 16 41
10 6 -14z m786 -58 c39 -25 81 -58 92 -73 29 -37 29 -90 1 -105 -11 -7 -23 -9
-26 -7 -2 3 -34 -3 -69 -13 -57 -15 -67 -16 -80 -3 -21 21 -7 34 29 28 18 -3
51 -2 75 2 l42 8 -22 42 c-13 23 -34 50 -48 61 -14 11 -45 38 -69 61 -31 29
-53 41 -75 42 -25 0 -27 2 -12 8 34 13 89 -4 162 -51z m-1016 -3 c33 -50 21
-119 -25 -149 -17 -11 -25 -12 -45 -1 l-24 13 34 31 c19 17 38 31 43 31 5 0
-10 21 -32 46 -23 26 -41 50 -41 54 0 4 16 6 35 6 28 -1 40 -8 55 -31z m-202
-112 c-10 -2 -26 -2 -35 0 -10 3 -2 5 17 5 19 0 27 -2 18 -5z m-168 -60 c0 -5
-5 -15 -10 -23 -9 -13 -11 -13 -19 0 -5 8 -7 18 -5 22 6 10 34 11 34 1z m-480
-33 c0 -5 -4 -10 -10 -10 -5 0 -10 5 -10 10 0 6 5 10 10 10 6 0 10 -4 10 -10z
m286 -55 c7 -17 16 -67 19 -111 6 -69 5 -82 -9 -87 -17 -7 -21 6 -17 53 2 23
1 24 -11 7 -13 -17 -15 -16 -42 12 -24 25 -26 32 -16 51 6 11 10 31 9 43 -2
12 3 36 11 54 12 26 17 30 29 20 8 -7 20 -26 27 -42z m1508 24 c-1 -8 -29
-115 -63 -238 -34 -124 -59 -231 -56 -238 3 -8 0 -11 -6 -8 -6 4 -9 1 -8 -6 2
-8 -5 -38 -15 -67 -10 -29 -16 -56 -13 -58 3 -3 16 6 30 20 30 30 40 32 62 10
15 -15 17 -15 34 0 12 11 20 13 28 5 6 -6 44 -12 86 -14 69 -3 77 -1 98 21 12
13 29 24 38 24 12 0 12 -3 3 -12 -15 -15 -15 -28 -1 -28 7 0 17 -7 24 -16 11
-15 14 -15 38 1 14 9 31 14 37 10 5 -3 10 -1 10 4 0 6 5 11 10 11 6 0 10 -6
10 -14 0 -7 7 -19 14 -26 13 -10 15 -7 13 17 -2 34 26 40 31 6 3 -23 27 -32
34 -12 2 7 24 7 73 0 39 -6 82 -13 96 -14 14 -2 32 -8 40 -13 8 -4 19 -9 24
-10 6 -1 17 -5 25 -8 23 -9 41 7 45 40 2 16 4 31 4 34 1 2 6 -1 13 -8 16 -16
33 -15 19 1 -17 21 11 56 31 39 8 -6 18 -9 22 -5 4 4 4 0 1 -9 -3 -8 1 -22 9
-31 9 -9 16 -24 16 -35 0 -15 5 -19 20 -15 11 3 20 12 20 19 0 22 16 16 35
-12 14 -21 19 -24 26 -13 8 12 11 11 22 -2 11 -15 16 -15 38 -4 51 27 139 17
139 -15 0 -21 -20 -31 -48 -23 -17 4 -75 -35 -105 -72 -5 -5 -5 1 -2 15 4 14
16 34 26 46 28 30 25 46 -6 32 -15 -7 -24 -17 -21 -25 9 -22 -23 -27 -39 -7
-20 26 -19 4 1 -24 18 -26 12 -52 -11 -52 -9 0 -15 9 -15 24 0 13 -6 29 -14
35 -12 10 -17 8 -25 -7 -8 -15 -7 -21 4 -26 20 -7 19 -42 -1 -50 -12 -4 -15
-2 -11 9 4 8 2 17 -3 20 -6 4 -10 0 -10 -8 0 -8 -7 -18 -16 -21 -8 -3 -12 -2
-9 4 3 6 2 10 -3 10 -6 0 -9 8 -8 17 0 10 -9 20 -24 24 -14 4 -20 8 -15 9 6 1
-3 5 -20 9 -23 5 -29 12 -28 29 2 12 -2 22 -7 22 -6 0 -10 -7 -10 -16 0 -11
-6 -14 -20 -9 -18 6 -20 2 -20 -34 0 -22 -4 -43 -10 -46 -5 -3 -10 3 -10 14 0
14 -5 19 -15 15 -10 -4 -15 0 -15 10 0 22 -41 77 -51 70 -5 -3 2 -17 16 -32
14 -15 25 -33 25 -40 0 -7 14 -25 30 -39 36 -29 32 -43 -4 -20 l-24 16 9 -32
c12 -41 12 -42 -5 -28 -11 9 -15 8 -20 -4 -3 -9 -10 -13 -16 -10 -16 10 -12
22 10 28 11 3 20 10 20 17 0 7 -8 9 -20 5 -24 -8 -29 22 -5 31 8 4 15 13 15
21 0 12 -7 14 -30 10 -32 -7 -49 8 -31 26 16 16 14 37 -4 31 -10 -4 -15 0 -15
11 0 9 -5 13 -11 9 -6 -3 -8 -16 -5 -29 4 -16 1 -25 -11 -30 -10 -3 -19 -1
-21 4 -2 6 -11 11 -20 11 -15 -1 -15 -2 1 -14 9 -7 17 -18 17 -25 0 -6 8 -15
18 -18 23 -9 46 -33 38 -40 -16 -17 -146 76 -146 105 0 7 -4 10 -10 7 -15 -9
-12 -35 4 -35 7 0 19 -7 27 -16 11 -14 9 -15 -24 -9 -37 7 -37 7 -27 -20 15
-40 12 -54 -5 -21 -8 15 -15 34 -15 41 0 7 -6 18 -14 24 -10 8 -12 24 -9 51
l6 40 -36 0 c-25 0 -39 -6 -46 -19 -12 -21 -45 -45 -79 -56 -21 -6 -23 -4 -17
14 5 18 3 20 -16 13 -12 -5 -26 -18 -30 -30 -7 -18 -5 -22 14 -22 l22 0 -22
-18 c-34 -26 -13 -49 50 -51 9 -1 17 -7 17 -14 0 -19 -62 -14 -94 6 -18 12
-26 13 -29 4 -4 -9 -8 -8 -16 3 -15 22 -13 40 5 40 8 0 13 -4 9 -9 -3 -6 3 -9
13 -8 16 1 18 6 11 41 -4 24 -3 46 3 53 15 18 0 37 -18 22 -10 -8 -13 -22 -9
-41 8 -35 -4 -36 -35 -3 -20 22 -25 23 -32 10 -10 -17 -34 -20 -44 -4 -3 6 -1
16 5 22 6 6 11 18 11 26 0 12 -3 12 -12 3 -7 -7 -20 -12 -31 -12 -14 0 -17 5
-13 23 l6 22 -11 -22 c-7 -13 -16 -23 -21 -23 -4 0 -8 -7 -8 -15 0 -7 -8 -18
-17 -24 -9 -5 -22 -29 -28 -53 -8 -33 -15 -44 -33 -46 -30 -5 -35 16 -17 67
20 58 19 68 -6 45 l-20 -18 20 52 c12 29 21 65 21 80 1 15 9 52 20 82 18 53
17 116 -1 104 -5 -3 -9 0 -9 5 0 6 4 11 8 11 5 0 19 14 32 32 17 23 20 35 13
47 -13 21 1 61 22 61 18 0 20 27 3 32 -8 3 -1 18 19 44 21 27 29 45 23 54 -5
9 -1 28 11 51 10 21 19 47 19 57 0 10 3 22 7 26 10 10 28 0 27 -15z m-174 -28
c-11 -21 -44 -28 -54 -12 -3 5 9 18 27 30 34 22 45 15 27 -18z m-262 18 c26 0
26 -1 5 -9 -36 -15 -55 -96 -59 -250 -1 -74 -4 -171 -6 -215 -2 -48 1 -81 7
-82 6 -1 9 4 9 12 -1 7 4 11 12 8 8 -3 14 1 14 8 0 7 20 55 45 106 25 52 50
105 56 120 7 19 13 23 21 15 7 -7 21 1 48 29 22 23 46 39 60 39 19 0 22 4 18
32 -3 20 1 43 12 60 l17 28 -3 -46 c-3 -45 -10 -65 -60 -168 -13 -28 -24 -55
-24 -62 0 -6 -20 -39 -44 -71 -24 -33 -49 -71 -56 -84 -7 -13 -31 -45 -53 -71
-33 -40 -38 -50 -27 -63 11 -14 7 -19 -13 -16 -4 0 -6 -2 -5 -6 1 -5 -2 -19
-6 -31 -5 -17 -14 -22 -26 -19 -12 3 -28 -5 -44 -23 -30 -34 -22 -49 11 -18
21 20 24 20 36 6 16 -22 37 -25 65 -10 13 8 22 9 22 2 0 -5 -16 -17 -36 -25
-42 -17 -58 -19 -49 -5 7 12 -24 8 -45 -5 -19 -13 -42 -53 -36 -64 3 -4 2 -20
-2 -36 l-8 -27 -31 26 c-28 24 -32 25 -36 9 -4 -16 -5 -16 -6 -1 0 9 10 30 24
46 25 30 69 122 58 122 -3 0 -1 6 5 13 5 6 13 28 17 47 l7 35 -23 -25 c-38
-39 -37 0 0 57 26 39 41 83 28 83 -8 0 -76 -70 -97 -99 -12 -17 -26 -31 -31
-31 -20 0 -7 33 26 67 19 20 35 41 35 48 0 7 19 19 41 28 33 13 40 20 35 34
-4 9 -9 69 -12 133 -2 63 -7 121 -9 129 -3 7 -1 19 5 26 5 6 14 45 20 86 11
84 27 122 48 114 7 -3 26 -5 40 -6z m-264 -15 c13 -35 6 -127 -11 -147 -10
-11 -13 -18 -7 -14 33 19 47 -253 18 -336 -19 -53 -46 -165 -45 -192 0 -18 -2
-18 -19 5 -14 18 -16 29 -9 43 6 10 9 28 8 40 -1 12 1 29 4 37 3 8 8 31 10 50
3 19 11 49 18 65 16 39 17 48 7 62 -10 13 -13 127 -3 143 3 5 2 10 -4 10 -18
0 -32 37 -22 62 5 14 4 36 -4 58 -10 28 -9 39 2 57 10 14 11 23 4 28 -17 10 6
45 28 45 11 0 22 -7 25 -16z m354 -6 c7 -7 12 -25 12 -41 0 -24 -4 -28 -19
-24 -10 2 -26 0 -35 -5 -13 -7 -16 -4 -16 14 0 24 25 68 39 68 4 0 12 -5 19
-12z m2942 -12 c0 -3 -4 -8 -10 -11 -5 -3 -10 -1 -10 4 0 6 5 11 10 11 6 0 10
-2 10 -4z m-3910 -35 c0 -17 -12 -41 -21 -41 -10 0 -12 33 -2 43 9 10 23 9 23
-2z m1130 -1 c0 -5 -4 -10 -10 -10 -5 0 -10 5 -10 10 0 6 5 10 10 10 6 0 10
-4 10 -10z m2300 -11 c0 -5 -4 -9 -10 -9 -5 0 -10 7 -10 16 0 8 5 12 10 9 6
-3 10 -10 10 -16z m1067 -1 c-3 -8 -6 -5 -6 6 -1 11 2 17 5 13 3 -3 4 -12 1
-19z m-1133 -28 c-6 -6 -10 -3 -10 10 0 13 4 16 10 10 7 -7 7 -13 0 -20z
m-1943 -5 c0 -5 -9 -11 -21 -13 -20 -3 -27 8 -13 22 10 9 34 3 34 -9z m209
-14 c0 -27 -14 -33 -36 -16 -16 13 -17 16 -4 25 24 15 40 12 40 -9z m-1194
-55 c-14 -14 -26 -30 -26 -36 0 -5 -7 -10 -15 -10 -21 0 -19 26 5 50 25 25 26
34 3 26 -15 -5 -15 -4 1 9 22 17 40 20 31 5 -3 -5 -1 -10 4 -10 6 0 12 8 12
18 1 12 3 11 6 -4 3 -14 -5 -31 -21 -48z m-205 40 c-7 -8 -9 -25 -5 -40 5 -20
2 -26 -10 -26 -13 0 -15 -6 -10 -26 5 -19 4 -25 -5 -20 -6 4 -11 1 -11 -8 0
-10 6 -13 15 -10 17 7 18 3 9 -20 -3 -9 -12 -16 -20 -16 -8 0 -14 -5 -14 -11
0 -5 -5 -7 -10 -4 -12 8 -11 104 2 152 6 24 15 33 36 36 15 2 29 5 31 6 2 0
-2 -5 -8 -13z m1139 4 c0 -5 -14 -24 -30 -42 -31 -33 -33 -24 -7 30 10 22 37
31 37 12z m-2195 -39 c-18 -35 -21 -37 -29 -16 -5 15 31 62 41 52 2 -3 -3 -19
-12 -36z m875 10 c0 -10 -9 -29 -19 -42 -18 -22 -20 -22 -26 -6 -8 18 18 67
35 67 6 0 10 -9 10 -19z m320 -6 c0 -8 -4 -15 -9 -15 -5 0 -15 -20 -22 -45
-14 -47 -23 -55 -33 -29 -10 27 -7 59 10 82 17 25 54 30 54 7z m1160 0 c-7 -9
-15 -13 -17 -11 -7 7 7 26 19 26 6 0 6 -6 -2 -15z m2870 -15 c0 -5 -2 -10 -4
-10 -3 0 -8 5 -11 10 -3 6 -1 10 4 10 6 0 11 -4 11 -10z m-4344 -37 c-13 -24
-15 -25 -16 -7 0 11 5 25 12 32 19 19 21 6 4 -25z m1310 -19 c-8 -21 -15 -34
-15 -28 -1 15 20 76 25 71 2 -2 -2 -21 -10 -43z m888 20 c17 -7 22 -29 8 -38
-12 -7 -53 24 -47 35 7 11 17 11 39 3z m1036 2 c0 -3 -4 -8 -10 -11 -5 -3 -10
-1 -10 4 0 6 5 11 10 11 6 0 10 -2 10 -4z m-3053 -28 c-3 -8 -6 -5 -6 6 -1 11
2 17 5 13 3 -3 4 -12 1 -19z m3103 -26 c0 -9 -7 -6 -20 11 -11 14 -20 29 -20
33 0 4 9 -1 20 -11 11 -10 20 -25 20 -33z m-1397 31 c-7 -2 -19 -2 -25 0 -7 3
-2 5 12 5 14 0 19 -2 13 -5z m-58 -23 c-3 -5 -11 -10 -16 -10 -6 0 -7 5 -4 10
3 6 11 10 16 10 6 0 7 -4 4 -10z m2770 0 c3 -5 -1 -10 -9 -10 -9 0 -16 5 -16
10 0 6 4 10 9 10 6 0 13 -4 16 -10z m-4636 -17 c-7 -10 -15 -20 -16 -22 -2 -2
-3 5 -3 17 0 14 6 22 16 22 14 0 15 -3 3 -17z m3351 -3 c0 -5 -2 -10 -4 -10
-3 0 -8 5 -11 10 -3 6 -1 10 4 10 6 0 11 -4 11 -10z m-3520 -9 c0 -5 3 -18 6
-28 6 -16 5 -16 -9 2 -19 23 -21 35 -7 35 6 0 10 -4 10 -9z m500 -11 c-19 -12
-30 -12 -30 -1 0 10 31 20 40 14 2 -2 -2 -8 -10 -13z m765 -19 c0 -21 -4 -37
-9 -34 -4 3 -13 -1 -18 -8 -7 -10 -8 -3 -4 20 5 28 21 61 30 61 1 0 2 -18 1
-39z m1866 6 c-13 -13 -26 -3 -16 12 3 6 11 8 17 5 6 -4 6 -10 -1 -17z m-2791
-68 c0 -27 -4 -39 -14 -39 -12 0 -15 36 -7 88 1 2 6 0 11 -3 6 -3 10 -24 10
-46z m1051 24 c-12 -20 -14 -14 -5 12 4 9 9 14 11 11 3 -2 0 -13 -6 -23z m829
4 c0 -14 -78 -53 -87 -43 -4 3 4 17 17 31 25 26 70 34 70 12z m-1714 -81 c32
8 40 -14 9 -26 -26 -10 -27 -13 -21 -63 6 -49 -1 -47 -18 6 -6 17 -8 17 -36
-3 -16 -12 -30 -19 -30 -16 0 10 24 49 43 72 15 17 16 28 9 62 -6 23 -7 44 -3
48 3 3 10 -15 15 -40 8 -40 12 -45 32 -40z m-915 17 l-4 -38 -10 32 c-5 18 -7
40 -3 50 11 28 23 -1 17 -44z m2234 -17 c-4 -23 -11 -45 -16 -50 -5 -6 -9 -21
-10 -35 -1 -22 -2 -20 -10 9 -7 32 -4 94 7 129 3 11 7 11 20 0 11 -9 14 -23 9
-53z m-1658 32 c-3 -8 -6 -5 -6 6 -1 11 2 17 5 13 3 -3 4 -12 1 -19z m3223 -4
c0 -8 -4 -12 -10 -9 -5 3 -10 10 -10 16 0 5 5 9 10 9 6 0 10 -7 10 -16z
m-2130 2 c0 -3 -4 -8 -10 -11 -5 -3 -10 -1 -10 4 0 6 5 11 10 11 6 0 10 -2 10
-4z m780 -6 c0 -5 -4 -10 -10 -10 -5 0 -10 5 -10 10 0 6 5 10 10 10 6 0 10 -4
10 -10z m1297 -16 c-3 -4 -14 -3 -24 0 -15 6 -15 8 -3 16 16 10 39 -4 27 -16z
m-3292 -25 c-3 -8 -25 -24 -48 -34 -41 -19 -42 -22 -51 -82 -9 -65 -15 -73
-36 -48 -8 9 -21 13 -35 9 -28 -7 -65 11 -65 31 0 10 11 15 33 15 27 0 35 5
44 30 6 16 20 33 30 36 46 15 94 42 107 62 10 18 29 1 21 -19z m145 -28 l0
-34 -20 23 c-24 27 -23 25 -8 50 16 25 28 8 28 -39z m165 30 c-4 -15 1 -20 27
-25 31 -7 32 -8 14 -21 -17 -13 -21 -12 -31 2 -11 15 -15 15 -49 -5 -61 -36
-72 -27 -31 23 21 25 27 28 35 15 8 -13 11 -11 16 8 4 12 11 22 16 22 5 0 7
-8 3 -19z m1756 -8 c-8 -15 -10 -15 -11 -2 0 17 10 32 18 25 2 -3 -1 -13 -7
-23z m-851 -13 c0 -5 -4 -10 -10 -10 -5 0 -10 5 -10 10 0 6 5 10 10 10 6 0 10
-4 10 -10z m2984 -5 c-3 -8 -14 -17 -24 -20 -11 -3 -17 -12 -14 -19 3 -7 -2
-19 -11 -26 -13 -11 -15 -9 -15 12 0 13 7 33 16 44 8 10 13 13 9 7 -9 -18 10
-16 25 2 16 19 21 19 14 0z m-6260 -9 c-3 -8 -17 -22 -30 -31 -22 -14 -24 -14
-24 3 0 23 19 42 42 42 11 0 15 -5 12 -14z m1421 -76 c1 -87 -9 -85 -23 3 -8
52 -2 77 18 77 3 0 5 -36 5 -80z m2692 58 c-3 -8 -6 -5 -6 6 -1 11 2 17 5 13
3 -3 4 -12 1 -19z m888 12 c3 -5 1 -10 -4 -10 -6 0 -11 5 -11 10 0 6 2 10 4
10 3 0 8 -4 11 -10z m166 -3 c-1 -12 -15 -9 -19 4 -3 6 1 10 8 8 6 -3 11 -8
11 -12z m1173 -3 c21 -21 20 -34 -3 -34 -10 0 -29 -8 -42 -18 l-22 -19 21 -5
c12 -4 22 -3 22 1 0 4 7 8 15 8 8 0 15 -4 15 -8 0 -5 8 -5 17 -2 13 5 15 2 9
-12 -4 -11 -2 -22 6 -27 10 -6 10 -10 -2 -18 -10 -6 -16 -6 -18 0 -2 6 -10 10
-17 10 -8 0 -19 9 -25 20 -6 11 -15 20 -20 20 -5 0 -21 5 -37 12 -15 6 -31 11
-35 10 -5 -1 -8 3 -8 8 0 6 7 10 15 10 8 0 15 5 15 11 0 6 8 9 19 6 19 -5 55
26 44 37 -4 3 -1 6 5 6 6 0 18 -7 26 -16z m-4562 -45 c-2 -19 -9 -43 -15 -54
-11 -18 -12 -15 -15 24 -4 51 3 74 21 68 7 -2 11 -17 9 -38z m913 31 c4 -6 -7
-13 -24 -16 -19 -4 -31 -13 -31 -22 0 -16 -47 -91 -64 -104 -5 -3 -10 -18 -12
-32 -1 -14 -10 -33 -19 -42 -15 -15 -15 -14 -9 11 6 26 5 28 -20 23 -15 -3
-26 -1 -26 6 0 5 -14 -5 -31 -24 l-31 -35 25 35 c13 19 29 35 35 35 6 0 14 4
19 9 5 5 3 6 -4 2 -19 -10 -15 6 6 32 24 27 31 28 24 2 -3 -11 -1 -20 5 -20
13 0 26 36 18 49 -8 13 36 74 64 88 30 15 67 17 75 3z m2226 -36 c-9 -28 -9
-29 -10 -3 -1 14 2 29 6 32 11 12 13 2 4 -29z m-2776 14 c18 -8 38 -36 63 -88
25 -50 42 -75 51 -72 22 7 7 -20 -22 -42 l-27 -20 -27 21 c-21 15 -32 37 -45
87 -9 37 -23 75 -32 85 -33 37 -12 53 39 29z m1085 -9 c0 -5 -4 -9 -10 -9 -5
0 -10 7 -10 16 0 8 5 12 10 9 6 -3 10 -10 10 -16z m527 15 c-3 -3 -12 -4 -19
-1 -8 3 -5 6 6 6 11 1 17 -2 13 -5z m1203 -2 c0 -5 12 -23 26 -40 21 -24 30
-29 40 -21 18 15 34 3 34 -27 0 -28 8 -31 26 -6 12 16 13 15 14 -6 0 -13 -12
-34 -26 -47 -27 -25 -64 -34 -64 -15 0 6 5 10 10 10 31 0 -12 52 -44 54 -15 0
-27 7 -27 16 -6 59 -5 90 2 90 5 0 9 -4 9 -8z m100 -2 c0 -5 -4 -10 -10 -10
-5 0 -10 5 -10 10 0 6 5 10 10 10 6 0 10 -4 10 -10z m1406 -17 c-2 -10 -12
-18 -22 -19 -30 -1 -37 7 -17 22 25 19 42 17 39 -3z m-2359 -25 c-3 -8 -6 -5
-6 6 -1 11 2 17 5 13 3 -3 4 -12 1 -19z m717 16 c20 -8 21 -43 1 -50 -8 -4
-15 -15 -15 -25 0 -20 15 -26 25 -9 11 18 25 10 25 -14 0 -40 -63 -52 -74 -13
-10 39 -7 105 7 110 6 3 13 6 14 6 1 1 8 -2 17 -5z m301 -4 c3 -5 2 -10 -4
-10 -5 0 -13 5 -16 10 -3 6 -2 10 4 10 5 0 13 -4 16 -10z m-409 -20 c18 0 18
-11 -1 -36 -13 -16 -16 -17 -25 -4 -5 8 -10 22 -10 31 0 19 13 34 18 20 2 -6
10 -11 18 -11z m1761 -12 c-3 -8 -6 -5 -6 6 -1 11 2 17 5 13 3 -3 4 -12 1 -19z
m-5582 -68 c17 0 28 -34 20 -61 -5 -15 -4 -19 4 -15 21 13 11 -17 -13 -39 -13
-12 -25 -28 -28 -36 -4 -11 -10 -12 -24 -3 -25 14 -33 103 -11 119 8 6 18 35
23 65 l9 55 3 -42 c2 -28 8 -43 17 -43z m1472 43 c-3 -10 -5 -4 -5 12 0 17 2
24 5 18 2 -7 2 -21 0 -30z m797 28 c3 -5 -10 -18 -29 -30 -42 -24 -47 -44 -9
-35 24 6 25 5 15 -14 -16 -30 -42 -42 -63 -31 -29 15 -21 44 22 83 41 37 55
43 64 27z m2048 -4 c8 4 9 -2 5 -18 -4 -13 -7 -30 -7 -36 0 -7 -4 -13 -9 -13
-5 0 -8 18 -7 40 0 23 2 36 4 30 2 -5 9 -7 14 -3z m78 -49 c0 -11 -8 -18 -19
-18 -11 0 -23 -5 -27 -12 -5 -7 0 -9 14 -6 25 7 37 -16 22 -40 -9 -14 -10 -12
-4 7 5 18 3 22 -7 15 -46 -28 -56 -12 -43 67 l6 37 29 -17 c16 -9 29 -24 29
-33z m844 46 c22 -8 20 -34 -2 -34 -19 0 -42 18 -42 32 0 9 22 10 44 2z m86
-12 c0 -4 -11 -12 -25 -18 -23 -11 -24 -11 -8 12 13 21 33 25 33 6z m-540 4
c0 -3 -4 -8 -10 -11 -5 -3 -10 -1 -10 4 0 6 5 11 10 11 6 0 10 -2 10 -4z
m-2890 -15 c0 -6 -4 -13 -10 -16 -5 -3 -10 1 -10 9 0 9 5 16 10 16 6 0 10 -4
10 -9z m2145 -28 c-5 -10 -9 -22 -9 -27 -1 -13 -26 -20 -26 -7 0 6 -7 11 -15
11 -25 0 -17 17 17 33 37 18 44 16 33 -10z m211 18 c-3 -5 1 -12 10 -15 13 -5
14 -9 4 -21 -14 -17 -50 -20 -50 -5 0 5 8 19 17 30 18 21 28 27 19 11z m247
-18 c23 -28 22 -37 -4 -30 -13 3 -28 -2 -40 -14 -24 -24 -29 -24 -29 0 0 11
-4 23 -10 26 -5 3 -10 11 -10 16 0 5 11 2 25 -7 27 -17 31 -13 16 15 -15 26
29 22 52 -6z m437 18 c0 -6 -4 -13 -10 -16 -5 -3 -10 1 -10 9 0 9 5 16 10 16
6 0 10 -4 10 -9z m85 -2 c11 -16 1 -19 -13 -3 -7 8 -8 14 -3 14 5 0 13 -5 16
-11z m80 -10 c0 -8 -10 -14 -22 -15 -14 -1 -21 4 -20 16 1 20 42 20 42 -1z
m458 3 c20 10 21 10 9 -5 -8 -9 -11 -21 -7 -27 11 -18 -10 -11 -24 9 -8 11
-21 17 -30 13 -14 -5 -14 -4 -1 10 13 13 16 14 23 2 6 -11 13 -12 30 -2z
m-815 -8 c2 -1 -1 -11 -6 -21 -12 -22 -72 -30 -83 -11 -13 20 31 48 61 41 14
-3 26 -7 28 -9z m-4155 -9 c-3 -9 -8 -14 -10 -11 -3 3 -2 9 2 15 9 16 15 13 8
-4z m832 5 c3 -5 -3 -10 -15 -10 -12 0 -18 5 -15 10 3 6 10 10 15 10 5 0 12
-4 15 -10z m154 1 c12 -8 9 -11 -12 -16 -15 -4 -35 -4 -44 -1 -15 6 -15 8 -3
16 19 12 41 12 59 1z m294 -16 c-3 -9 -8 -14 -10 -11 -3 3 -2 9 2 15 9 16 15
13 8 -4z m3531 1 c-3 -9 -12 -12 -22 -9 -15 6 -9 11 25 22 1 1 0 -5 -3 -13z
m-1294 -8 c0 -25 -16 -37 -38 -31 -25 6 -24 5 -16 27 7 19 54 22 54 4z m490
-40 c0 -11 -5 -18 -12 -15 -7 2 -12 11 -12 20 1 9 -4 13 -12 10 -14 -5 -20 18
-7 30 10 11 43 -24 43 -45z m172 17 c-4 -26 -16 -32 -27 -15 -8 12 13 52 24
46 5 -3 6 -17 3 -31z m-2883 -13 c-6 -18 -15 -32 -21 -32 -5 0 -8 3 -6 8 33
67 47 80 27 24z m2961 27 c0 -8 4 -9 13 0 17 14 28 4 20 -17 -16 -42 -54 -43
-51 -2 2 28 18 44 18 19z m-3365 -9 c3 -5 -1 -10 -10 -10 -9 0 -13 5 -10 10 3
6 8 10 10 10 2 0 7 -4 10 -10z m471 -17 c-8 -16 -21 -37 -30 -48 -15 -20 -15
-20 -16 3 0 13 11 34 25 47 32 33 39 32 21 -2z m3695 17 c10 -6 19 -17 19 -26
0 -13 -3 -13 -23 1 -13 8 -27 12 -30 8 -4 -3 -7 -2 -7 4 0 10 10 23 17 23 3 0
13 -5 24 -10z m-2819 -45 c-3 -36 -8 -45 -23 -45 -16 0 -18 5 -13 28 17 71 41
82 36 17z m75 25 c21 -16 23 -21 10 -26 -27 -10 -52 0 -55 24 -4 27 12 28 45
2z m793 9 c0 -20 -21 -49 -35 -49 -19 0 -19 10 1 38 16 23 34 29 34 11z m42
-24 c-3 -16 -11 -25 -23 -25 -11 0 -19 5 -19 10 0 6 7 10 16 10 8 0 12 5 9 10
-8 12 3 32 14 25 5 -2 6 -16 3 -30z m-3047 5 c0 -8 -10 -16 -22 -18 -22 -3
-32 16 -16 32 12 11 38 2 38 -14z m3820 10 c3 -5 1 -10 -4 -10 -6 0 -11 5 -11
10 0 6 2 10 4 10 3 0 8 -4 11 -10z m126 -23 c-8 -8 -11 -7 -11 4 0 20 13 34
18 19 3 -7 -1 -17 -7 -23z m-4914 1 c-3 -8 -6 -5 -6 6 -1 11 2 17 5 13 3 -3 4
-12 1 -19z m1714 -11 c-13 -12 -20 -15 -16 -7 14 26 28 41 33 35 3 -3 -5 -16
-17 -28z m729 3 c-20 -12 -33 -1 -19 16 9 11 15 12 23 4 8 -8 7 -13 -4 -20z
m1840 20 c0 -5 -4 -10 -10 -10 -5 0 -10 5 -10 10 0 6 5 10 10 10 6 0 10 -4 10
-10z m262 -12 c-7 -7 -12 -8 -12 -2 0 14 12 26 19 19 2 -3 -1 -11 -7 -17z
m-3680 -10 c-7 -7 -12 -8 -12 -2 0 6 3 14 7 17 3 4 9 5 12 2 2 -3 -1 -11 -7
-17z m1778 8 c0 -26 -12 -45 -25 -40 -7 3 -31 -12 -53 -33 -115 -109 -117 -98
-3 20 67 68 81 78 81 53z m1009 -7 c11 -18 11 -23 0 -30 -15 -9 -29 7 -29 34
0 23 12 22 29 -4z m451 -11 c0 -5 -4 -8 -10 -8 -5 0 -10 10 -10 23 0 18 2 19
10 7 5 -8 10 -18 10 -22z m265 22 c3 -5 0 -10 -9 -10 -8 0 -16 -6 -19 -12 -2
-7 -8 -10 -12 -6 -8 8 12 38 26 38 4 0 11 -4 14 -10z m152 -32 c15 -2 28 -8
30 -13 2 -8 -14 -8 -54 0 -33 5 -48 11 -35 13 12 2 20 8 17 13 -4 5 -3 15 2
22 6 8 9 5 11 -10 2 -15 11 -23 29 -25z m1363 21 c0 -14 -17 -10 -23 5 -4 10
-1 13 9 9 7 -3 14 -9 14 -14z m-4484 -15 c7 -28 -9 -74 -26 -74 -5 0 -10 -9
-10 -20 0 -11 -4 -20 -9 -20 -4 0 -12 -15 -17 -32 -6 -18 -17 -34 -27 -36 -37
-7 -10 134 36 186 27 29 45 28 53 -4z m2819 8 c-10 -11 -42 -8 -42 3 0 7 10
10 24 7 13 -2 21 -7 18 -10z m1350 8 c3 -5 1 -10 -4 -10 -6 0 -11 5 -11 10 0
6 2 10 4 10 3 0 8 -4 11 -10z m-1657 -41 c-1 -17 5 -34 11 -39 7 -4 11 -16 9
-26 -4 -16 -6 -15 -16 8 -6 14 -19 31 -29 37 -17 10 -17 12 -1 21 10 7 15 17
11 27 -4 10 -2 14 5 9 6 -3 10 -20 10 -37z m812 25 c0 -18 -26 -19 -33 -1 -3
8 3 14 14 14 11 1 19 -5 19 -13z m-4739 -63 c-6 -20 -12 -45 -15 -56 -2 -11
-4 -4 -5 15 -1 45 21 123 27 96 2 -11 -1 -35 -7 -55z m1559 60 c0 -13 -42 -84
-55 -93 -31 -23 -35 21 -5 70 18 30 60 46 60 23z m3060 -11 c-33 -26 -49 -26
-19 0 13 10 29 19 34 19 6 1 -1 -8 -15 -19z m-2668 -39 c-2 -15 -10 -28 -18
-28 -16 0 -19 13 -4 22 6 3 10 18 10 33 0 18 3 23 8 14 5 -7 7 -25 4 -41z
m893 33 c19 -15 19 -15 -9 -12 -16 2 -31 9 -34 16 -5 17 19 15 43 -4z m1833
-3 c-9 -15 -16 -17 -25 -9 -16 13 -7 28 18 28 16 0 18 -3 7 -19z m1972 9 c-8
-5 -22 -10 -30 -10 -13 0 -13 1 0 10 8 5 22 10 30 10 13 0 13 -1 0 -10z
m-5485 -30 c0 -13 -5 -25 -12 -27 -13 -5 -27 32 -18 47 11 18 30 5 30 -20z
m976 3 c-12 -20 -14 -14 -5 12 4 9 9 14 11 11 3 -2 0 -13 -6 -23z m-111 -1 c0
-21 -36 -59 -46 -49 -4 4 -1 20 6 37 14 33 40 41 40 12z m1210 -6 c0 -14 5
-28 10 -31 18 -11 11 -23 -20 -34 -18 -6 -28 -6 -25 -1 4 6 2 10 -3 10 -6 0
-12 -7 -16 -15 -3 -8 -13 -15 -22 -15 -13 0 -14 3 -4 15 15 17 7 19 -21 5 -13
-7 -19 -7 -19 0 0 5 4 10 10 10 17 0 89 54 90 68 0 23 20 12 20 -12z m784 0
c-6 -16 -24 -23 -24 -8 0 10 22 33 27 28 2 -2 1 -11 -3 -20z m-4157 -46 c-1
-33 -4 -56 -8 -52 -15 15 -14 112 1 112 5 0 8 -27 7 -60z m2337 52 c7 -12 -16
-38 -51 -56 -28 -14 -33 -14 -33 -2 0 15 55 66 70 66 5 0 11 -3 14 -8z m1163
-8 c2 -6 -5 -14 -17 -17 -15 -4 -20 0 -20 15 0 21 30 23 37 2z m795 -14 c-14
-15 -22 -18 -27 -10 -4 6 -5 12 -4 13 2 1 13 7 24 13 28 16 31 9 7 -16z
m-2278 12 c2 -4 1 -14 -3 -20 -10 -16 -41 -5 -41 14 0 15 35 20 44 6z m786 -1
c0 -5 -11 -8 -25 -8 -13 0 -22 3 -19 8 3 5 14 9 25 9 10 0 19 -4 19 -9z m890
-1 c0 -5 -4 -10 -10 -10 -5 0 -10 5 -10 10 0 6 5 10 10 10 6 0 10 -4 10 -10z
m174 -6 c8 -21 8 -24 -4 -24 -5 0 -10 8 -10 18 0 10 -3 13 -8 6 -4 -6 -19 -14
-34 -18 -23 -5 -26 -3 -21 10 3 9 13 14 24 11 11 -3 22 -1 25 4 8 14 21 11 28
-7z m-4086 -26 c7 -15 21 -30 32 -33 11 -4 20 -15 20 -26 0 -10 4 -19 9 -19
14 0 44 -51 34 -60 -4 -4 -21 -10 -38 -13 -16 -4 -24 -4 -17 -1 17 8 15 41 -3
48 -8 3 -20 16 -25 28 -6 13 -21 42 -35 66 -20 37 -21 43 -7 40 9 -2 23 -15
30 -30z m2112 1 c0 -11 -12 -15 -62 -23 -33 -4 -38 -2 -38 15 0 11 10 23 22
28 25 9 78 -5 78 -20z m1112 6 c6 -28 -16 -36 -26 -9 -9 24 -7 34 8 34 7 0 16
-11 18 -25z m1017 -11 c-6 -16 -13 -24 -16 -17 -5 13 16 58 23 50 3 -2 -1 -17
-7 -33z m846 18 c-3 -3 -11 0 -18 7 -9 10 -8 11 6 5 10 -3 15 -9 12 -12z
m-2345 -1 c0 -12 -28 -22 -34 -12 -3 5 -3 11 1 15 9 9 33 7 33 -3z m740 -1 c0
-5 -4 -10 -10 -10 -5 0 -10 5 -10 10 0 6 5 10 10 10 6 0 10 -4 10 -10z m180
-12 c0 -4 -4 -8 -10 -8 -5 0 -10 -4 -10 -9 0 -4 12 -7 28 -4 l27 3 -25 -10
c-32 -14 -34 -14 -41 13 -5 18 -2 23 12 23 11 0 19 -4 19 -8z m125 -8 c-3 -5
-14 -10 -23 -9 -14 0 -13 2 3 9 27 11 27 11 20 0z m479 -5 c-4 -8 -8 -15 -10
-15 -2 0 -4 7 -4 15 0 8 4 15 10 15 5 0 7 -7 4 -15z m-524 -16 c0 -6 -4 -7
-10 -4 -5 3 -10 11 -10 16 0 6 5 7 10 4 6 -3 10 -11 10 -16z m365 11 c3 -5 -1
-10 -9 -10 -8 0 -18 5 -21 10 -3 6 1 10 9 10 8 0 18 -4 21 -10z m-3668 -68
c-12 -25 -30 -10 -19 16 3 10 1 13 -6 8 -7 -4 -12 -1 -12 9 0 9 4 14 9 10 5
-3 13 0 17 7 13 20 22 -24 11 -50z m1750 52 c-3 -3 -12 -4 -19 -1 -8 3 -5 6 6
6 11 1 17 -2 13 -5z m584 -4 c25 -14 24 -40 -1 -40 -17 0 -19 -3 -11 -19 10
-17 9 -18 -14 -7 l-24 11 25 15 c30 18 30 24 2 38 -13 6 -17 11 -10 11 7 1 22
-4 33 -9z m464 -54 c3 -25 0 -36 -8 -33 -7 2 -13 23 -15 48 -4 55 18 41 23
-15z m170 44 c-3 -5 -13 -10 -21 -10 -8 0 -14 5 -14 10 0 6 9 10 21 10 11 0
17 -4 14 -10z m-2604 -31 c21 -17 39 -37 39 -45 0 -21 -49 -18 -57 4 -3 9 -17
29 -31 45 -22 23 -23 27 -8 27 10 0 36 -14 57 -31z m2914 21 c3 -5 -1 -10 -10
-10 -9 0 -13 5 -10 10 3 6 8 10 10 10 2 0 7 -4 10 -10z m-1891 -36 c-6 -30 -4
-36 14 -41 41 -10 33 -47 -13 -55 -15 -2 -20 2 -18 17 1 11 -3 23 -10 27 -8 5
-7 18 2 47 15 51 35 55 25 5z m126 -5 c0 -4 -5 -11 -10 -14 -7 -4 -7 -11 -2
-18 19 -26 20 -43 1 -44 -14 -1 -19 5 -19 23 0 13 -5 33 -12 43 -9 15 -9 23 2
36 13 16 15 16 27 -1 7 -10 13 -21 13 -25z m188 16 c14 -31 6 -55 -19 -55 -15
0 -19 7 -19 40 0 46 20 54 38 15z m683 2 c-10 -9 -11 -8 -5 6 3 10 9 15 12 12
3 -3 0 -11 -7 -18z m941 -12 c-4 -35 -32 -51 -32 -18 0 13 26 53 35 53 0 0 -1
-16 -3 -35z m-3141 -7 c-4 -13 -6 -29 -4 -35 3 -7 0 -13 -6 -13 -6 0 -11 6
-11 13 0 24 12 57 21 57 5 0 5 -10 0 -22z m964 -38 c0 -48 -2 -55 -20 -55 -29
0 -41 44 -24 84 22 50 44 36 44 -29z m-1344 37 c-1 -12 -15 -9 -19 4 -3 6 1
10 8 8 6 -3 11 -8 11 -12z m1177 -4 c2 -9 -7 -13 -27 -13 -30 0 -39 9 -24 24
11 10 46 3 51 -11z m1382 8 c0 -5 16 -12 35 -15 33 -7 49 -25 23 -27 -7 -1
-20 -2 -28 -3 -8 -1 -23 5 -32 13 -19 15 -24 41 -8 41 6 0 10 -4 10 -9z m770
-11 c0 -5 -7 -10 -15 -10 -8 0 -15 5 -15 10 0 6 7 10 15 10 8 0 15 -4 15 -10z
m-3166 -12 c-3 -4 -9 -8 -15 -8 -5 0 -9 4 -9 8 0 5 7 9 15 9 8 0 12 -4 9 -9z
m180 -12 c-6 -16 -24 -23 -24 -8 0 10 22 33 27 28 2 -2 1 -11 -3 -20z m3532
14 c8 0 14 -4 14 -9 0 -5 -16 -9 -35 -9 -19 0 -35 3 -35 7 0 14 14 22 28 16 7
-3 20 -5 28 -5z m-2437 -82 c-25 -61 -40 -15 -17 49 l13 34 7 -28 c5 -16 3
-39 -3 -55z m361 69 c66 -23 78 -42 35 -53 -14 -4 -23 -9 -20 -12 7 -8 -36
-52 -50 -52 -14 0 -29 89 -19 114 7 19 9 19 54 3z m273 0 c4 3 7 -1 7 -10 0
-10 5 -14 15 -11 9 4 15 0 15 -10 0 -22 -36 -21 -50 2 -10 16 -10 16 -20 0 -6
-10 -18 -18 -26 -18 -8 0 -12 -4 -9 -10 3 -5 -1 -10 -9 -10 -9 0 -16 -4 -16
-10 0 -5 -18 -10 -40 -10 -29 0 -40 -4 -40 -15 0 -8 -3 -15 -7 -15 -13 1 -43
27 -43 37 0 20 41 46 72 45 18 0 36 5 40 11 5 9 10 9 19 0 9 -9 18 -6 37 12
17 16 30 21 37 15 7 -6 15 -7 18 -3z m1393 -34 c-3 -3 -8 2 -12 11 -5 13 -9
14 -21 5 -11 -10 -18 -9 -31 5 -16 16 -15 17 11 11 19 -5 27 -3 27 6 0 7 7 3
16 -9 9 -13 13 -26 10 -29z m-4372 21 c3 -9 6 -25 6 -36 0 -17 -3 -18 -15 -8
-16 13 -21 60 -6 60 5 0 12 -7 15 -16z m816 -5 c0 -6 -4 -7 -10 -4 -5 3 -10
11 -10 16 0 6 5 7 10 4 6 -3 10 -11 10 -16z m1331 8 c-1 -4 -1 -16 -1 -27 0
-11 -7 -20 -15 -20 -15 0 -21 40 -8 54 8 8 25 3 24 -7z m933 -2 c3 -8 15 -15
26 -15 15 0 20 -5 18 -17 -4 -21 -43 -24 -43 -4 0 23 -22 24 -28 0 -3 -11 -10
-18 -16 -14 -16 10 -13 45 4 45 8 0 15 5 15 10 0 15 17 12 24 -5z m874 -26
c-2 -46 -18 -46 -18 1 0 23 4 39 9 35 5 -3 9 -19 9 -36z m2053 31 c5 0 9 -5 9
-11 0 -15 -43 -7 -48 10 -3 10 0 12 12 8 10 -4 22 -7 27 -7z m-2586 -26 c17
-22 30 -26 80 -28 40 -2 60 -8 63 -17 3 -8 12 -22 20 -32 12 -13 13 -20 4 -29
-8 -8 -9 -15 -1 -25 14 -16 4 -43 -16 -43 -9 0 -27 7 -40 16 -24 16 -25 15
-25 -5 0 -14 -6 -21 -20 -21 -13 0 -20 7 -20 20 0 11 7 20 16 20 8 0 12 5 9
10 -4 6 -11 8 -16 4 -5 -3 -16 0 -24 6 -17 14 -35 5 -35 -16 0 -8 4 -13 9 -10
5 3 15 -2 22 -11 12 -14 12 -16 0 -9 -8 5 -17 3 -23 -5 -7 -11 -11 -11 -15 -1
-2 6 -9 10 -14 6 -5 -3 -8 16 -5 46 3 41 1 50 -11 46 -8 -3 -23 -1 -34 4 -12
7 -19 7 -19 1 0 -6 -7 -8 -16 -4 -27 10 -13 47 21 53 18 3 34 14 40 28 13 29
25 28 50 -4z m2365 16 c0 -5 -4 -10 -9 -10 -6 0 -13 5 -16 10 -3 6 1 10 9 10
9 0 16 -4 16 -10z m-4343 -6 c-3 -3 -12 -4 -19 -1 -8 3 -5 6 6 6 11 1 17 -2
13 -5z m2858 -4 c3 -5 1 -10 -4 -10 -6 0 -11 5 -11 10 0 6 2 10 4 10 3 0 8 -4
11 -10z m1425 -11 c0 -5 -4 -9 -10 -9 -5 0 -10 7 -10 16 0 8 5 12 10 9 6 -3
10 -10 10 -16z m-2482 5 c15 -5 21 -12 17 -22 -3 -8 0 -21 6 -28 15 -19 3 -33
-26 -30 -32 3 -38 10 -41 43 -5 42 2 48 44 37z m-1944 -19 c3 -8 1 -15 -4 -15
-6 0 -10 7 -10 15 0 8 2 15 4 15 2 0 6 -7 10 -15z m3305 -11 c-14 -18 -24 -11
-15 11 3 9 11 13 16 10 8 -5 7 -11 -1 -21z m-932 -5 c-6 -10 -13 -16 -16 -14
-2 3 -13 -2 -22 -11 -17 -15 -19 -15 -25 0 -3 9 -10 13 -15 10 -5 -3 -9 -2 -9
2 0 14 33 30 65 31 31 1 33 -1 22 -18z m-697 -14 c0 -8 -9 -20 -21 -28 -20
-15 -20 -15 6 -39 23 -22 25 -26 10 -38 -21 -17 -55 0 -79 41 -20 34 -20 34
31 65 39 23 53 23 53 -1z m-3125 -6 c6 -17 9 -18 22 -7 15 12 15 10 4 -11 -10
-17 -15 -20 -21 -11 -6 9 -20 11 -49 6 -36 -5 -41 -4 -41 13 0 15 8 21 33 24
17 2 35 5 39 5 4 1 10 -7 13 -19z m4153 3 c2 -7 -3 -12 -12 -12 -9 0 -16 7
-16 16 0 17 22 14 28 -4z m-948 4 c0 -2 -7 -6 -15 -10 -8 -3 -15 -1 -15 4 0 6
7 10 15 10 8 0 15 -2 15 -4z m1762 -66 c-10 -30 -25 -42 -33 -28 -4 7 -3 18 3
25 5 7 8 23 4 36 -3 13 -3 27 1 31 10 9 31 -46 25 -64z m569 44 c9 -8 19 -11
22 -7 4 3 7 -6 7 -20 0 -20 -5 -27 -19 -27 -19 0 -81 53 -81 69 0 12 53 0 71
-15z m-2971 6 c0 -5 -4 -10 -10 -10 -5 0 -10 5 -10 10 0 6 5 10 10 10 6 0 10
-4 10 -10z m1345 0 c3 -5 1 -10 -4 -10 -6 0 -11 5 -11 10 0 6 2 10 4 10 3 0 8
-4 11 -10z m196 -13 c-13 -13 -26 -3 -16 12 3 6 11 8 17 5 6 -4 6 -10 -1 -17z
m1517 6 c6 -19 -45 -16 -52 3 -5 12 0 15 21 12 14 -2 28 -9 31 -15z m436 1 c8
-20 8 -54 0 -54 -13 0 -34 30 -34 49 0 25 25 28 34 5z m-2039 -7 c13 -10 15
-16 6 -21 -12 -8 -41 10 -41 25 0 13 13 11 35 -4z m-730 -16 c0 -8 -4 -16 -10
-18 -16 -5 -38 14 -30 26 9 16 40 9 40 -8z m1120 -1 c3 -5 -1 -10 -9 -10 -9 0
-16 5 -16 10 0 6 4 10 9 10 6 0 13 -4 16 -10z m131 -14 c-4 -18 -1 -28 11 -35
23 -12 10 -26 -14 -16 -18 8 -28 11 -50 13 -22 3 -14 19 20 41 40 26 40 26 33
-3z m864 3 c0 -5 -4 -9 -10 -9 -5 0 -10 7 -10 16 0 8 5 12 10 9 6 -3 10 -10
10 -16z m-1460 -14 c0 -14 -7 -28 -15 -31 -8 -4 -15 -12 -15 -19 0 -18 -51
-52 -71 -48 -11 3 -15 11 -12 23 4 14 -2 22 -22 30 -19 7 -26 16 -23 32 4 27
21 33 40 14 13 -12 20 -12 54 4 53 25 64 24 64 -5z m415 15 c-3 -5 -10 -10
-16 -10 -5 0 -9 5 -9 10 0 6 7 10 16 10 8 0 12 -4 9 -10z m330 -21 c-4 -5 -14
-5 -26 1 -11 6 -17 15 -14 21 4 5 14 5 26 -1 11 -6 17 -15 14 -21z m919 6 c3
-9 -1 -18 -10 -22 -19 -7 -28 2 -21 22 8 19 23 19 31 0z m-4244 -5 c0 -5 -4
-10 -9 -10 -6 0 -13 5 -16 10 -3 6 1 10 9 10 9 0 16 -4 16 -10z m3860 -5 c0
-8 -7 -15 -15 -15 -16 0 -20 12 -8 23 11 12 23 8 23 -8z m-3240 -24 c0 -24
-26 -35 -34 -14 -8 19 1 33 20 33 8 0 14 -9 14 -19z m1304 0 c12 -19 16 -130
6 -136 -17 -10 -60 23 -60 46 0 11 6 22 14 25 12 5 13 11 3 31 -9 19 -8 26 4
34 18 11 26 11 33 0z m-674 -26 c0 -8 -4 -15 -10 -15 -5 0 -7 7 -4 15 4 8 8
15 10 15 2 0 4 -7 4 -15z m92 -17 c-6 -24 -44 -98 -50 -98 -34 1 -42 80 -11
111 14 14 24 16 41 10 13 -5 22 -15 20 -23z m108 17 c10 -12 7 -15 -14 -21
-33 -8 -51 3 -35 22 15 18 33 18 49 -1z m1898 -9 c3 -13 -1 -17 -14 -14 -11 2
-20 11 -22 22 -3 13 1 17 14 14 11 -2 20 -11 22 -22z m-2412 -1 c7 -18 -32
-75 -52 -75 -19 0 -18 54 2 74 19 20 43 21 50 1z m1222 -7 c-3 -26 -43 -37
-62 -18 -8 8 -6 15 8 26 31 22 58 18 54 -8z m-593 0 c18 -8 25 -18 23 -32 -6
-43 -68 -20 -68 25 0 22 9 24 45 7z m1315 -2 c0 -16 -18 -31 -27 -22 -8 8 5
36 17 36 5 0 10 -6 10 -14z m964 -39 c-3 -58 -2 -57 -19 -57 -8 0 -19 -9 -25
-20 -7 -12 -21 -20 -37 -20 -25 0 -26 -1 -8 -20 17 -19 17 -20 0 -26 -11 -5
-21 -1 -27 9 -5 10 -17 17 -28 17 -10 0 -20 6 -23 13 -7 20 12 47 33 47 19 0
70 46 99 88 21 31 37 17 35 -31z m-186 -2 c12 -19 22 -41 22 -49 0 -18 -28
-25 -59 -14 -13 5 -39 6 -58 2 -30 -6 -34 -4 -31 12 2 10 16 21 34 26 22 5 34
16 38 33 9 34 27 31 54 -10z m-814 6 c9 -15 -23 -36 -36 -23 -5 5 -7 15 -4 21
9 13 33 14 40 2z m4203 -56 c20 -37 30 -68 27 -81 -6 -23 10 -41 21 -24 9 15
51 12 65 -5 15 -18 42 -19 58 -3 6 6 35 13 63 14 41 2 57 8 76 28 13 14 30 27
38 27 19 2 25 3 54 13 15 5 32 3 47 -5 19 -10 27 -10 36 -1 8 8 47 12 106 12
51 0 102 5 112 10 14 8 29 7 52 -3 18 -8 62 -17 98 -21 93 -11 130 -54 78 -90
-26 -18 -100 -21 -129 -6 -16 9 -21 7 -29 -15 -12 -32 -34 -32 -48 0 -7 14
-23 30 -38 35 -37 14 -105 12 -134 -5 -63 -36 -70 -37 -117 -11 -37 21 -48 23
-64 13 -11 -7 -17 -18 -13 -27 3 -8 8 -34 11 -57 5 -34 2 -43 -15 -52 -12 -7
-38 -9 -60 -5 l-39 6 1 -43 c1 -42 0 -43 -34 -47 -70 -7 -142 -4 -153 7 -6 6
-24 11 -39 11 -15 0 -29 6 -29 13 -1 6 -2 17 -3 24 -1 13 -42 46 -68 56 -9 3
-23 -2 -33 -13 -10 -11 -22 -18 -29 -17 -17 3 -7 -65 12 -86 12 -14 14 -22 5
-35 -9 -14 -25 -17 -84 -15 -105 2 -123 11 -139 70 -7 26 -17 52 -21 58 -30
33 19 124 83 154 24 11 51 26 60 33 14 10 20 10 30 0 10 -10 10 -14 -1 -21 -8
-5 -9 -11 -3 -15 6 -3 12 -2 14 3 1 6 24 12 51 14 26 2 50 7 54 10 3 4 -6 22
-21 41 -31 42 -33 69 -5 97 34 34 60 21 96 -46z m-5014 31 c6 -16 -19 -30 -28
-16 -7 11 2 30 15 30 4 0 10 -6 13 -14z m-1003 -37 c0 -11 -4 -17 -10 -14 -5
3 -10 13 -10 21 0 8 5 14 10 14 6 0 10 -9 10 -21z m5650 -10 c0 -5 8 -9 18 -9
43 -1 67 -45 37 -70 -12 -10 -24 -8 -63 12 -48 25 -62 49 -42 72 11 15 50 10
50 -5z m-3634 -35 c10 -39 53 -51 105 -30 11 5 23 -1 37 -18 11 -14 27 -26 36
-26 9 0 16 -7 16 -15 0 -16 -6 -17 -115 -20 -33 -1 -69 -5 -80 -9 -27 -9 -58
14 -49 37 3 9 20 21 38 25 l31 9 -37 22 c-35 21 -48 48 -32 64 12 11 44 -13
50 -39z m3119 40 c11 -3 29 -21 40 -41 22 -39 95 -78 103 -55 4 13 34 16 45 6
3 -4 0 -21 -8 -39 -12 -30 -11 -35 4 -49 21 -19 37 -20 94 -4 85 22 127 -10
107 -82 -6 -22 -15 -40 -19 -40 -5 0 -11 -22 -15 -50 -5 -41 -10 -50 -26 -50
-11 0 -20 -4 -20 -10 0 -15 -32 -12 -54 5 -15 12 -17 19 -9 37 8 18 5 26 -16
44 -53 43 -68 47 -119 28 -26 -9 -51 -22 -57 -29 -5 -6 -47 -19 -92 -28 -156
-33 -250 24 -152 93 30 22 41 71 19 85 -5 3 -10 22 -10 42 0 35 1 35 32 29 18
-3 41 -14 53 -24 38 -35 92 -60 142 -67 42 -5 51 -4 57 11 4 9 5 18 4 18 -46
27 -128 65 -128 60 0 -3 -7 -1 -15 6 -8 7 -15 22 -15 35 0 12 -9 30 -20 40
-11 10 -17 22 -14 26 6 10 58 12 89 3z m273 -10 c25 -18 29 -59 6 -68 -35 -13
-60 -5 -87 29 -15 19 -25 40 -22 45 10 16 78 12 103 -6z m-6239 -24 c42 -22
31 -70 -15 -70 -28 0 -43 42 -24 65 15 18 16 18 39 5z m6591 0 c0 -5 -2 -10
-4 -10 -3 0 -8 5 -11 10 -3 6 -1 10 4 10 6 0 11 -4 11 -10z m-5301 -19 c10
-17 8 -18 -13 -8 -14 7 -22 15 -20 19 9 14 23 9 33 -11z m125 -12 c30 -14 36
-34 36 -131 0 -69 -2 -77 -21 -83 -12 -4 -29 -26 -40 -52 -13 -30 -24 -43 -33
-40 -8 3 -22 0 -32 -7 -50 -35 -114 -27 -114 13 1 19 39 65 63 74 9 3 17 13
17 22 0 18 36 20 43 3 9 -23 28 15 21 42 -3 14 -10 48 -14 75 -8 46 -7 52 16
73 29 26 26 25 58 11z m1983 -23 c36 -11 41 -56 6 -56 -27 0 -83 41 -83 60 0
23 21 31 40 15 8 -7 25 -16 37 -19z m99 -25 c-4 -6 -16 -11 -27 -11 -21 0 -27
35 -6 43 16 6 41 -18 33 -32z m-2738 20 c21 -13 10 -46 -16 -49 -27 -4 -40 22
-22 43 14 17 20 18 38 6z m1597 -7 c15 -15 17 -15 28 1 12 16 15 16 49 -2 32
-16 37 -25 51 -82 18 -72 16 -81 -17 -81 -26 0 -50 22 -38 34 4 4 1 6 -7 4
-11 -2 -15 6 -14 32 1 35 -20 70 -41 70 -6 0 -17 9 -24 20 -15 24 -9 26 13 4z
m3344 -36 c21 -31 26 -127 8 -141 -9 -7 -28 -36 -43 -64 -22 -41 -33 -53 -51
-53 -31 0 -38 -21 -19 -58 17 -32 56 -45 96 -30 31 11 77 -16 94 -55 19 -44 5
-53 -92 -63 -93 -10 -117 -8 -162 16 -85 44 -131 50 -97 12 25 -28 4 -44 -37
-27 -17 7 -47 16 -66 20 -19 4 -41 12 -47 17 -7 6 -40 11 -72 13 -92 3 -119
37 -58 73 28 16 43 18 89 12 31 -5 72 -14 91 -21 30 -11 37 -10 51 4 9 8 25
19 36 22 11 4 18 10 15 14 -6 10 16 72 32 89 6 6 23 12 36 12 31 0 77 36 77
60 0 21 -16 35 -52 44 -26 6 -58 31 -58 44 2 32 86 72 108 50 5 -5 18 1 33 17
28 29 64 27 88 -7z m-2392 -4 c19 -30 8 -59 -22 -59 -23 0 -60 49 -52 69 10
26 54 19 74 -10z m-157 8 c0 -5 -6 -17 -14 -28 -14 -18 -16 -18 -32 -2 -9 9
-13 21 -10 27 8 13 56 15 56 3z m-1853 -59 c-23 -23 -42 -4 -33 33 l7 27 22
-21 c20 -21 20 -23 4 -39z m593 33 c20 -9 25 -18 25 -50 0 -38 -2 -40 -49 -59
-64 -27 -81 -17 -81 49 1 73 8 85 47 78 18 -4 44 -12 58 -18z m851 -5 c16 -16
29 -37 29 -45 0 -20 -7 -20 -26 -1 -9 8 -23 15 -33 15 -22 0 -55 35 -46 49 12
20 46 11 76 -18z m-566 9 c3 -5 1 -19 -5 -30 -9 -16 -15 -18 -31 -10 -15 9
-17 15 -9 30 11 21 35 26 45 10z m-2164 -10 c23 0 5 -28 -30 -48 -63 -35 -90
-27 -71 23 8 20 15 25 29 20 11 -3 22 -1 26 5 4 6 14 9 22 6 8 -3 19 -6 24 -6z
m1131 1 c18 -2 30 -44 19 -67 -24 -55 -93 -12 -77 49 5 23 8 24 58 18z m1459
-12 c9 -18 7 -25 -14 -46 -40 -40 -53 -17 -31 55 6 19 32 14 45 -9z m-1693 5
c15 -4 22 -14 22 -30 0 -20 -5 -24 -32 -24 -18 0 -43 3 -55 6 -25 7 -31 24 -9
24 7 0 19 7 26 15 14 17 16 17 48 9z m-724 -26 c14 -20 14 -24 0 -47 -22 -35
-44 -51 -69 -51 -28 0 -55 30 -50 55 2 11 4 23 4 28 1 4 8 7 16 7 8 0 15 4 15
9 0 9 20 15 57 20 6 0 19 -9 27 -21z m1835 3 c17 -11 6 -48 -20 -62 -28 -15
-59 -2 -59 25 0 40 43 60 79 37z m3414 -17 c28 -5 42 -14 52 -35 20 -39 19
-49 -7 -49 -13 -1 -36 -7 -53 -14 -24 -10 -30 -19 -30 -42 0 -21 -5 -30 -20
-32 -27 -4 -87 59 -75 78 5 8 6 26 3 40 -10 52 34 69 130 54z m-240 -29 c20
-8 38 -19 41 -24 3 -5 15 -7 26 -4 14 4 20 0 20 -11 0 -9 -5 -16 -11 -16 -6 0
-9 -6 -6 -13 3 -7 -10 -23 -29 -36 -34 -23 -42 -23 -134 0 -11 3 -16 -6 -18
-36 -2 -22 -9 -43 -15 -47 -18 -11 -65 -10 -89 3 -12 6 -47 13 -77 14 -78 4
-111 19 -111 49 0 31 40 41 102 26 37 -10 51 -9 74 3 18 9 50 14 82 12 28 -1
52 -2 52 0 0 1 -5 16 -11 34 -20 57 27 78 104 46z m-4876 -17 c27 -25 29 -41
7 -62 -24 -24 -51 -19 -90 18 -33 31 -34 34 -19 50 23 23 74 20 102 -6z m2221
10 c-2 -6 -10 -14 -16 -16 -7 -2 -10 2 -6 12 7 18 28 22 22 4z m4773 -15 c15
-9 31 -23 33 -30 13 -33 -64 -59 -92 -31 -17 17 -15 49 6 64 22 17 19 17 53
-3z m-7998 -9 c60 -31 57 -49 -10 -60 -39 -6 -43 -4 -54 19 -24 52 5 71 64 41z
m2397 -4 c0 -13 -7 -20 -20 -20 -22 0 -23 1 -14 24 9 23 34 20 34 -4z m-1067
-3 c9 -24 -5 -67 -25 -78 -28 -15 -65 -3 -74 23 -12 40 84 94 99 55z m-925
-79 c20 -20 13 -35 -15 -33 -41 3 -43 4 -43 19 0 24 39 33 58 14z m232 -55 c0
-7 -6 -23 -12 -36 -7 -12 -13 -23 -13 -23 0 -1 -11 -5 -23 -9 -21 -6 -23 -5
-13 13 14 26 14 28 -5 46 -14 15 -14 18 7 35 20 16 24 17 41 2 10 -8 18 -21
18 -28z m187 0 c3 -10 15 -25 26 -34 17 -14 18 -20 9 -49 -7 -18 -9 -36 -6
-41 3 -5 -15 -9 -40 -9 -25 0 -48 -4 -51 -10 -10 -16 -22 -12 -54 21 -34 34
-40 66 -13 76 9 4 23 15 30 25 11 15 53 33 85 37 4 1 10 -7 14 -16z m714 -5
c31 -33 59 -80 59 -101 0 -10 -10 -21 -22 -26 -15 -6 -22 -16 -23 -36 0 -37
-32 -58 -49 -32 -6 10 -19 28 -29 40 -9 11 -15 28 -12 37 3 9 -3 25 -15 35
-12 11 -20 31 -20 52 0 28 3 33 24 33 14 0 28 5 31 10 10 16 33 11 56 -12z
m5927 -28 c1 -14 -2 -31 -7 -39 -13 -20 -60 17 -61 47 0 20 4 23 33 20 26 -2
32 -8 35 -28z m-2222 5 c6 -14 8 -13 20 2 12 16 13 15 14 -14 0 -23 -4 -31
-13 -27 -8 3 -20 -2 -27 -11 -15 -18 -61 -20 -77 -4 -9 9 -8 19 3 40 11 22 22
29 45 29 17 0 32 -6 35 -15z m-4114 -50 c11 -20 28 -35 37 -34 30 3 42 -1 36
-12 -4 -5 -14 -9 -22 -7 -9 2 -33 -14 -53 -34 -45 -46 -85 -50 -127 -14 l-28
24 16 44 c17 46 46 68 92 68 21 0 33 -8 49 -35z m5633 -6 c0 -17 -6 -24 -20
-24 -23 0 -33 34 -13 46 20 13 33 5 33 -22z m193 -38 c-5 -24 -33 -19 -36 6
-3 17 1 20 18 16 12 -3 20 -12 18 -22z m-234 0 c3 -4 -7 -18 -23 -30 -18 -14
-32 -36 -35 -56 -6 -30 -12 -35 -44 -42 -49 -9 -64 -6 -84 20 -26 32 -22 49
20 80 31 24 43 28 79 23 23 -3 45 -1 48 4 8 12 32 13 39 1z m-1099 -23 c20 -9
26 -18 22 -35 -3 -15 1 -23 9 -23 8 0 14 -5 14 -11 0 -6 -7 -9 -15 -5 -8 3
-31 -3 -50 -14 -46 -26 -74 -25 -84 2 -6 17 -1 29 28 60 40 43 40 43 76 26z
m-1184 -39 c20 -14 52 -16 204 -12 99 2 184 8 189 13 14 14 73 12 114 -2 28
-10 36 -10 39 0 11 32 132 0 134 -36 0 -9 2 -25 4 -35 5 -28 -70 -97 -106 -97
-15 0 -30 4 -33 9 -4 5 -23 5 -47 0 -32 -7 -54 -6 -90 6 -39 13 -56 14 -83 5
-39 -12 -51 -33 -31 -50 15 -13 9 -41 -8 -37 -13 3 -26 -41 -20 -69 4 -18 -1
-22 -39 -27 -45 -6 -68 4 -68 32 0 34 -17 45 -69 42 -46 -2 -52 1 -63 24 -17
37 3 75 40 75 15 0 34 -6 41 -12 11 -10 14 -10 18 0 7 18 73 16 73 -3 0 -11
-7 -14 -25 -9 -17 4 -25 2 -25 -6 0 -9 11 -11 38 -6 20 3 46 6 57 6 15 0 12 5
-15 23 -56 37 -99 52 -113 38 -17 -17 -30 -13 -24 9 6 25 -9 36 -28 20 -8 -7
-20 -8 -27 -4 -7 5 -47 7 -88 5 -60 -2 -77 -7 -88 -22 -28 -40 -65 -12 -66 51
-1 30 2 40 14 40 9 0 25 9 37 19 33 31 113 36 154 10z m-4683 -15 c15 -10 44
-15 89 -14 83 1 106 -3 163 -26 49 -20 80 -43 80 -59 0 -17 49 -57 61 -50 5 4
12 0 15 -9 3 -8 12 -12 20 -9 17 6 54 -24 54 -44 0 -7 7 -13 15 -13 8 0 15 -8
15 -18 0 -10 3 -22 7 -26 11 -11 14 -54 4 -60 -5 -3 -14 1 -21 9 -7 8 -21 15
-32 15 -10 0 -17 4 -13 9 6 11 -3 14 -88 32 -32 7 -60 16 -63 21 -3 4 -16 8
-28 8 -27 0 -79 24 -70 32 3 3 -8 9 -23 13 -15 3 -36 14 -46 23 -33 30 -185
44 -237 22 -34 -14 -71 -7 -95 16 -15 15 -14 18 6 37 14 13 18 22 11 25 -7 2
-12 8 -12 14 0 6 7 8 14 5 8 -3 28 0 43 8 15 8 40 18 56 24 15 6 27 15 27 21
0 15 22 12 48 -6z m7132 -13 c0 -6 -4 -12 -10 -16 -5 -3 -7 -12 -4 -20 3 -8
-1 -23 -9 -35 -13 -19 -15 -19 -28 -4 -20 24 -19 42 2 47 10 3 19 12 19 21 0
9 7 16 15 16 8 0 15 -4 15 -9z m-1416 -26 c38 -16 38 -16 40 -85 1 -43 2 -45
36 -50 19 -4 45 -12 57 -18 12 -7 28 -9 36 -6 8 3 18 1 22 -5 9 -15 36 -14 49
3 6 8 24 16 41 18 38 4 56 -29 48 -88 -5 -36 -10 -43 -37 -51 -26 -7 -32 -14
-34 -43 -5 -49 -19 -63 -57 -56 -22 5 -36 2 -45 -9 -18 -22 -22 -20 -74 30
-26 25 -54 45 -62 45 -29 0 -64 33 -74 69 -9 35 -15 40 -86 74 -37 17 -57 60
-52 113 3 35 6 39 33 42 17 1 39 7 50 12 53 23 64 24 109 5z m-229 -55 c9 -15
-3 -30 -20 -24 -23 9 -27 34 -5 34 10 0 22 -4 25 -10z m-2035 -42 c0 -39 1
-40 18 -25 27 24 37 21 19 -6 -13 -21 -13 -25 4 -46 26 -32 15 -40 -16 -11
l-25 23 0 -21 c0 -12 -4 -22 -10 -22 -6 0 -10 32 -10 75 0 43 4 75 10 75 6 0
10 -19 10 -42z m460 33 c0 -5 -9 -11 -20 -14 -23 -6 -27 -27 -5 -27 8 0 15 -4
15 -10 0 -5 -7 -10 -15 -10 -11 0 -15 -11 -15 -40 0 -56 -17 -50 -22 8 -5 56
14 102 42 102 11 0 20 -4 20 -9z m320 -31 l0 -40 43 2 c36 1 38 2 10 5 -46 6
-41 25 5 21 37 -3 37 -3 40 -51 2 -30 8 -50 18 -54 17 -6 17 -16 4 -64 -9 -32
-16 -38 -51 -47 -45 -11 -89 -1 -90 20 0 7 -27 36 -59 63 -33 28 -61 55 -64
61 -2 7 3 27 12 45 14 27 26 36 60 43 23 6 42 16 42 23 0 7 7 13 15 13 11 0
15 -11 15 -40z m404 34 c26 -10 18 -25 -9 -18 -18 5 -25 2 -25 -9 0 -8 6 -18
13 -21 10 -5 10 -7 0 -12 -7 -3 -13 -23 -13 -45 0 -59 -27 -52 -32 9 -8 83 15
116 66 96z m63 -69 c-1 -52 -6 -75 -14 -75 -9 0 -13 22 -13 75 0 59 3 75 15
75 11 0 14 -15 12 -75z m-1547 5 l0 -60 30 0 c17 0 30 -4 30 -10 0 -5 -18 -10
-40 -10 l-40 0 0 70 c0 40 4 70 10 70 6 0 10 -27 10 -60z m400 50 c0 -5 -4
-10 -10 -10 -5 0 -10 5 -10 10 0 6 5 10 10 10 6 0 10 -4 10 -10z m820 -15 c0
-8 7 -15 15 -15 8 0 15 -4 15 -10 0 -5 -7 -10 -15 -10 -9 0 -15 -9 -15 -25 0
-14 7 -28 15 -31 23 -9 18 -26 -7 -22 -19 2 -24 11 -29 48 -6 49 -2 80 12 80
5 0 9 -7 9 -15z m119 -34 c8 -29 18 -41 34 -43 25 -3 36 -50 17 -73 -15 -18
-50 -7 -50 16 0 15 -7 19 -39 19 -31 0 -41 4 -46 20 -8 25 8 47 38 53 18 4 17
5 -5 6 -32 1 -39 21 -8 21 11 0 20 5 20 10 0 6 6 10 13 10 8 0 19 -18 26 -39z
m-1186 -1 c13 -19 13 -19 30 0 23 27 53 25 73 -5 15 -23 15 -27 0 -50 -20 -30
-50 -32 -73 -5 -17 19 -17 19 -30 0 -25 -36 -83 -14 -83 30 0 44 58 66 83 30z
m247 -30 c0 -27 -4 -50 -10 -50 -5 0 -10 23 -10 50 0 28 5 50 10 50 6 0 10
-22 10 -50z m102 37 c11 -17 10 -87 -1 -87 -6 0 -11 17 -13 38 -2 29 -7 37
-23 37 -16 0 -21 -8 -23 -37 -5 -55 -22 -46 -22 10 l0 49 37 1 c20 1 41 -4 45
-11z m118 -45 c0 -32 -5 -63 -12 -70 -15 -15 -64 -16 -73 -2 -4 6 6 10 24 10
16 0 33 5 36 10 4 6 -7 10 -25 10 -24 0 -33 6 -41 26 -15 40 11 74 56 74 l35
0 0 -58z m214 42 c32 -32 11 -84 -34 -84 -29 0 -50 22 -50 54 0 20 28 46 50
46 10 0 26 -7 34 -16z m86 6 c0 -4 -9 -10 -20 -13 -15 -4 -20 -14 -20 -41 0
-20 -4 -36 -10 -36 -5 0 -10 22 -10 48 0 47 1 49 30 50 17 0 30 -3 30 -8z
m580 -2 c0 -7 3 -30 6 -50 5 -31 4 -38 -10 -38 -13 0 -16 10 -16 50 0 28 5 50
10 50 6 0 10 -6 10 -12z m-3594 -77 c-2 -3 10 -6 27 -7 68 -1 107 -23 149 -82
7 -11 37 -31 66 -46 l54 -27 -27 -25 c-30 -28 -59 -25 -87 8 -16 18 -22 19
-65 8 -106 -27 -248 -21 -258 10 -6 20 -44 17 -46 -4 0 -6 -5 0 -10 14 -8 20
-12 22 -19 10 -6 -9 -5 -17 2 -21 11 -7 0 -16 -19 -15 -19 1 -18 7 4 51 11 22
18 52 16 68 -2 15 0 27 4 28 4 0 17 3 28 5 11 3 35 5 54 5 18 0 43 5 55 11 11
7 24 11 29 10 4 -1 7 2 7 7 0 5 9 7 20 4 11 -3 18 -8 16 -12z m3979 10 c3 -5
1 -13 -5 -16 -15 -9 -43 3 -35 15 8 13 32 13 40 1z m65 -20 c7 -14 7 -22 -1
-27 -12 -7 -31 15 -23 27 2 4 -2 10 -8 12 -8 3 -6 6 4 6 10 1 22 -8 28 -18z
m103 13 c3 -3 1 -17 -4 -31 -8 -21 -7 -24 6 -19 13 5 15 1 10 -17 -10 -32 -36
-56 -64 -59 -21 -3 -26 2 -32 30 -9 42 9 84 34 76 10 -3 19 1 23 10 6 17 16
20 27 10z m-4433 -49 c0 -37 -32 -95 -55 -100 -11 -3 -29 -3 -40 -1 -11 3 -26
5 -33 5 -21 2 -6 46 29 82 42 44 99 52 99 14z m-157 -39 c4 -10 0 -14 -14 -13
-22 1 -25 13 -6 20 6 3 13 6 13 6 1 1 4 -5 7 -13z m1563 -37 c18 -5 39 -21 48
-34 15 -23 15 -26 0 -24 -3 0 -13 -8 -22 -18 -20 -22 -61 -41 -123 -57 -39
-10 -57 -9 -120 7 -41 10 -82 19 -91 19 -15 -1 -14 3 4 34 26 44 74 84 96 79
10 -1 43 -6 73 -10 48 -6 57 -4 63 10 4 12 12 15 24 10 9 -4 31 -11 48 -16z
m331 -55 c21 -14 48 -38 61 -55 18 -22 27 -27 40 -20 10 5 36 6 62 1 25 -5 61
-9 81 -10 32 0 37 -4 57 -45 13 -27 29 -45 39 -45 9 0 13 -3 10 -7 -15 -14 18
-33 57 -33 31 0 56 -9 96 -35 30 -19 60 -35 68 -35 18 0 101 -91 102 -112 0
-19 -47 -78 -63 -78 -6 0 -18 -7 -27 -15 -17 -16 -50 -11 -50 7 0 5 -4 6 -10
3 -5 -3 -10 -2 -10 2 0 5 -10 19 -23 33 -12 14 -28 38 -35 53 -6 15 -17 25
-22 22 -6 -3 -10 -2 -10 4 0 13 -75 52 -84 44 -3 -3 -9 8 -12 26 -4 18 -13 35
-20 38 -8 3 -14 12 -14 20 0 8 -14 20 -30 26 -28 11 -47 39 -42 62 1 6 -3 3
-10 -5 -14 -16 -52 -24 -42 -9 6 11 1 11 -20 3 -9 -3 -13 -11 -9 -18 4 -7 2
-7 -7 1 -8 8 -19 9 -30 3 -9 -5 -30 -8 -46 -8 -16 1 -38 -2 -49 -6 -11 -3 -35
-2 -53 3 -17 5 -34 6 -37 1 -8 -14 -33 -5 -60 20 -15 14 -32 25 -38 26 -7 0
-19 2 -27 2 -9 1 -23 15 -33 31 -13 22 -14 31 -4 43 23 27 63 46 89 41 14 -3
29 0 32 6 4 6 15 11 26 11 10 0 20 7 24 15 8 22 30 19 73 -11z m-903 -18 c9
-13 7 -20 -8 -31 -10 -8 -23 -12 -28 -9 -5 3 -12 -3 -14 -13 -4 -15 -12 -19
-31 -15 -13 2 -27 10 -29 17 -5 13 -61 8 -70 -6 -11 -18 -24 -8 -24 19 0 24 4
27 31 26 17 0 34 -5 37 -10 6 -8 15 -11 40 -15 19 -3 32 2 32 13 0 16 32 49
44 45 5 -2 14 -11 20 -21z m4546 3 c0 -19 -34 -69 -46 -69 -7 0 -20 -3 -30 -7
-15 -5 -16 -2 -10 28 3 19 14 40 23 47 21 15 63 16 63 1z m-3275 -119 c3 -5
-1 -10 -9 -10 -8 0 -18 5 -21 10 -3 6 1 10 9 10 8 0 18 -4 21 -10z m870 -44
c11 -8 18 -26 18 -46 0 -38 -23 -60 -65 -60 -28 0 -28 1 -28 60 0 59 0 60 28
60 16 0 37 -6 47 -14z m435 4 c0 -5 -4 -10 -10 -10 -5 0 -10 5 -10 10 0 6 5
10 10 10 6 0 10 -4 10 -10z m-380 -52 l13 -33 10 33 c5 17 13 32 18 32 4 0 -2
-27 -14 -60 -21 -56 -41 -84 -30 -40 3 11 -2 38 -11 60 -9 22 -12 40 -7 40 5
0 15 -15 21 -32z m124 16 c10 -25 7 -74 -4 -74 -5 0 -10 18 -10 40 0 29 -4 40
-15 40 -11 0 -15 -11 -15 -40 0 -22 -4 -40 -10 -40 -5 0 -10 20 -10 45 0 43 1
45 29 45 17 0 31 -6 35 -16z m84 -32 c3 -42 2 -43 -25 -40 -40 4 -45 44 -8 54
28 7 24 18 -10 27 -12 3 -8 5 10 4 28 -2 30 -5 33 -45z m134 34 c11 -17 10
-76 -2 -76 -5 0 -10 18 -10 40 0 29 -4 40 -15 40 -11 0 -15 -11 -15 -40 0 -22
-4 -40 -10 -40 -5 0 -10 18 -10 40 0 29 -4 40 -15 40 -11 0 -15 -11 -15 -40 0
-22 -4 -40 -10 -40 -5 0 -10 20 -10 45 l0 45 53 -1 c28 -1 55 -7 59 -13z m38
-31 c0 -25 -4 -45 -10 -45 -5 0 -10 20 -10 45 0 25 5 45 10 45 6 0 10 -20 10
-45z m80 36 c0 -5 -8 -7 -19 -4 -21 5 -35 -20 -26 -47 4 -12 17 -17 50 -18 50
0 56 8 23 30 -14 9 -19 20 -15 31 7 17 47 24 47 8 0 -5 -9 -7 -20 -4 -12 3
-20 0 -20 -7 0 -6 9 -14 21 -17 14 -4 19 -12 17 -27 -2 -17 -11 -21 -48 -23
-24 -1 -50 3 -57 9 -16 13 -17 50 -1 66 14 14 48 16 48 3z m-3615 -651 l0 -75
-700 0 -700 0 -3 64 c-2 35 -1 70 2 78 5 11 122 13 703 11 l698 -3 0 -75z"/>
<path d="M8755 5006 c-45 -17 -79 -54 -97 -106 -15 -40 -19 -718 -5 -782 9
-44 47 -92 90 -114 39 -21 135 -21 175 0 16 8 40 28 51 42 42 54 46 91 46 469
0 356 0 360 -23 407 -14 28 -38 56 -58 68 -44 28 -127 35 -179 16z"/>
<path d="M7100 4725 l0 -165 29 0 c17 0 42 10 57 23 25 22 28 32 32 108 5 108
-9 164 -48 184 -16 8 -38 15 -50 15 -19 0 -20 -5 -20 -165z"/>
<path d="M6117 3735 c-3 -11 -9 -37 -13 -57 -6 -36 -5 -38 20 -38 30 0 30 -1
12 65 -9 38 -14 45 -19 30z"/>
<path d="M6776 3723 c-3 -21 -9 -48 -12 -60 -6 -20 -3 -23 24 -23 l30 0 -15
58 c-8 31 -16 58 -18 60 -1 1 -5 -14 -9 -35z"/>
<path d="M7060 3735 c0 -54 1 -55 28 -55 36 0 52 17 52 55 0 38 -16 55 -52 55
-27 0 -28 -1 -28 -55z"/>
<path d="M7476 3713 c-4 -21 -9 -46 -12 -55 -4 -14 1 -18 24 -18 l29 0 -11 49
c-14 64 -22 70 -30 24z"/>
<path d="M7791 3776 c-8 -9 -11 -48 -9 -112 l3 -99 30 0 30 0 3 99 c3 98 -5
126 -33 126 -7 0 -18 -6 -24 -14z"/>
<path d="M8120 3735 c0 -54 1 -55 28 -55 36 0 52 17 52 55 0 38 -16 55 -52 55
-27 0 -28 -1 -28 -55z"/>
<path d="M8250 3735 c0 -54 1 -55 28 -55 36 0 52 17 52 55 0 38 -16 55 -52 55
-27 0 -28 -1 -28 -55z"/>
<path d="M8401 3776 c-8 -9 -11 -48 -9 -112 3 -95 4 -99 26 -102 42 -6 52 13
52 105 0 46 -5 93 -10 104 -12 22 -43 25 -59 5z"/>
<path d="M8650 3735 l0 -55 34 0 c36 0 46 12 46 59 0 35 -17 51 -52 51 -27 0
-28 -1 -28 -55z"/>
<path d="M8822 3711 c-16 -70 -16 -71 13 -71 28 0 29 6 12 74 l-13 49 -12 -52z"/>
<path d="M4385 2630 c-3 -5 -1 -10 4 -10 6 0 11 5 11 10 0 6 -2 10 -4 10 -3 0
-8 -4 -11 -10z"/>
<path d="M5018 2623 c7 -3 16 -2 19 1 4 3 -2 6 -13 5 -11 0 -14 -3 -6 -6z"/>
<path d="M5061 2623 c1 -5 0 -10 -1 -13 -7 -19 -7 -40 1 -40 5 0 9 9 9 20 0
14 7 20 23 21 21 0 21 1 2 9 -26 11 -35 12 -34 3z"/>
<path d="M5010 2600 c0 -5 5 -10 10 -10 6 0 10 5 10 10 0 6 -4 10 -10 10 -5 0
-10 -4 -10 -10z"/>
<path d="M3715 2656 c-34 -35 -65 -85 -65 -104 0 -3 14 14 32 39 17 24 43 56
57 71 40 45 20 39 -24 -6z"/>
<path d="M3491 3164 c0 -11 3 -14 6 -6 3 7 2 16 -1 19 -3 4 -6 -2 -5 -13z"/>
<path d="M3470 3070 c0 -5 5 -10 11 -10 5 0 7 5 4 10 -3 6 -8 10 -11 10 -2 0
-4 -4 -4 -10z"/>
<path d="M1567 2553 c-7 -12 11 -53 23 -53 11 0 12 6 4 38 -6 22 -19 29 -27
15z"/>
<path d="M8743 1804 c-7 -19 2 -28 22 -21 19 8 19 23 0 31 -9 3 -18 -1 -22
-10z"/>
<path d="M8270 1770 c0 -18 58 -72 73 -68 6 3 13 16 15 30 3 21 -2 26 -25 31
-15 3 -36 9 -45 12 -11 4 -18 2 -18 -5z"/>
<path d="M5525 1200 c-3 -5 3 -10 15 -10 12 0 18 5 15 10 -3 6 -10 10 -15 10
-5 0 -12 -4 -15 -10z"/>
<path d="M5555 1169 c-22 -3 -35 -7 -30 -9 12 -3 105 -6 105 -3 0 11 -43 18
-75 12z"/>
<path d="M6487 1236 c-6 -15 1 -26 15 -26 11 0 10 27 -1 34 -5 3 -11 0 -14 -8z"/>
<path d="M4036 1195 c-8 -22 4 -45 24 -45 10 0 20 7 24 15 8 22 -4 45 -24 45
-10 0 -20 -7 -24 -15z"/>
<path d="M4136 1195 c-8 -22 4 -45 24 -45 20 0 32 23 24 45 -4 8 -14 15 -24
15 -10 0 -20 -7 -24 -15z"/>
<path d="M4494 1195 c-9 -23 4 -47 23 -43 11 2 19 14 21 31 3 22 -1 27 -18 27
-11 0 -23 -7 -26 -15z"/>
<path d="M4716 1195 c-8 -22 4 -45 24 -45 20 0 32 23 24 45 -4 8 -14 15 -24
15 -10 0 -20 -7 -24 -15z"/>
<path d="M4480 740 c0 -41 3 -50 18 -50 25 0 42 20 42 50 0 30 -17 50 -42 50
-15 0 -18 -9 -18 -50z"/>
<path d="M4754 719 c-8 -14 11 -33 25 -25 16 10 13 36 -3 36 -8 0 -18 -5 -22
-11z"/>
</g>
</svg>
