<?xml version="1.0" standalone="no"?>
<!DOCTYPE svg PUBLIC "-//W3C//DTD SVG 20010904//EN"
 "http://www.w3.org/TR/2001/REC-SVG-20010904/DTD/svg10.dtd">
<svg version="1.0" xmlns="http://www.w3.org/2000/svg"
 width="1920.000000pt" height="1920.000000pt" viewBox="0 0 1920.000000 1920.000000"
 preserveAspectRatio="xMidYMid meet">

<g transform="translate(0.000000,1920.000000) scale(0.100000,-0.100000)"
fill="#000000" stroke="none">
<path d="M6175 14524 c-138 -17 -204 -29 -290 -51 -458 -118 -844 -409 -1091
-819 -111 -184 -184 -385 -227 -619 l-22 -120 0 -3315 0 -3315 22 -120 c43
-234 116 -435 227 -619 280 -466 741 -776 1276 -858 125 -19 6935 -19 7060 0
534 82 997 393 1276 858 107 179 181 377 227 609 l21 110 4 3240 c2 2300 0
3278 -8 3370 -13 160 -41 299 -85 431 -188 566 -650 1003 -1225 1160 -226 62
75 58 -3695 59 -1892 1 -3453 1 -3470 -1z m2447 -2533 c751 -117 1212 -513
1348 -1159 27 -128 37 -369 21 -525 -38 -363 -164 -635 -405 -872 -247 -244
-558 -379 -1026 -446 -53 -8 -224 -13 -455 -14 l-370 -2 -3 -688 c-2 -623 -4
-690 -19 -707 -15 -17 -43 -18 -439 -18 -371 0 -424 2 -438 16 -14 14 -16 227
-16 2202 0 1286 4 2193 9 2201 13 20 748 40 1276 36 329 -2 398 -6 517 -24z
m3399 -1026 c236 -10 465 -51 621 -111 55 -21 68 -30 77 -56 12 -33 16 -723 5
-752 -13 -33 -65 -29 -154 13 -186 87 -429 143 -700 163 -145 10 -177 9 -265
-6 -182 -31 -253 -85 -263 -200 -7 -88 48 -166 168 -235 83 -49 287 -140 415
-187 125 -45 349 -152 478 -228 252 -149 390 -313 464 -553 25 -82 27 -101 27
-268 0 -200 -13 -265 -77 -414 -153 -355 -524 -585 -1029 -640 -124 -14 -455
-14 -589 -1 -292 29 -643 123 -715 191 l-24 22 0 399 c0 346 2 399 15 404 8 4
70 -21 138 -54 282 -139 595 -213 907 -214 177 0 275 16 360 60 106 54 144
168 87 264 -51 88 -163 154 -467 273 -405 159 -652 306 -797 472 -119 137
-185 268 -218 432 -23 110 -16 332 13 437 26 94 79 215 127 289 59 92 227 252
321 307 209 123 415 181 699 197 72 4 159 6 195 5 36 -2 117 -6 181 -9z"/>
<path d="M7865 11190 l-130 -5 0 -710 0 -710 245 -3 c276 -3 380 6 550 49 266
68 448 212 516 409 68 196 57 417 -31 595 -87 176 -230 282 -460 340 -169 43
-321 51 -690 35z"/>
</g>
</svg>
