<svg id="svg" version="1.1" xmlns="http://www.w3.org/2000/svg" xmlns:xlink="http://www.w3.org/1999/xlink" width="400" height="400" viewBox="0, 0, 400,400"><g id="svgg"><path id="path0" d="M89.772 77.100 C 89.919 79.025,90.208 81.950,90.414 83.600 C 90.620 85.250,91.063 90.020,91.397 94.200 C 91.966 101.303,92.977 112.018,93.444 115.900 L 93.649 117.600 177.825 117.600 L 262.000 117.600 261.995 118.900 C 261.989 120.488,260.897 133.656,260.610 135.600 C 260.497 136.370,260.135 140.420,259.807 144.600 C 259.165 152.786,258.499 159.814,258.169 161.900 L 257.964 163.200 177.730 163.200 L 97.497 163.200 97.765 166.900 C 97.912 168.935,98.203 171.950,98.410 173.600 C 98.618 175.250,99.164 181.100,99.624 186.600 C 100.084 192.100,100.672 198.850,100.932 201.600 L 101.404 206.600 177.583 206.701 C 219.482 206.757,253.887 206.937,254.039 207.101 C 254.192 207.265,253.983 211.180,253.577 215.800 C 253.170 220.420,252.381 229.420,251.824 235.800 C 251.267 242.180,250.713 248.120,250.593 249.000 C 250.473 249.880,250.129 253.633,249.828 257.339 C 249.189 265.227,249.676 264.465,244.400 265.833 C 239.252 267.168,236.551 267.892,229.600 269.798 C 226.630 270.612,223.300 271.509,222.200 271.792 C 221.100 272.074,217.770 272.970,214.800 273.783 C 198.128 278.346,200.590 278.062,193.656 276.220 C 190.435 275.364,185.910 274.153,183.600 273.528 C 181.290 272.903,178.140 272.053,176.600 271.637 C 175.060 271.222,170.020 269.853,165.400 268.594 C 160.780 267.336,155.703 265.983,154.117 265.588 C 150.322 264.641,150.505 264.843,150.208 261.297 C 150.065 259.594,149.783 256.850,149.580 255.200 C 149.378 253.550,148.851 247.689,148.411 242.175 C 147.970 236.661,147.495 231.576,147.355 230.875 L 147.100 229.600 125.295 229.600 L 103.491 229.600 103.770 233.900 C 103.924 236.265,104.209 239.370,104.405 240.800 C 104.601 242.230,105.042 247.090,105.385 251.600 C 105.728 256.110,106.184 261.240,106.398 263.000 C 106.611 264.760,107.059 269.710,107.393 274.000 C 107.917 280.732,108.273 284.598,109.447 296.300 C 109.635 298.179,109.770 298.424,110.729 298.633 C 111.318 298.761,112.340 299.048,113.000 299.270 C 113.660 299.492,115.820 300.114,117.800 300.653 C 125.693 302.801,129.409 303.828,139.200 306.569 C 141.290 307.154,144.577 308.066,146.505 308.597 C 148.432 309.127,151.582 309.999,153.505 310.534 C 155.427 311.069,158.710 311.973,160.800 312.543 C 162.890 313.113,166.220 314.038,168.200 314.600 C 170.180 315.161,173.420 316.061,175.400 316.600 C 178.873 317.544,182.158 318.461,189.800 320.616 C 191.780 321.174,194.941 322.007,196.825 322.466 L 200.250 323.301 207.225 321.427 C 211.061 320.396,215.010 319.306,216.000 319.005 C 216.990 318.704,220.230 317.802,223.200 317.000 C 226.170 316.198,229.410 315.299,230.400 315.003 C 231.390 314.707,234.000 313.981,236.200 313.390 C 238.400 312.799,241.730 311.891,243.600 311.372 C 245.470 310.852,248.710 309.960,250.800 309.389 C 252.890 308.818,256.130 307.918,258.000 307.389 C 259.870 306.860,263.065 305.971,265.100 305.413 C 267.135 304.856,270.375 303.960,272.300 303.423 C 274.225 302.886,277.870 301.877,280.400 301.182 C 282.930 300.486,286.191 299.565,287.647 299.136 L 290.294 298.354 290.563 294.477 C 290.712 292.345,291.000 289.160,291.205 287.400 C 291.410 285.640,291.945 279.700,292.396 274.200 C 292.846 268.700,293.302 263.660,293.409 263.000 C 293.516 262.340,293.873 258.380,294.202 254.200 C 294.531 250.020,295.073 243.810,295.407 240.400 C 295.740 236.990,296.281 231.050,296.609 227.200 C 298.241 208.021,299.200 197.266,299.391 196.000 C 299.507 195.230,299.872 191.090,300.202 186.800 C 300.531 182.510,300.984 177.380,301.209 175.400 C 301.433 173.420,301.971 167.660,302.405 162.600 C 302.838 157.540,303.652 148.270,304.212 142.000 C 306.390 117.640,307.186 108.658,307.968 99.600 C 308.765 90.358,309.843 78.642,310.202 75.300 L 310.385 73.600 199.945 73.600 L 89.505 73.600 89.772 77.100 " stroke="none" fill="#f4f4f4" fill-rule="evenodd"></path><path id="path1" d="M23.394 2.900 C 23.552 4.495,23.687 6.651,23.694 7.691 C 23.701 8.730,23.839 9.500,24.000 9.400 C 24.161 9.301,24.422 11.510,24.580 14.310 C 24.738 17.109,24.929 19.940,25.003 20.600 C 25.303 23.253,25.718 29.084,25.700 30.400 C 25.690 31.170,25.820 31.980,25.989 32.200 C 26.159 32.420,26.419 34.580,26.567 37.000 C 26.715 39.420,26.910 42.120,27.000 43.000 C 27.386 46.780,27.742 51.890,27.695 52.990 C 27.667 53.644,27.789 54.274,27.966 54.390 C 28.143 54.505,28.409 56.670,28.558 59.200 C 28.707 61.730,29.020 65.870,29.254 68.400 C 29.488 70.930,29.704 73.855,29.733 74.900 C 29.762 75.945,29.888 76.800,30.014 76.800 C 30.139 76.800,30.465 80.175,30.738 84.300 C 31.011 88.425,31.309 92.340,31.400 93.000 C 31.491 93.660,31.595 95.100,31.630 96.200 C 31.665 97.300,31.829 98.380,31.995 98.600 C 32.161 98.820,32.422 101.250,32.576 104.000 C 32.856 109.029,32.923 109.930,33.450 115.800 C 33.607 117.560,33.693 119.326,33.639 119.724 C 33.585 120.122,33.714 120.662,33.924 120.924 C 34.135 121.186,34.431 123.740,34.583 126.600 C 34.734 129.460,34.923 132.250,35.001 132.800 C 35.080 133.350,35.259 135.690,35.399 138.000 C 35.733 143.519,35.759 143.766,36.038 144.000 C 36.168 144.110,36.580 148.808,36.953 154.440 C 37.326 160.072,37.787 165.292,37.977 166.040 C 38.294 167.291,38.802 173.336,39.435 183.400 C 39.732 188.129,39.734 188.143,40.034 188.400 C 40.213 188.553,41.712 208.617,41.730 211.100 C 41.732 211.375,41.850 211.600,41.992 211.600 C 42.135 211.600,42.485 215.065,42.772 219.300 C 43.058 223.535,43.362 227.360,43.446 227.800 C 43.531 228.240,43.622 229.590,43.647 230.800 C 43.673 232.010,43.830 233.180,43.995 233.400 C 44.160 233.620,44.415 235.780,44.560 238.200 C 44.705 240.620,45.019 244.760,45.258 247.400 C 45.497 250.040,45.701 253.145,45.713 254.300 C 45.724 255.455,45.855 256.400,46.004 256.400 C 46.152 256.400,46.499 259.852,46.773 264.071 C 47.048 268.290,47.350 272.115,47.443 272.571 C 47.537 273.027,47.640 274.607,47.673 276.083 C 47.706 277.558,47.883 278.672,48.066 278.559 C 48.250 278.446,48.414 279.578,48.431 281.076 C 48.447 282.574,48.512 284.070,48.575 284.400 C 48.637 284.730,48.814 286.890,48.966 289.200 C 49.119 291.510,49.313 293.940,49.398 294.600 C 49.482 295.260,49.585 297.015,49.626 298.500 C 49.667 299.985,49.835 301.200,49.999 301.200 C 50.163 301.200,50.420 303.405,50.571 306.100 C 50.722 308.795,51.038 313.070,51.273 315.600 C 51.509 318.130,51.698 320.965,51.693 321.900 C 51.689 322.835,51.820 323.600,51.986 323.600 C 52.151 323.600,52.406 325.625,52.553 328.100 C 52.920 334.288,53.173 337.743,53.486 340.800 C 53.632 342.230,53.779 343.940,53.813 344.600 C 53.847 345.260,53.978 346.070,54.106 346.400 C 54.234 346.730,54.447 348.800,54.581 351.000 C 54.715 353.200,54.931 356.274,55.061 357.830 L 55.298 360.660 58.256 361.157 C 59.882 361.431,61.110 361.822,60.983 362.027 C 60.856 362.232,61.078 362.398,61.476 362.395 C 62.585 362.387,68.173 363.728,68.409 364.059 C 68.523 364.220,69.140 364.446,69.780 364.562 C 73.458 365.229,75.200 365.699,75.200 366.024 C 75.200 366.226,75.605 366.382,76.100 366.371 C 76.595 366.360,77.984 366.632,79.187 366.975 C 80.390 367.319,81.706 367.600,82.111 367.600 C 82.516 367.600,82.751 367.756,82.633 367.946 C 82.515 368.137,83.450 368.486,84.710 368.722 C 87.470 369.239,89.225 369.611,89.904 369.821 C 90.182 369.908,90.521 369.968,90.659 369.955 C 90.798 369.942,91.021 370.092,91.155 370.288 C 91.290 370.484,92.569 370.857,93.998 371.116 C 95.427 371.376,96.657 371.771,96.731 371.994 C 96.806 372.217,97.167 372.398,97.533 372.395 C 98.598 372.387,104.179 373.738,104.409 374.059 C 104.523 374.220,105.063 374.434,105.609 374.535 C 109.313 375.222,111.531 375.787,111.395 376.009 C 111.307 376.151,111.452 376.270,111.718 376.274 C 112.636 376.289,118.201 377.740,118.400 378.016 C 118.510 378.169,119.680 378.500,121.000 378.751 C 122.320 379.002,123.925 379.311,124.567 379.438 C 125.209 379.565,126.109 379.906,126.567 380.196 C 127.025 380.485,128.706 380.936,130.301 381.197 C 131.897 381.459,133.098 381.841,132.971 382.046 C 132.844 382.252,132.889 382.373,133.070 382.316 C 133.518 382.175,140.149 383.693,140.400 383.993 C 140.644 384.286,146.324 385.612,147.300 385.605 C 147.685 385.602,148.000 385.747,148.000 385.927 C 148.000 386.107,149.395 386.581,151.100 386.980 C 152.805 387.380,154.290 387.832,154.400 387.986 C 154.580 388.238,157.379 388.906,160.600 389.466 C 161.260 389.581,161.980 389.819,162.200 389.994 C 162.420 390.169,163.995 390.621,165.700 390.997 C 167.405 391.373,168.800 391.842,168.800 392.040 C 168.800 392.238,168.935 392.360,169.100 392.312 C 169.673 392.143,176.400 393.782,176.400 394.090 C 176.400 394.261,176.838 394.400,177.374 394.400 C 177.910 394.400,178.819 394.579,179.395 394.798 C 179.970 395.017,181.012 395.296,181.710 395.419 C 182.408 395.542,183.074 395.775,183.190 395.935 C 183.305 396.096,183.760 396.219,184.200 396.207 C 184.640 396.196,185.194 396.322,185.431 396.486 C 185.669 396.650,186.209 396.849,186.631 396.928 C 189.662 397.496,190.652 397.745,191.016 398.032 C 191.245 398.212,192.325 398.563,193.416 398.813 C 194.507 399.062,195.760 399.356,196.200 399.466 C 198.666 400.081,200.858 400.019,204.132 399.240 C 206.074 398.778,208.009 398.400,208.432 398.400 C 208.854 398.400,209.200 398.245,209.200 398.055 C 209.200 397.865,210.775 397.397,212.700 397.015 C 214.625 396.633,216.294 396.169,216.409 395.985 C 216.523 395.800,217.063 395.559,217.609 395.450 C 222.179 394.534,223.427 394.228,223.600 393.978 C 223.710 393.819,225.330 393.379,227.200 393.000 C 229.070 392.621,230.690 392.167,230.801 391.992 C 230.911 391.817,232.437 391.377,234.191 391.015 C 235.945 390.652,237.475 390.216,237.590 390.045 C 237.706 389.873,239.456 389.401,241.479 388.995 C 243.503 388.588,245.079 388.128,244.983 387.972 C 244.886 387.816,245.480 387.560,246.304 387.403 C 248.297 387.024,249.670 386.752,250.400 386.593 C 250.730 386.520,251.326 386.447,251.724 386.431 C 252.122 386.414,252.358 386.256,252.249 386.079 C 252.082 385.809,257.560 384.382,259.100 384.295 C 259.375 384.279,259.600 384.141,259.600 383.988 C 259.600 383.835,261.175 383.397,263.100 383.015 C 265.025 382.633,266.703 382.154,266.829 381.952 C 266.955 381.749,268.575 381.298,270.429 380.951 C 272.283 380.603,273.987 380.166,274.216 379.980 C 274.445 379.793,275.525 379.437,276.616 379.187 C 277.707 378.938,278.960 378.644,279.400 378.535 C 279.840 378.425,280.425 378.320,280.700 378.301 C 280.975 378.282,281.200 378.154,281.200 378.016 C 281.200 377.824,285.283 376.718,286.400 376.607 C 286.510 376.597,286.825 376.445,287.100 376.270 C 287.375 376.096,287.808 376.081,288.062 376.238 C 288.333 376.406,288.416 376.349,288.261 376.099 C 288.096 375.832,288.776 375.572,290.100 375.395 C 291.255 375.241,293.010 374.797,294.000 374.408 C 296.004 373.620,301.012 372.350,302.109 372.351 C 302.498 372.351,302.728 372.207,302.618 372.029 C 302.509 371.852,303.540 371.504,304.910 371.255 C 307.886 370.714,308.051 370.670,308.727 370.249 C 309.016 370.068,309.360 370.026,309.490 370.156 C 309.620 370.287,309.923 370.234,310.163 370.040 C 310.685 369.618,315.340 368.400,316.432 368.400 C 316.855 368.400,317.200 368.261,317.200 368.091 C 317.200 367.797,319.623 367.153,322.900 366.575 C 323.725 366.430,324.400 366.151,324.400 365.955 C 324.400 365.760,324.721 365.600,325.113 365.600 C 325.898 365.600,329.760 364.585,331.600 363.896 C 332.255 363.651,335.613 362.835,337.188 362.538 C 337.731 362.436,338.361 362.210,338.588 362.036 C 338.814 361.862,340.101 361.493,341.446 361.217 C 345.076 360.470,344.785 361.278,345.447 350.100 C 345.594 347.625,345.849 345.600,346.014 345.600 C 346.180 345.600,346.311 344.835,346.307 343.900 C 346.302 342.965,346.495 340.130,346.735 337.600 C 346.975 335.070,347.294 330.710,347.443 327.912 C 347.593 325.114,347.850 322.908,348.015 323.009 C 348.180 323.111,348.311 322.431,348.307 321.497 C 348.302 320.564,348.491 317.730,348.727 315.200 C 348.962 312.670,349.278 308.395,349.429 305.700 C 349.580 303.005,349.847 300.800,350.024 300.800 C 350.200 300.800,350.331 300.125,350.314 299.300 C 350.296 298.475,350.488 295.370,350.739 292.400 C 350.991 289.430,351.313 285.110,351.456 282.800 C 351.599 280.490,351.851 278.510,352.015 278.400 C 352.179 278.290,352.310 277.570,352.306 276.800 C 352.299 275.541,352.531 272.308,352.993 267.200 C 353.083 266.210,353.279 263.420,353.429 261.000 C 353.579 258.580,353.836 256.420,354.000 256.200 C 354.163 255.980,354.304 255.080,354.312 254.200 C 354.320 253.320,354.424 251.610,354.543 250.400 C 354.662 249.190,354.884 246.220,355.036 243.800 C 355.187 241.380,355.362 239.130,355.425 238.800 C 355.488 238.470,355.553 237.064,355.569 235.676 C 355.586 234.288,355.747 233.244,355.926 233.355 C 356.106 233.466,356.233 232.801,356.208 231.878 C 356.184 230.955,356.289 229.570,356.441 228.800 C 356.594 228.030,356.826 225.600,356.956 223.400 C 357.521 213.869,357.734 211.388,358.002 211.200 C 358.159 211.090,358.404 208.840,358.546 206.200 C 358.785 201.766,359.044 198.315,359.401 194.800 C 359.479 194.030,359.556 192.264,359.571 190.876 C 359.587 189.488,359.746 188.443,359.925 188.554 C 360.104 188.664,360.258 188.000,360.267 187.077 C 360.276 186.155,360.394 184.410,360.528 183.200 C 360.828 180.507,361.106 176.820,361.456 170.900 C 361.602 168.425,361.853 166.400,362.013 166.400 C 362.173 166.400,362.295 165.635,362.284 164.700 C 362.272 163.765,362.378 162.010,362.518 160.800 C 362.776 158.572,362.942 156.386,363.434 148.800 C 363.583 146.490,363.839 144.420,364.002 144.200 C 364.164 143.980,364.297 143.080,364.297 142.200 C 364.296 141.320,364.407 139.430,364.543 138.000 C 364.949 133.726,365.134 131.255,365.430 126.111 C 365.585 123.422,365.843 121.303,366.003 121.402 C 366.163 121.500,366.297 120.730,366.302 119.691 C 366.307 118.651,366.431 116.540,366.577 115.000 C 366.723 113.460,366.910 111.480,366.993 110.600 C 367.076 109.720,367.270 106.709,367.425 103.910 C 367.580 101.110,367.839 98.901,368.000 99.000 C 368.161 99.100,368.309 98.330,368.328 97.291 C 368.358 95.634,368.841 89.099,369.386 83.000 C 369.484 81.900,369.572 79.954,369.582 78.676 C 369.592 77.398,369.752 76.447,369.938 76.562 C 370.124 76.677,370.298 75.742,370.325 74.485 C 370.352 73.228,370.456 71.619,370.557 70.909 C 370.657 70.198,370.970 66.193,371.251 62.009 C 371.533 57.824,371.883 54.400,372.028 54.400 C 372.174 54.400,372.294 53.545,372.295 52.500 C 372.297 51.455,372.402 49.610,372.531 48.400 C 372.659 47.190,372.977 43.140,373.237 39.400 C 373.497 35.660,373.910 32.340,374.155 32.023 C 374.511 31.562,374.479 31.518,374.000 31.800 C 373.513 32.087,373.489 32.044,373.871 31.570 C 374.131 31.249,374.350 30.000,374.359 28.793 C 374.367 27.587,374.449 26.240,374.541 25.800 C 374.633 25.360,374.852 22.750,375.029 20.000 C 375.206 17.250,375.384 14.865,375.425 14.700 C 375.466 14.535,375.523 13.219,375.550 11.776 C 375.578 10.333,375.756 9.249,375.947 9.367 C 376.137 9.485,376.299 8.730,376.306 7.691 C 376.313 6.651,376.448 4.495,376.606 2.900 L 376.893 0.000 200.000 0.000 L 23.107 0.000 23.394 2.900 M344.000 30.936 C 344.000 31.670,343.725 35.135,343.390 38.636 C 342.813 44.646,341.774 56.313,339.989 76.800 C 339.558 81.750,339.029 87.510,338.814 89.600 C 338.598 91.690,338.144 96.910,337.805 101.200 C 337.466 105.490,337.107 109.450,337.008 110.000 C 336.908 110.550,336.545 114.510,336.201 118.800 C 335.856 123.090,335.223 130.380,334.793 135.000 C 334.363 139.620,333.467 149.610,332.802 157.200 C 332.137 164.790,331.327 173.790,331.002 177.200 C 330.678 180.610,330.224 185.740,329.996 188.600 C 329.767 191.460,329.320 196.410,329.003 199.600 C 328.686 202.790,328.145 209.000,327.800 213.400 C 327.456 217.800,327.092 221.850,326.992 222.400 C 326.892 222.950,326.446 227.810,326.000 233.200 C 325.554 238.590,325.098 243.720,324.986 244.600 C 324.873 245.480,324.430 250.340,324.000 255.400 C 323.571 260.460,322.675 270.630,322.011 278.000 C 321.346 285.370,320.443 295.630,320.004 300.800 C 319.565 305.970,319.113 310.830,319.001 311.600 C 318.888 312.370,318.439 317.410,318.003 322.800 C 316.935 335.998,316.832 336.755,316.037 337.180 C 315.670 337.377,312.586 338.287,309.185 339.203 C 305.783 340.119,301.830 341.197,300.400 341.598 C 298.970 342.000,293.840 343.419,289.000 344.753 C 284.160 346.086,277.230 348.002,273.600 349.009 C 269.970 350.017,265.470 351.264,263.600 351.782 C 260.304 352.694,250.004 355.558,241.000 358.066 C 238.580 358.740,235.430 359.610,234.000 360.000 C 232.570 360.390,229.330 361.290,226.800 362.000 C 224.270 362.710,221.030 363.610,219.600 364.000 C 218.170 364.390,214.930 365.288,212.400 365.995 C 204.564 368.186,200.757 369.200,200.371 369.200 C 200.147 369.200,200.000 360.234,200.000 346.615 L 200.000 324.031 198.300 323.600 C 197.365 323.364,195.700 322.885,194.600 322.537 C 193.500 322.189,191.340 321.575,189.800 321.171 C 188.260 320.768,185.380 319.985,183.400 319.433 C 181.420 318.881,178.180 317.984,176.200 317.441 C 174.220 316.898,170.890 315.975,168.800 315.390 C 161.883 313.452,158.241 312.440,154.600 311.441 C 152.620 310.898,149.290 309.975,147.200 309.390 C 145.110 308.804,141.870 307.912,140.000 307.407 C 138.130 306.903,134.890 305.999,132.800 305.400 C 130.710 304.801,127.380 303.865,125.400 303.320 C 123.420 302.776,120.270 301.907,118.400 301.390 C 116.530 300.874,113.830 300.143,112.400 299.767 C 108.859 298.835,108.929 298.941,108.624 294.090 C 108.476 291.731,108.105 287.730,107.800 285.200 C 107.496 282.670,106.949 276.551,106.586 271.602 C 106.223 266.653,105.854 262.487,105.765 262.343 C 105.676 262.200,105.238 257.339,104.791 251.541 C 104.344 245.744,103.818 239.920,103.623 238.600 C 103.428 237.280,103.149 234.535,103.004 232.500 L 102.740 228.800 125.162 228.800 L 147.585 228.800 147.770 229.700 C 148.104 231.326,148.779 238.095,149.197 244.000 C 149.607 249.786,150.745 261.866,151.026 263.420 C 151.143 264.062,151.763 264.389,153.887 264.932 C 156.587 265.621,159.638 266.437,168.400 268.816 C 170.930 269.503,174.080 270.321,175.400 270.634 C 176.720 270.947,178.220 271.385,178.732 271.607 C 179.245 271.830,181.135 272.367,182.932 272.800 C 184.730 273.233,187.820 274.029,189.800 274.570 C 198.348 276.904,199.416 277.187,199.700 277.193 C 199.865 277.197,200.000 261.541,200.000 242.402 L 200.000 207.603 150.500 207.502 L 101.000 207.400 100.728 204.800 C 100.578 203.370,100.170 199.500,99.822 196.200 C 99.474 192.900,98.918 186.612,98.587 182.228 C 98.256 177.843,97.819 173.073,97.617 171.628 C 97.415 170.182,97.141 167.606,97.008 165.902 L 96.767 162.803 148.283 162.702 L 199.800 162.600 199.800 140.400 L 199.800 118.200 146.343 118.099 L 92.886 117.997 92.622 113.899 C 92.477 111.644,92.109 107.820,91.804 105.400 C 91.500 102.980,91.052 98.120,90.809 94.600 C 90.567 91.080,90.111 85.950,89.796 83.200 C 89.482 80.450,89.174 77.120,89.112 75.800 L 89.000 73.400 144.500 73.299 L 200.000 73.197 200.000 51.399 L 200.000 29.600 272.000 29.600 L 344.000 29.600 344.000 30.936 " stroke="none" fill="#244ce4" fill-rule="evenodd"></path><path id="path2" d="M200.000 51.399 L 200.000 73.197 255.300 73.299 L 310.600 73.400 310.556 74.600 C 310.465 77.051,308.795 96.313,308.406 99.400 C 308.184 101.160,307.727 106.290,307.390 110.800 C 307.054 115.310,306.603 120.350,306.388 122.000 C 306.173 123.650,305.724 128.690,305.390 133.200 C 305.056 137.710,304.613 142.660,304.406 144.200 C 304.198 145.740,303.745 150.870,303.399 155.600 C 303.052 160.330,302.678 164.665,302.567 165.234 C 302.354 166.327,300.893 182.677,299.603 198.400 C 299.179 203.570,298.648 209.240,298.423 211.000 C 298.198 212.760,297.732 218.070,297.387 222.800 C 297.043 227.530,296.681 231.638,296.582 231.929 C 296.484 232.219,296.041 237.079,295.599 242.729 C 295.157 248.378,294.618 254.350,294.402 256.000 C 294.186 257.650,293.728 262.870,293.385 267.600 C 293.042 272.330,292.681 276.439,292.582 276.731 C 292.483 277.023,292.030 281.973,291.577 287.731 C 290.657 299.401,290.878 298.759,287.481 299.653 C 284.306 300.489,278.006 302.202,273.400 303.482 C 271.420 304.032,268.270 304.903,266.400 305.419 C 263.258 306.284,261.401 306.801,252.000 309.423 C 250.130 309.945,246.980 310.816,245.000 311.359 C 243.020 311.902,239.735 312.808,237.700 313.373 C 235.665 313.938,232.335 314.861,230.300 315.425 C 224.609 317.003,219.735 318.357,216.000 319.400 C 214.130 319.922,210.980 320.798,209.000 321.346 C 207.020 321.894,204.410 322.623,203.200 322.966 C 201.990 323.310,200.550 323.607,200.000 323.627 C 199.450 323.647,199.225 323.754,199.500 323.865 C 199.892 324.023,200.000 328.954,200.000 346.633 C 200.000 360.241,200.147 369.200,200.371 369.200 C 200.757 369.200,204.564 368.186,212.400 365.995 C 214.930 365.288,218.170 364.390,219.600 364.000 C 221.030 363.610,224.270 362.710,226.800 362.000 C 229.330 361.290,232.570 360.390,234.000 360.000 C 235.430 359.610,238.580 358.740,241.000 358.066 C 250.004 355.558,260.304 352.694,263.600 351.782 C 265.470 351.264,269.970 350.017,273.600 349.009 C 277.230 348.002,284.160 346.086,289.000 344.753 C 293.840 343.419,298.970 342.000,300.400 341.598 C 301.830 341.197,305.783 340.119,309.185 339.203 C 312.586 338.287,315.670 337.377,316.037 337.180 C 316.832 336.755,316.935 335.998,318.003 322.800 C 318.439 317.410,318.888 312.370,319.001 311.600 C 319.113 310.830,319.565 305.970,320.004 300.800 C 320.443 295.630,321.346 285.370,322.011 278.000 C 322.675 270.630,323.571 260.460,324.000 255.400 C 324.430 250.340,324.873 245.480,324.986 244.600 C 325.098 243.720,325.554 238.590,326.000 233.200 C 326.446 227.810,326.892 222.950,326.992 222.400 C 327.092 221.850,327.456 217.800,327.800 213.400 C 328.145 209.000,328.686 202.790,329.003 199.600 C 329.320 196.410,329.767 191.460,329.996 188.600 C 330.224 185.740,330.678 180.610,331.002 177.200 C 331.327 173.790,332.137 164.790,332.802 157.200 C 333.467 149.610,334.363 139.620,334.793 135.000 C 335.223 130.380,335.856 123.090,336.201 118.800 C 336.545 114.510,336.908 110.550,337.008 110.000 C 337.107 109.450,337.466 105.490,337.805 101.200 C 338.144 96.910,338.598 91.690,338.814 89.600 C 339.029 87.510,339.558 81.750,339.989 76.800 C 341.774 56.313,342.813 44.646,343.390 38.636 C 343.725 35.135,344.000 31.670,344.000 30.936 L 344.000 29.600 272.000 29.600 L 200.000 29.600 200.000 51.399 M88.950 73.787 C 88.826 74.110,88.817 74.605,88.931 74.887 C 89.044 75.169,89.151 74.996,89.168 74.501 L 89.200 73.603 144.500 73.500 L 199.800 73.397 144.487 73.299 C 96.180 73.212,89.146 73.274,88.950 73.787 M89.309 78.400 C 89.309 79.390,89.387 79.795,89.482 79.300 C 89.578 78.805,89.578 77.995,89.482 77.500 C 89.387 77.005,89.309 77.410,89.309 78.400 M89.701 81.800 C 89.705 82.680,89.787 82.993,89.883 82.495 C 89.979 81.998,89.975 81.278,89.875 80.895 C 89.775 80.513,89.696 80.920,89.701 81.800 M91.230 100.233 C 91.246 101.095,91.413 102.610,91.601 103.600 C 91.858 104.953,91.888 104.606,91.723 102.200 C 91.490 98.822,91.179 97.582,91.230 100.233 M199.800 140.400 L 199.800 162.800 228.900 162.800 L 258.000 162.800 258.000 161.896 C 258.000 160.197,259.203 145.805,259.580 143.000 C 259.787 141.460,260.067 138.580,260.203 136.600 C 260.712 129.167,261.625 119.200,261.851 118.611 C 262.060 118.066,258.705 118.000,230.943 118.000 L 199.800 118.000 199.800 140.400 M96.893 164.000 C 96.893 164.770,96.975 165.085,97.076 164.700 C 97.176 164.315,97.176 163.685,97.076 163.300 C 96.975 162.915,96.893 163.230,96.893 164.000 M97.230 168.233 C 97.246 169.095,97.413 170.610,97.601 171.600 C 97.858 172.953,97.888 172.606,97.723 170.200 C 97.490 166.822,97.179 165.582,97.230 168.233 M99.309 190.800 C 99.309 191.790,99.387 192.195,99.482 191.700 C 99.578 191.205,99.578 190.395,99.482 189.900 C 99.387 189.405,99.309 189.810,99.309 190.800 M99.701 194.200 C 99.705 195.080,99.787 195.393,99.883 194.895 C 99.979 194.398,99.975 193.678,99.875 193.295 C 99.775 192.913,99.696 193.320,99.701 194.200 M101.062 207.300 C 101.164 207.465,123.469 207.600,150.628 207.600 L 200.009 207.600 199.904 242.500 L 199.800 277.400 203.200 276.512 C 205.070 276.023,208.310 275.156,210.400 274.585 C 212.490 274.014,215.730 273.134,217.600 272.630 C 219.470 272.126,223.160 271.130,225.800 270.416 C 228.440 269.703,231.860 268.793,233.400 268.394 C 234.940 267.996,238.270 267.094,240.800 266.389 C 243.330 265.685,246.145 264.924,247.055 264.697 L 248.710 264.286 248.963 261.843 C 249.102 260.499,249.399 257.780,249.623 255.800 C 250.018 252.296,250.813 243.212,252.403 224.000 C 252.831 218.830,253.386 213.100,253.637 211.266 C 253.910 209.263,253.947 207.787,253.728 207.568 C 253.288 207.128,100.790 206.861,101.062 207.300 M148.101 234.600 C 148.105 235.480,148.187 235.793,148.283 235.295 C 148.379 234.798,148.375 234.078,148.275 233.695 C 148.175 233.313,148.096 233.720,148.101 234.600 M103.309 235.600 C 103.309 236.590,103.387 236.995,103.482 236.500 C 103.578 236.005,103.578 235.195,103.482 234.700 C 103.387 234.205,103.309 234.610,103.309 235.600 M148.509 238.000 C 148.509 238.990,148.587 239.395,148.682 238.900 C 148.778 238.405,148.778 237.595,148.682 237.100 C 148.587 236.605,148.509 237.010,148.509 238.000 M103.693 238.800 C 103.693 239.570,103.775 239.885,103.876 239.500 C 103.976 239.115,103.976 238.485,103.876 238.100 C 103.775 237.715,103.693 238.030,103.693 238.800 M150.101 257.000 C 150.105 257.880,150.187 258.193,150.283 257.695 C 150.379 257.198,150.375 256.478,150.275 256.095 C 150.175 255.713,150.096 256.120,150.101 257.000 M105.309 258.000 C 105.309 258.990,105.387 259.395,105.482 258.900 C 105.578 258.405,105.578 257.595,105.482 257.100 C 105.387 256.605,105.309 257.010,105.309 258.000 M150.509 260.400 C 150.509 261.390,150.587 261.795,150.682 261.300 C 150.778 260.805,150.778 259.995,150.682 259.500 C 150.587 259.005,150.509 259.410,150.509 260.400 M105.693 261.200 C 105.693 261.970,105.775 262.285,105.876 261.900 C 105.976 261.515,105.976 260.885,105.876 260.500 C 105.775 260.115,105.693 260.430,105.693 261.200 M107.309 280.400 C 107.309 281.390,107.387 281.795,107.482 281.300 C 107.578 280.805,107.578 279.995,107.482 279.500 C 107.387 279.005,107.309 279.410,107.309 280.400 M107.701 283.800 C 107.705 284.680,107.787 284.993,107.883 284.495 C 107.979 283.998,107.975 283.278,107.875 282.895 C 107.775 282.513,107.696 282.920,107.701 283.800 " stroke="none" fill="#2c64ec" fill-rule="evenodd"></path><path id="path3" d="M254.974 73.499 L 310.347 73.603 310.522 74.606 C 310.682 75.523,310.693 75.514,310.649 74.505 L 310.600 73.400 255.100 73.398 L 199.600 73.396 254.974 73.499 M89.309 75.200 C 89.309 76.190,89.387 76.595,89.482 76.100 C 89.578 75.605,89.578 74.795,89.482 74.300 C 89.387 73.805,89.309 74.210,89.309 75.200 M308.893 92.400 C 308.893 93.170,308.975 93.485,309.076 93.100 C 309.176 92.715,309.176 92.085,309.076 91.700 C 308.975 91.315,308.893 91.630,308.893 92.400 M90.909 93.600 C 90.909 94.590,90.987 94.995,91.082 94.500 C 91.178 94.005,91.178 93.195,91.082 92.700 C 90.987 92.205,90.909 92.610,90.909 93.600 M308.509 96.400 C 308.509 97.390,308.587 97.795,308.682 97.300 C 308.778 96.805,308.778 95.995,308.682 95.500 C 308.587 95.005,308.509 95.410,308.509 96.400 M91.293 97.600 C 91.293 98.370,91.375 98.685,91.476 98.300 C 91.576 97.915,91.576 97.285,91.476 96.900 C 91.375 96.515,91.293 96.830,91.293 97.600 M306.893 114.800 C 306.893 115.570,306.975 115.885,307.076 115.500 C 307.176 115.115,307.176 114.485,307.076 114.100 C 306.975 113.715,306.893 114.030,306.893 114.800 M92.909 115.600 C 92.909 116.590,92.987 116.995,93.082 116.500 C 93.178 116.005,93.178 115.195,93.082 114.700 C 92.987 114.205,92.909 114.610,92.909 115.600 M306.509 118.800 C 306.509 119.790,306.587 120.195,306.682 119.700 C 306.778 119.205,306.778 118.395,306.682 117.900 C 306.587 117.405,306.509 117.810,306.509 118.800 M119.931 117.900 C 134.743 117.958,158.863 117.958,173.531 117.900 C 188.199 117.842,176.080 117.794,146.600 117.794 C 117.120 117.794,105.119 117.842,119.931 117.900 M261.309 123.200 C 261.309 124.190,261.387 124.595,261.482 124.100 C 261.578 123.605,261.578 122.795,261.482 122.300 C 261.387 121.805,261.309 122.210,261.309 123.200 M260.893 127.200 C 260.893 127.970,260.975 128.285,261.076 127.900 C 261.176 127.515,261.176 126.885,261.076 126.500 C 260.975 126.115,260.893 126.430,260.893 127.200 M304.893 137.200 C 304.893 137.970,304.975 138.285,305.076 137.900 C 305.176 137.515,305.176 136.885,305.076 136.500 C 304.975 136.115,304.893 136.430,304.893 137.200 M304.509 141.200 C 304.509 142.190,304.587 142.595,304.682 142.100 C 304.778 141.605,304.778 140.795,304.682 140.300 C 304.587 139.805,304.509 140.210,304.509 141.200 M259.301 145.800 C 259.305 146.680,259.387 146.993,259.483 146.495 C 259.579 145.998,259.575 145.278,259.475 144.895 C 259.375 144.513,259.296 144.920,259.301 145.800 M258.893 149.600 C 258.893 150.370,258.975 150.685,259.076 150.300 C 259.176 149.915,259.176 149.285,259.076 148.900 C 258.975 148.515,258.893 148.830,258.893 149.600 M302.893 159.600 C 302.893 160.370,302.975 160.685,303.076 160.300 C 303.176 159.915,303.176 159.285,303.076 158.900 C 302.975 158.515,302.893 158.830,302.893 159.600 M302.509 163.600 C 302.509 164.590,302.587 164.995,302.682 164.500 C 302.778 164.005,302.778 163.195,302.682 162.700 C 302.587 162.205,302.509 162.610,302.509 163.600 M97.301 165.400 C 97.305 166.280,97.387 166.593,97.483 166.095 C 97.579 165.598,97.575 164.878,97.475 164.495 C 97.375 164.113,97.296 164.520,97.301 165.400 M98.493 179.600 C 98.493 180.370,98.575 180.685,98.676 180.300 C 98.776 179.915,98.776 179.285,98.676 178.900 C 98.575 178.515,98.493 178.830,98.493 179.600 M98.909 184.000 C 98.909 184.990,98.987 185.395,99.082 184.900 C 99.178 184.405,99.178 183.595,99.082 183.100 C 98.987 182.605,98.909 183.010,98.909 184.000 M300.501 185.800 C 300.505 186.680,300.587 186.993,300.683 186.495 C 300.779 185.998,300.775 185.278,300.675 184.895 C 300.575 184.513,300.496 184.920,300.501 185.800 M99.301 187.800 C 99.305 188.680,99.387 188.993,99.483 188.495 C 99.579 187.998,99.575 187.278,99.475 186.895 C 99.375 186.513,99.296 186.920,99.301 187.800 M100.493 202.000 C 100.493 202.770,100.575 203.085,100.676 202.700 C 100.776 202.315,100.776 201.685,100.676 201.300 C 100.575 200.915,100.493 201.230,100.493 202.000 M298.893 204.400 C 298.893 205.170,298.975 205.485,299.076 205.100 C 299.176 204.715,299.176 204.085,299.076 203.700 C 298.975 203.315,298.893 203.630,298.893 204.400 M100.800 205.776 C 100.800 206.313,100.947 206.844,101.128 206.955 C 101.308 207.067,101.377 206.627,101.282 205.979 C 101.072 204.549,100.800 204.435,100.800 205.776 M298.501 208.200 C 298.505 209.080,298.587 209.393,298.683 208.895 C 298.779 208.398,298.775 207.678,298.675 207.295 C 298.575 206.913,298.496 207.320,298.501 208.200 M253.301 214.200 C 253.305 215.080,253.387 215.393,253.483 214.895 C 253.579 214.398,253.575 213.678,253.475 213.295 C 253.375 212.913,253.296 213.320,253.301 214.200 M296.893 226.800 C 296.893 227.570,296.975 227.885,297.076 227.500 C 297.176 227.115,297.176 226.485,297.076 226.100 C 296.975 225.715,296.893 226.030,296.893 226.800 M111.200 229.090 C 131.279 229.368,147.507 229.372,147.338 229.100 C 147.236 228.935,137.308 228.841,125.276 228.891 C 113.244 228.941,106.910 229.031,111.200 229.090 M296.501 230.600 C 296.505 231.480,296.587 231.793,296.683 231.295 C 296.779 230.798,296.775 230.078,296.675 229.695 C 296.575 229.313,296.496 229.720,296.501 230.600 M103.301 232.600 C 103.305 233.480,103.387 233.793,103.483 233.295 C 103.579 232.798,103.575 232.078,103.475 231.695 C 103.375 231.313,103.296 231.720,103.301 232.600 M251.301 236.600 C 251.305 237.480,251.387 237.793,251.483 237.295 C 251.579 236.798,251.575 236.078,251.475 235.695 C 251.375 235.313,251.296 235.720,251.301 236.600 M148.501 241.000 C 148.505 241.880,148.587 242.193,148.683 241.695 C 148.779 241.198,148.775 240.478,148.675 240.095 C 148.575 239.713,148.496 240.120,148.501 241.000 M148.909 244.800 C 148.909 245.790,148.987 246.195,149.082 245.700 C 149.178 245.205,149.178 244.395,149.082 243.900 C 148.987 243.405,148.909 243.810,148.909 244.800 M149.293 249.200 C 149.293 249.970,149.375 250.285,149.476 249.900 C 149.576 249.515,149.576 248.885,149.476 248.500 C 149.375 248.115,149.293 248.430,149.293 249.200 M294.893 249.200 C 294.893 249.970,294.975 250.285,295.076 249.900 C 295.176 249.515,295.176 248.885,295.076 248.500 C 294.975 248.115,294.893 248.430,294.893 249.200 M104.901 251.000 C 104.905 251.880,104.987 252.193,105.083 251.695 C 105.179 251.198,105.175 250.478,105.075 250.095 C 104.975 249.713,104.896 250.120,104.901 251.000 M294.501 253.000 C 294.505 253.880,294.587 254.193,294.683 253.695 C 294.779 253.198,294.775 252.478,294.675 252.095 C 294.575 251.713,294.496 252.120,294.501 253.000 M105.301 255.000 C 105.305 255.880,105.387 256.193,105.483 255.695 C 105.579 255.198,105.575 254.478,105.475 254.095 C 105.375 253.713,105.296 254.120,105.301 255.000 M249.301 259.000 C 249.305 259.880,249.387 260.193,249.483 259.695 C 249.579 259.198,249.575 258.478,249.475 258.095 C 249.375 257.713,249.296 258.120,249.301 259.000 M248.893 262.800 C 248.893 263.570,248.975 263.885,249.076 263.500 C 249.176 263.115,249.176 262.485,249.076 262.100 C 248.975 261.715,248.893 262.030,248.893 262.800 M150.493 263.200 C 150.493 263.970,150.575 264.285,150.676 263.900 C 150.776 263.515,150.776 262.885,150.676 262.500 C 150.575 262.115,150.493 262.430,150.493 263.200 M153.400 265.200 C 153.840 265.389,154.470 265.544,154.800 265.544 C 155.178 265.544,155.104 265.417,154.600 265.200 C 154.160 265.011,153.530 264.856,153.200 264.856 C 152.822 264.856,152.896 264.983,153.400 265.200 M168.200 269.200 C 168.640 269.389,169.270 269.544,169.600 269.544 C 169.978 269.544,169.904 269.417,169.400 269.200 C 168.960 269.011,168.330 268.856,168.000 268.856 C 167.622 268.856,167.696 268.983,168.200 269.200 M292.893 271.600 C 292.893 272.370,292.975 272.685,293.076 272.300 C 293.176 271.915,293.176 271.285,293.076 270.900 C 292.975 270.515,292.893 270.830,292.893 271.600 M106.901 273.400 C 106.905 274.280,106.987 274.593,107.083 274.095 C 107.179 273.598,107.175 272.878,107.075 272.495 C 106.975 272.113,106.896 272.520,106.901 273.400 M183.000 273.200 C 183.440 273.389,184.070 273.544,184.400 273.544 C 184.778 273.544,184.704 273.417,184.200 273.200 C 183.760 273.011,183.130 272.856,182.800 272.856 C 182.422 272.856,182.496 272.983,183.000 273.200 M292.501 275.400 C 292.505 276.280,292.587 276.593,292.683 276.095 C 292.779 275.598,292.775 274.878,292.675 274.495 C 292.575 274.113,292.496 274.520,292.501 275.400 M107.301 277.400 C 107.305 278.280,107.387 278.593,107.483 278.095 C 107.579 277.598,107.575 276.878,107.475 276.495 C 107.375 276.113,107.296 276.520,107.301 277.400 M290.893 294.000 C 290.893 294.770,290.975 295.085,291.076 294.700 C 291.176 294.315,291.176 293.685,291.076 293.300 C 290.975 292.915,290.893 293.230,290.893 294.000 M108.909 296.000 C 108.909 296.990,108.987 297.395,109.082 296.900 C 109.178 296.405,109.178 295.595,109.082 295.100 C 108.987 294.605,108.909 295.010,108.909 296.000 M290.454 297.280 C 290.425 297.874,290.085 298.544,289.700 298.768 C 289.315 298.992,289.203 299.181,289.451 299.188 C 290.208 299.208,290.872 298.097,290.685 297.122 C 290.526 296.290,290.504 296.305,290.454 297.280 " stroke="none" fill="#7895e9" fill-rule="evenodd"></path><path id="path4" d="M309.301 85.400 C 309.305 86.280,309.387 86.593,309.483 86.095 C 309.579 85.598,309.575 84.878,309.475 84.495 C 309.375 84.113,309.296 84.520,309.301 85.400 M90.509 86.800 C 90.509 87.790,90.587 88.195,90.682 87.700 C 90.778 87.205,90.778 86.395,90.682 85.900 C 90.587 85.405,90.509 85.810,90.509 86.800 M308.914 89.400 C 308.917 90.500,308.995 90.903,309.087 90.295 C 309.179 89.686,309.177 88.786,309.082 88.295 C 308.987 87.803,308.911 88.300,308.914 89.400 M90.901 90.600 C 90.905 91.480,90.987 91.793,91.083 91.295 C 91.179 90.798,91.175 90.078,91.075 89.695 C 90.975 89.313,90.896 89.720,90.901 90.600 M308.493 93.600 C 308.493 94.370,308.575 94.685,308.676 94.300 C 308.776 93.915,308.776 93.285,308.676 92.900 C 308.575 92.515,308.493 92.830,308.493 93.600 M91.293 95.200 C 91.293 95.970,91.375 96.285,91.476 95.900 C 91.576 95.515,91.576 94.885,91.476 94.500 C 91.375 94.115,91.293 94.430,91.293 95.200 M307.293 108.000 C 307.293 108.770,307.375 109.085,307.476 108.700 C 307.576 108.315,307.576 107.685,307.476 107.300 C 307.375 106.915,307.293 107.230,307.293 108.000 M92.509 108.800 C 92.509 109.790,92.587 110.195,92.682 109.700 C 92.778 109.205,92.778 108.395,92.682 107.900 C 92.587 107.405,92.509 107.810,92.509 108.800 M306.914 111.800 C 306.917 112.900,306.995 113.303,307.087 112.695 C 307.179 112.086,307.177 111.186,307.082 110.695 C 306.987 110.203,306.911 110.700,306.914 111.800 M92.901 112.600 C 92.905 113.480,92.987 113.793,93.083 113.295 C 93.179 112.798,93.175 112.078,93.075 111.695 C 92.975 111.313,92.896 111.720,92.901 112.600 M306.493 116.000 C 306.493 116.770,306.575 117.085,306.676 116.700 C 306.776 116.315,306.776 115.685,306.676 115.300 C 306.575 114.915,306.493 115.230,306.493 116.000 M215.530 117.900 C 224.181 117.960,238.221 117.960,246.730 117.900 C 255.238 117.840,248.160 117.790,231.000 117.790 C 213.840 117.790,206.878 117.840,215.530 117.900 M261.293 126.000 C 261.293 126.770,261.375 127.085,261.476 126.700 C 261.576 126.315,261.576 125.685,261.476 125.300 C 261.375 124.915,261.293 125.230,261.293 126.000 M260.914 130.200 C 260.917 131.300,260.995 131.703,261.087 131.095 C 261.179 130.486,261.177 129.586,261.082 129.095 C 260.987 128.603,260.911 129.100,260.914 130.200 M305.293 130.400 C 305.293 131.170,305.375 131.485,305.476 131.100 C 305.576 130.715,305.576 130.085,305.476 129.700 C 305.375 129.315,305.293 129.630,305.293 130.400 M304.914 134.200 C 304.917 135.300,304.995 135.703,305.087 135.095 C 305.179 134.486,305.177 133.586,305.082 133.095 C 304.987 132.603,304.911 133.100,304.914 134.200 M260.501 134.200 C 260.505 135.080,260.587 135.393,260.683 134.895 C 260.779 134.398,260.775 133.678,260.675 133.295 C 260.575 132.913,260.496 133.320,260.501 134.200 M304.493 138.400 C 304.493 139.170,304.575 139.485,304.676 139.100 C 304.776 138.715,304.776 138.085,304.676 137.700 C 304.575 137.315,304.493 137.630,304.493 138.400 M259.293 148.400 C 259.293 149.170,259.375 149.485,259.476 149.100 C 259.576 148.715,259.576 148.085,259.476 147.700 C 259.375 147.315,259.293 147.630,259.293 148.400 M258.914 152.600 C 258.917 153.700,258.995 154.103,259.087 153.495 C 259.179 152.886,259.177 151.986,259.082 151.495 C 258.987 151.003,258.911 151.500,258.914 152.600 M303.293 152.800 C 303.293 153.570,303.375 153.885,303.476 153.500 C 303.576 153.115,303.576 152.485,303.476 152.100 C 303.375 151.715,303.293 152.030,303.293 152.800 M302.914 156.600 C 302.917 157.700,302.995 158.103,303.087 157.495 C 303.179 156.886,303.177 155.986,303.082 155.495 C 302.987 155.003,302.911 155.500,302.914 156.600 M258.501 156.600 C 258.505 157.480,258.587 157.793,258.683 157.295 C 258.779 156.798,258.775 156.078,258.675 155.695 C 258.575 155.313,258.496 155.720,258.501 156.600 M302.493 160.800 C 302.493 161.570,302.575 161.885,302.676 161.500 C 302.776 161.115,302.776 160.485,302.676 160.100 C 302.575 159.715,302.493 160.030,302.493 160.800 M97.467 163.067 C 97.320 163.213,97.203 163.528,97.206 163.767 C 97.210 164.024,97.341 163.998,97.529 163.701 C 97.780 163.306,114.491 163.181,178.023 163.100 L 258.200 162.998 177.967 162.899 C 133.838 162.845,97.613 162.920,97.467 163.067 M301.301 175.000 C 301.305 175.880,301.387 176.193,301.483 175.695 C 301.579 175.198,301.575 174.478,301.475 174.095 C 301.375 173.713,301.296 174.120,301.301 175.000 M98.509 176.800 C 98.509 177.790,98.587 178.195,98.682 177.700 C 98.778 177.205,98.778 176.395,98.682 175.900 C 98.587 175.405,98.509 175.810,98.509 176.800 M300.914 179.000 C 300.917 180.100,300.995 180.503,301.087 179.895 C 301.179 179.286,301.177 178.386,301.082 177.895 C 300.987 177.403,300.911 177.900,300.914 179.000 M98.909 180.800 C 98.909 181.790,98.987 182.195,99.082 181.700 C 99.178 181.205,99.178 180.395,99.082 179.900 C 98.987 179.405,98.909 179.810,98.909 180.800 M300.501 183.000 C 300.505 183.880,300.587 184.193,300.683 183.695 C 300.779 183.198,300.775 182.478,300.675 182.095 C 300.575 181.713,300.496 182.120,300.501 183.000 M299.301 197.400 C 299.305 198.280,299.387 198.593,299.483 198.095 C 299.579 197.598,299.575 196.878,299.475 196.495 C 299.375 196.113,299.296 196.520,299.301 197.400 M100.509 199.200 C 100.509 200.190,100.587 200.595,100.682 200.100 C 100.778 199.605,100.778 198.795,100.682 198.300 C 100.587 197.805,100.509 198.210,100.509 199.200 M298.914 201.400 C 298.917 202.500,298.995 202.903,299.087 202.295 C 299.179 201.686,299.177 200.786,299.082 200.295 C 298.987 199.803,298.911 200.300,298.914 201.400 M100.909 203.200 C 100.909 204.190,100.987 204.595,101.082 204.100 C 101.178 203.605,101.178 202.795,101.082 202.300 C 100.987 201.805,100.909 202.210,100.909 203.200 M298.501 205.400 C 298.505 206.280,298.587 206.593,298.683 206.095 C 298.779 205.598,298.775 204.878,298.675 204.495 C 298.575 204.113,298.496 204.520,298.501 205.400 M101.462 206.900 C 101.564 207.065,135.913 207.200,177.794 207.200 C 238.356 207.200,253.976 207.302,254.109 207.700 C 254.206 207.987,254.258 207.945,254.233 207.600 C 254.194 207.070,245.312 206.977,177.733 206.800 C 135.682 206.690,101.360 206.735,101.462 206.900 M297.693 215.200 C 297.693 215.970,297.775 216.285,297.876 215.900 C 297.976 215.515,297.976 214.885,297.876 214.500 C 297.775 214.115,297.693 214.430,297.693 215.200 M253.301 217.000 C 253.305 217.880,253.387 218.193,253.483 217.695 C 253.579 217.198,253.575 216.478,253.475 216.095 C 253.375 215.713,253.296 216.120,253.301 217.000 M297.301 219.800 C 297.305 220.680,297.387 220.993,297.483 220.495 C 297.579 219.998,297.575 219.278,297.475 218.895 C 297.375 218.513,297.296 218.920,297.301 219.800 M252.914 221.000 C 252.917 222.100,252.995 222.503,253.087 221.895 C 253.179 221.286,253.177 220.386,253.082 219.895 C 252.987 219.403,252.911 219.900,252.914 221.000 M296.914 223.800 C 296.917 224.900,296.995 225.303,297.087 224.695 C 297.179 224.086,297.177 223.186,297.082 222.695 C 296.987 222.203,296.911 222.700,296.914 223.800 M252.501 225.000 C 252.505 225.880,252.587 226.193,252.683 225.695 C 252.779 225.198,252.775 224.478,252.675 224.095 C 252.575 223.713,252.496 224.120,252.501 225.000 M296.501 227.800 C 296.505 228.680,296.587 228.993,296.683 228.495 C 296.779 227.998,296.775 227.278,296.675 226.895 C 296.575 226.513,296.496 226.920,296.501 227.800 M103.254 230.297 C 103.301 231.240,103.334 231.269,103.482 230.500 L 103.656 229.600 125.400 229.600 C 146.873 229.600,147.147 229.610,147.325 230.406 C 147.476 231.077,147.497 231.060,147.453 230.306 L 147.400 229.400 125.300 229.297 L 103.200 229.193 103.254 230.297 M251.301 239.400 C 251.305 240.280,251.387 240.593,251.483 240.095 C 251.579 239.598,251.575 238.878,251.475 238.495 C 251.375 238.113,251.296 238.520,251.301 239.400 M295.301 242.200 C 295.305 243.080,295.387 243.393,295.483 242.895 C 295.579 242.398,295.575 241.678,295.475 241.295 C 295.375 240.913,295.296 241.320,295.301 242.200 M250.914 243.400 C 250.917 244.500,250.995 244.903,251.087 244.295 C 251.179 243.686,251.177 242.786,251.082 242.295 C 250.987 241.803,250.911 242.300,250.914 243.400 M104.509 244.000 C 104.509 244.990,104.587 245.395,104.682 244.900 C 104.778 244.405,104.778 243.595,104.682 243.100 C 104.587 242.605,104.509 243.010,104.509 244.000 M294.914 246.200 C 294.917 247.300,294.995 247.703,295.087 247.095 C 295.179 246.486,295.177 245.586,295.082 245.095 C 294.987 244.603,294.911 245.100,294.914 246.200 M250.501 247.400 C 250.505 248.280,250.587 248.593,250.683 248.095 C 250.779 247.598,250.775 246.878,250.675 246.495 C 250.575 246.113,250.496 246.520,250.501 247.400 M104.909 248.000 C 104.909 248.990,104.987 249.395,105.082 248.900 C 105.178 248.405,105.178 247.595,105.082 247.100 C 104.987 246.605,104.909 247.010,104.909 248.000 M148.909 248.000 C 148.909 248.990,148.987 249.395,149.082 248.900 C 149.178 248.405,149.178 247.595,149.082 247.100 C 148.987 246.605,148.909 247.010,148.909 248.000 M294.493 250.400 C 294.493 251.170,294.575 251.485,294.676 251.100 C 294.776 250.715,294.776 250.085,294.676 249.700 C 294.575 249.315,294.493 249.630,294.493 250.400 M149.309 252.000 C 149.309 252.990,149.387 253.395,149.482 252.900 C 149.578 252.405,149.578 251.595,149.482 251.100 C 149.387 250.605,149.309 251.010,149.309 252.000 M105.293 252.400 C 105.293 253.170,105.375 253.485,105.476 253.100 C 105.576 252.715,105.576 252.085,105.476 251.700 C 105.375 251.315,105.293 251.630,105.293 252.400 M249.293 261.600 C 249.293 262.370,249.375 262.685,249.476 262.300 C 249.576 261.915,249.576 261.285,249.476 260.900 C 249.375 260.515,249.293 260.830,249.293 261.600 M293.301 264.600 C 293.305 265.480,293.387 265.793,293.483 265.295 C 293.579 264.798,293.575 264.078,293.475 263.695 C 293.375 263.313,293.296 263.720,293.301 264.600 M106.509 266.400 C 106.509 267.390,106.587 267.795,106.682 267.300 C 106.778 266.805,106.778 265.995,106.682 265.500 C 106.587 265.005,106.509 265.410,106.509 266.400 M292.914 268.600 C 292.917 269.700,292.995 270.103,293.087 269.495 C 293.179 268.886,293.177 267.986,293.082 267.495 C 292.987 267.003,292.911 267.500,292.914 268.600 M232.200 268.800 C 231.696 269.017,231.622 269.144,232.000 269.144 C 232.330 269.144,232.960 268.989,233.400 268.800 C 233.904 268.583,233.978 268.456,233.600 268.456 C 233.270 268.456,232.640 268.611,232.200 268.800 M106.909 270.400 C 106.909 271.390,106.987 271.795,107.082 271.300 C 107.178 270.805,107.178 269.995,107.082 269.500 C 106.987 269.005,106.909 269.410,106.909 270.400 M223.400 271.200 C 222.896 271.417,222.822 271.544,223.200 271.544 C 223.530 271.544,224.160 271.389,224.600 271.200 C 225.104 270.983,225.178 270.856,224.800 270.856 C 224.470 270.856,223.840 271.011,223.400 271.200 M292.493 272.800 C 292.493 273.570,292.575 273.885,292.676 273.500 C 292.776 273.115,292.776 272.485,292.676 272.100 C 292.575 271.715,292.493 272.030,292.493 272.800 M180.600 272.800 C 181.040 272.989,181.670 273.144,182.000 273.144 C 182.378 273.144,182.304 273.017,181.800 272.800 C 181.360 272.611,180.730 272.456,180.400 272.456 C 180.022 272.456,180.096 272.583,180.600 272.800 M208.600 275.200 C 208.096 275.417,208.022 275.544,208.400 275.544 C 208.730 275.544,209.360 275.389,209.800 275.200 C 210.304 274.983,210.378 274.856,210.000 274.856 C 209.670 274.856,209.040 275.011,208.600 275.200 M202.600 276.800 C 202.096 277.017,202.022 277.144,202.400 277.144 C 202.730 277.144,203.360 276.989,203.800 276.800 C 204.304 276.583,204.378 276.456,204.000 276.456 C 203.670 276.456,203.040 276.611,202.600 276.800 M291.301 287.000 C 291.305 287.880,291.387 288.193,291.483 287.695 C 291.579 287.198,291.575 286.478,291.475 286.095 C 291.375 285.713,291.296 286.120,291.301 287.000 M108.509 288.800 C 108.509 289.790,108.587 290.195,108.682 289.700 C 108.778 289.205,108.778 288.395,108.682 287.900 C 108.587 287.405,108.509 287.810,108.509 288.800 M290.914 291.000 C 290.917 292.100,290.995 292.503,291.087 291.895 C 291.179 291.286,291.177 290.386,291.082 289.895 C 290.987 289.403,290.911 289.900,290.914 291.000 M108.909 292.800 C 108.909 293.790,108.987 294.195,109.082 293.700 C 109.178 293.205,109.178 292.395,109.082 291.900 C 108.987 291.405,108.909 291.810,108.909 292.800 M290.493 295.200 C 290.493 295.970,290.575 296.285,290.676 295.900 C 290.776 295.515,290.776 294.885,290.676 294.500 C 290.575 294.115,290.493 294.430,290.493 295.200 M111.800 299.200 C 112.240 299.389,112.870 299.544,113.200 299.544 C 113.578 299.544,113.504 299.417,113.000 299.200 C 112.560 299.011,111.930 298.856,111.600 298.856 C 111.222 298.856,111.296 298.983,111.800 299.200 M126.200 303.200 C 126.640 303.389,127.270 303.544,127.600 303.544 C 127.978 303.544,127.904 303.417,127.400 303.200 C 126.960 303.011,126.330 302.856,126.000 302.856 C 125.622 302.856,125.696 302.983,126.200 303.200 M133.400 305.200 C 133.840 305.389,134.470 305.544,134.800 305.544 C 135.178 305.544,135.104 305.417,134.600 305.200 C 134.160 305.011,133.530 304.856,133.200 304.856 C 132.822 304.856,132.896 304.983,133.400 305.200 M259.800 306.800 C 259.296 307.017,259.222 307.144,259.600 307.144 C 259.930 307.144,260.560 306.989,261.000 306.800 C 261.504 306.583,261.578 306.456,261.200 306.456 C 260.870 306.456,260.240 306.611,259.800 306.800 M147.800 309.200 C 148.240 309.389,148.870 309.544,149.200 309.544 C 149.578 309.544,149.504 309.417,149.000 309.200 C 148.560 309.011,147.930 308.856,147.600 308.856 C 147.222 308.856,147.296 308.983,147.800 309.200 M245.400 310.800 C 244.896 311.017,244.822 311.144,245.200 311.144 C 245.530 311.144,246.160 310.989,246.600 310.800 C 247.104 310.583,247.178 310.456,246.800 310.456 C 246.470 310.456,245.840 310.611,245.400 310.800 M155.000 311.200 C 155.440 311.389,156.070 311.544,156.400 311.544 C 156.778 311.544,156.704 311.417,156.200 311.200 C 155.760 311.011,155.130 310.856,154.800 310.856 C 154.422 310.856,154.496 310.983,155.000 311.200 M162.200 313.200 C 162.640 313.389,163.270 313.544,163.600 313.544 C 163.978 313.544,163.904 313.417,163.400 313.200 C 162.960 313.011,162.330 312.856,162.000 312.856 C 161.622 312.856,161.696 312.983,162.200 313.200 M169.400 315.200 C 169.840 315.389,170.470 315.544,170.800 315.544 C 171.178 315.544,171.104 315.417,170.600 315.200 C 170.160 315.011,169.530 314.856,169.200 314.856 C 168.822 314.856,168.896 314.983,169.400 315.200 M176.600 317.200 C 177.040 317.389,177.670 317.544,178.000 317.544 C 178.378 317.544,178.304 317.417,177.800 317.200 C 177.360 317.011,176.730 316.856,176.400 316.856 C 176.022 316.856,176.096 316.983,176.600 317.200 M183.800 319.200 C 184.240 319.389,184.870 319.544,185.200 319.544 C 185.578 319.544,185.504 319.417,185.000 319.200 C 184.560 319.011,183.930 318.856,183.600 318.856 C 183.222 318.856,183.296 318.983,183.800 319.200 M191.000 321.200 C 191.440 321.389,192.070 321.544,192.400 321.544 C 192.778 321.544,192.704 321.417,192.200 321.200 C 191.760 321.011,191.130 320.856,190.800 320.856 C 190.422 320.856,190.496 320.983,191.000 321.200 M198.729 323.351 C 199.494 323.571,200.506 323.571,201.271 323.351 C 202.368 323.037,202.193 322.987,200.000 322.987 C 197.807 322.987,197.632 323.037,198.729 323.351 " stroke="none" fill="#8bacf4" fill-rule="evenodd"></path></g></svg>