<svg id="svg" version="1.1" xmlns="http://www.w3.org/2000/svg" xmlns:xlink="http://www.w3.org/1999/xlink" width="400" height="400" viewBox="0, 0, 400,400"><g id="svgg"><path id="path0" d="M89.863 73.870 C 89.591 74.142,89.693 75.964,90.398 83.400 C 90.606 85.600,90.968 89.650,91.201 92.400 C 91.435 95.150,91.792 99.200,91.995 101.400 C 92.881 111.003,93.196 114.501,93.598 119.200 C 93.833 121.950,94.192 126.000,94.397 128.200 C 94.601 130.400,94.963 134.360,95.200 137.000 C 95.437 139.640,95.801 143.600,96.009 145.800 C 96.216 148.000,96.748 154.030,97.191 159.200 C 97.633 164.370,98.169 170.400,98.381 172.600 C 98.594 174.800,98.971 178.940,99.220 181.800 C 99.468 184.660,100.062 191.410,100.538 196.800 L 101.405 206.600 157.403 206.842 C 188.201 206.975,222.535 207.110,233.700 207.142 L 254.000 207.200 254.000 209.184 C 254.000 210.276,253.827 212.931,253.616 215.084 C 253.179 219.546,252.657 225.212,251.780 235.000 C 250.903 244.797,250.858 245.310,250.399 250.600 C 249.563 260.244,249.085 263.997,248.647 264.337 C 248.401 264.528,246.130 265.244,243.600 265.929 C 241.070 266.614,235.040 268.247,230.200 269.559 C 225.360 270.870,220.050 272.306,218.400 272.749 C 216.750 273.192,212.014 274.465,207.875 275.578 C 199.046 277.950,199.463 277.924,194.260 276.451 C 192.027 275.819,188.670 274.897,186.800 274.403 C 184.930 273.908,182.860 273.343,182.200 273.147 C 181.540 272.950,178.390 272.097,175.200 271.250 C 156.030 266.159,150.827 264.647,150.618 264.103 C 150.314 263.312,149.816 258.392,148.602 244.200 C 148.037 237.600,147.483 231.615,147.370 230.900 L 147.164 229.600 125.345 229.600 L 103.525 229.600 103.780 233.500 C 103.920 235.645,104.198 238.930,104.398 240.800 C 104.598 242.670,104.958 246.540,105.197 249.400 C 105.436 252.260,105.796 256.310,105.997 258.400 C 106.198 260.490,106.557 264.450,106.795 267.200 C 107.034 269.950,107.399 274.090,107.606 276.400 C 107.813 278.710,108.177 282.760,108.413 285.400 C 109.664 299.352,109.320 298.349,113.200 299.369 C 114.630 299.745,119.040 300.952,123.000 302.053 C 135.351 305.485,145.742 308.385,147.200 308.807 C 147.970 309.029,155.800 311.199,164.600 313.628 C 173.400 316.057,183.480 318.844,187.000 319.823 C 190.520 320.802,194.120 321.801,195.000 322.043 C 195.880 322.285,197.013 322.645,197.519 322.842 C 199.232 323.510,201.169 323.204,208.892 321.046 C 213.131 319.861,220.020 317.949,224.200 316.797 C 231.815 314.699,241.775 311.938,244.400 311.197 C 248.143 310.142,260.081 306.826,274.000 302.976 C 282.470 300.634,289.598 298.556,289.841 298.359 C 290.253 298.023,290.645 294.766,291.617 283.600 C 291.837 281.070,292.189 277.110,292.400 274.800 C 292.611 272.490,292.975 268.440,293.209 265.800 C 293.444 263.160,293.811 259.110,294.025 256.800 C 294.239 254.490,295.132 244.410,296.009 234.400 C 296.886 224.390,297.777 214.400,297.989 212.200 C 298.201 210.000,298.566 205.950,298.800 203.200 C 299.034 200.450,299.392 196.400,299.597 194.200 C 299.978 190.097,300.451 184.796,301.221 176.000 C 301.462 173.250,301.819 169.398,302.016 167.440 C 302.212 165.482,302.278 163.727,302.163 163.540 C 302.047 163.353,265.877 163.200,221.784 163.200 L 141.615 163.200 141.424 162.300 C 141.219 161.332,140.687 156.020,139.993 148.000 C 139.755 145.250,139.398 141.290,139.199 139.200 C 139.000 137.110,138.638 133.060,138.395 130.200 C 138.152 127.340,137.799 123.579,137.611 121.842 C 137.424 120.105,137.363 118.440,137.478 118.142 C 137.652 117.688,151.431 117.600,221.853 117.600 L 306.020 117.600 306.342 116.700 C 306.520 116.205,306.882 113.100,307.147 109.800 C 307.412 106.500,307.792 102.180,307.990 100.200 C 308.188 98.220,308.547 94.260,308.789 91.400 C 309.031 88.540,309.395 84.580,309.599 82.600 C 309.802 80.620,310.021 77.830,310.084 76.400 L 310.200 73.800 200.167 73.699 C 139.649 73.644,90.013 73.721,89.863 73.870 " stroke="none" fill="#f3f3f2" fill-rule="evenodd"></path><path id="path1" d="M22.465 4.400 C 22.388 5.828,22.826 7.231,23.265 6.960 C 23.495 6.817,23.491 6.551,23.255 6.264 C 23.044 6.009,22.792 5.260,22.695 4.600 C 22.545 3.571,22.512 3.543,22.465 4.400 M377.232 4.620 C 377.214 5.291,377.004 6.036,376.765 6.275 C 376.468 6.572,376.462 6.791,376.745 6.966 C 377.209 7.253,377.806 4.755,377.472 3.921 C 377.357 3.635,377.249 3.949,377.232 4.620 M23.200 13.757 C 23.200 14.357,23.364 14.746,23.564 14.622 C 23.966 14.374,23.915 13.382,23.478 12.945 C 23.325 12.792,23.200 13.157,23.200 13.757 M376.369 12.900 C 376.116 13.727,376.144 14.442,376.436 14.622 C 376.636 14.746,376.800 14.387,376.800 13.824 C 376.800 13.009,376.520 12.408,376.369 12.900 M24.028 21.233 C 24.044 22.425,24.211 23.760,24.401 24.200 C 24.618 24.704,24.678 23.971,24.562 22.222 C 24.339 18.866,23.989 18.218,24.028 21.233 M375.639 20.000 C 375.270 23.371,375.275 24.974,375.650 24.016 C 375.862 23.476,375.971 22.126,375.892 21.016 C 375.813 19.907,375.699 19.450,375.639 20.000 M200.268 29.466 C 200.120 29.613,200.000 39.423,200.000 51.267 L 200.000 72.800 255.100 72.806 C 285.405 72.809,310.445 72.967,310.744 73.157 C 311.318 73.521,311.285 74.027,309.217 96.400 C 308.801 100.910,308.253 107.120,308.001 110.200 C 307.748 113.280,307.413 116.340,307.256 117.000 L 306.970 118.200 253.385 118.301 L 199.800 118.403 199.907 140.201 L 200.013 162.000 250.833 162.000 C 285.709 162.000,301.900 162.132,302.441 162.422 C 303.299 162.881,303.296 163.601,302.396 172.800 C 301.970 177.157,301.138 186.386,300.015 199.200 C 299.793 201.730,299.433 205.780,299.214 208.200 C 298.996 210.620,298.625 214.760,298.391 217.400 C 297.399 228.567,297.180 231.017,296.809 235.100 C 296.593 237.465,296.144 242.550,295.811 246.400 C 293.320 275.166,291.127 298.190,290.823 298.758 C 290.624 299.129,289.502 299.667,288.331 299.954 C 287.159 300.240,285.660 300.638,285.000 300.838 C 284.340 301.038,281.820 301.744,279.400 302.406 C 276.980 303.069,274.370 303.787,273.600 304.001 C 271.263 304.654,261.318 307.408,255.800 308.932 C 251.024 310.250,235.636 314.521,217.200 319.646 C 204.646 323.136,201.836 323.905,200.800 324.139 L 199.800 324.365 200.000 346.682 L 200.200 369.000 201.400 368.912 C 202.060 368.864,205.480 368.019,209.000 367.035 C 221.276 363.601,244.653 357.122,251.800 355.173 C 258.513 353.342,260.332 352.835,263.400 351.943 C 265.049 351.463,276.767 348.203,287.600 345.210 C 320.446 336.135,316.828 337.660,317.236 332.715 C 317.970 323.817,318.531 317.429,320.214 298.800 C 321.197 287.910,322.626 271.980,323.387 263.400 C 324.699 248.634,325.125 243.848,326.006 234.000 C 326.213 231.690,326.574 227.640,326.809 225.000 C 327.044 222.360,327.410 218.310,327.624 216.000 C 327.838 213.690,328.546 205.770,329.197 198.400 C 329.848 191.030,330.559 183.110,330.776 180.800 C 330.993 178.490,331.357 174.350,331.585 171.600 C 332.035 166.163,332.614 159.675,333.209 153.400 C 333.417 151.200,333.779 147.240,334.012 144.600 C 334.245 141.960,334.604 137.910,334.810 135.600 C 335.016 133.290,335.368 129.330,335.592 126.800 C 339.389 83.953,342.557 48.561,343.228 41.500 C 343.463 39.025,343.688 35.290,343.728 33.200 L 343.800 29.400 272.168 29.299 C 232.770 29.243,200.415 29.318,200.268 29.466 M374.914 31.000 C 374.917 32.100,374.995 32.503,375.087 31.895 C 375.179 31.286,375.177 30.386,375.082 29.895 C 374.987 29.403,374.911 29.900,374.914 31.000 M25.606 40.300 C 25.603 40.795,25.780 41.200,26.000 41.200 C 26.501 41.200,26.501 40.776,26.000 40.000 C 25.686 39.515,25.611 39.572,25.606 40.300 M373.879 40.157 C 373.715 40.574,373.675 41.009,373.791 41.124 C 374.155 41.489,374.476 40.891,374.324 40.131 C 374.183 39.435,374.162 39.436,373.879 40.157 M26.500 48.631 C 26.500 49.552,26.561 49.613,26.891 49.022 C 27.147 48.566,27.147 48.187,26.891 47.931 C 26.636 47.676,26.500 47.920,26.500 48.631 M373.002 47.997 C 372.867 48.215,372.924 48.693,373.128 49.058 C 373.431 49.598,373.500 49.524,373.500 48.661 C 373.500 47.521,373.388 47.372,373.002 47.997 M27.693 60.800 C 27.693 61.570,27.775 61.885,27.876 61.500 C 27.976 61.115,27.976 60.485,27.876 60.100 C 27.775 59.715,27.693 60.030,27.693 60.800 M372.093 60.800 C 372.093 61.570,372.175 61.885,372.276 61.500 C 372.376 61.115,372.376 60.485,372.276 60.100 C 372.175 59.715,372.093 60.030,372.093 60.800 M28.400 70.576 C 28.400 71.333,28.538 72.038,28.707 72.143 C 28.876 72.247,28.948 71.628,28.865 70.766 C 28.681 68.832,28.400 68.718,28.400 70.576 M371.301 70.600 C 371.305 71.480,371.387 71.793,371.483 71.295 C 371.579 70.798,371.575 70.078,371.475 69.695 C 371.375 69.313,371.296 69.720,371.301 70.600 M88.493 74.800 C 88.493 75.570,88.575 75.885,88.676 75.500 C 88.776 75.115,88.776 74.485,88.676 74.100 C 88.575 73.715,88.493 74.030,88.493 74.800 M29.293 80.000 C 29.293 80.770,29.375 81.085,29.476 80.700 C 29.576 80.315,29.576 79.685,29.476 79.300 C 29.375 78.915,29.293 79.230,29.293 80.000 M370.493 80.000 C 370.493 80.770,370.575 81.085,370.676 80.700 C 370.776 80.315,370.776 79.685,370.676 79.300 C 370.575 78.915,370.493 79.230,370.493 80.000 M30.400 93.400 C 30.400 93.950,30.555 94.400,30.745 94.400 C 30.934 94.400,31.003 93.950,30.898 93.400 C 30.793 92.850,30.638 92.400,30.553 92.400 C 30.469 92.400,30.400 92.850,30.400 93.400 M31.695 108.000 C 31.695 108.550,31.832 109.540,32.000 110.200 C 32.272 111.270,32.305 111.292,32.305 110.400 C 32.305 109.850,32.168 108.860,32.000 108.200 C 31.728 107.130,31.695 107.108,31.695 108.000 M367.840 108.840 C 367.693 109.757,367.652 110.585,367.747 110.680 C 367.842 110.776,368.046 110.110,368.200 109.200 C 368.354 108.290,368.396 107.462,368.293 107.360 C 368.190 107.257,367.987 107.923,367.840 108.840 M367.449 111.815 C 367.312 112.173,367.215 112.766,367.234 113.133 C 367.253 113.500,367.427 113.269,367.621 112.620 C 367.998 111.358,367.865 110.733,367.449 111.815 M32.509 114.400 C 32.509 115.390,32.587 115.795,32.682 115.300 C 32.778 114.805,32.778 113.995,32.682 113.500 C 32.587 113.005,32.509 113.410,32.509 114.400 M33.309 125.600 C 33.309 126.590,33.387 126.995,33.482 126.500 C 33.578 126.005,33.578 125.195,33.482 124.700 C 33.387 124.205,33.309 124.610,33.309 125.600 M364.893 141.200 C 364.893 141.970,364.975 142.285,365.076 141.900 C 365.176 141.515,365.176 140.885,365.076 140.500 C 364.975 140.115,364.893 140.430,364.893 141.200 M35.714 151.000 C 35.717 152.100,35.795 152.503,35.887 151.895 C 35.979 151.286,35.977 150.386,35.882 149.895 C 35.787 149.403,35.711 149.900,35.714 151.000 M364.120 151.200 C 364.120 152.410,364.195 152.905,364.287 152.300 C 364.378 151.695,364.378 150.705,364.287 150.100 C 364.195 149.495,364.120 149.990,364.120 151.200 M363.260 160.050 C 363.227 160.628,363.111 161.708,363.001 162.450 L 362.803 163.800 363.224 162.457 C 363.455 161.719,363.572 160.639,363.482 160.057 L 363.320 159.000 363.260 160.050 M36.493 161.200 C 36.493 161.970,36.575 162.285,36.676 161.900 C 36.776 161.515,36.776 160.885,36.676 160.500 C 36.575 160.115,36.493 160.430,36.493 161.200 M36.868 163.600 C 36.862 164.150,37.011 164.960,37.200 165.400 L 37.544 166.200 37.532 165.400 C 37.526 164.960,37.376 164.150,37.200 163.600 L 36.880 162.600 36.868 163.600 M37.293 169.200 C 37.293 169.970,37.375 170.285,37.476 169.900 C 37.576 169.515,37.576 168.885,37.476 168.500 C 37.375 168.115,37.293 168.430,37.293 169.200 M38.131 178.200 C 38.133 179.740,38.205 180.321,38.292 179.491 C 38.379 178.661,38.377 177.401,38.289 176.691 C 38.200 175.981,38.129 176.660,38.131 178.200 M361.714 179.000 C 361.717 180.100,361.795 180.503,361.887 179.895 C 361.979 179.286,361.977 178.386,361.882 177.895 C 361.787 177.403,361.711 177.900,361.714 179.000 M359.246 206.467 C 359.221 206.834,359.096 207.464,358.970 207.867 C 358.752 208.562,358.763 208.563,359.197 207.887 C 359.448 207.496,359.573 206.866,359.473 206.487 C 359.311 205.868,359.288 205.866,359.246 206.467 M199.800 242.400 C 199.800 261.320,199.848 276.800,199.907 276.800 C 200.046 276.800,204.576 275.590,212.600 273.408 C 216.120 272.451,223.140 270.555,228.200 269.193 C 233.260 267.832,238.660 266.373,240.200 265.951 C 241.740 265.529,243.720 264.986,244.600 264.745 C 248.603 263.649,248.801 263.391,248.799 259.250 C 248.799 258.233,248.973 255.960,249.185 254.200 C 249.397 252.440,249.767 248.570,250.007 245.600 C 250.247 242.630,250.606 238.490,250.805 236.400 C 251.004 234.310,251.363 230.260,251.601 227.400 C 251.840 224.540,252.198 220.490,252.398 218.400 C 252.597 216.310,252.878 213.115,253.022 211.300 L 253.283 208.000 226.542 208.000 L 199.800 208.000 199.800 242.400 M358.288 215.333 C 357.842 216.466,357.915 217.045,358.438 216.522 C 358.678 216.282,358.808 215.751,358.726 215.342 C 358.582 214.626,358.566 214.626,358.288 215.333 M42.133 224.400 C 42.133 225.340,42.224 225.501,42.487 225.031 C 42.691 224.666,42.691 224.134,42.487 223.769 C 42.224 223.299,42.133 223.460,42.133 224.400 M42.806 232.924 C 42.802 233.839,42.960 234.348,43.200 234.200 C 43.706 233.888,43.706 232.782,43.200 232.000 C 42.912 231.555,42.811 231.793,42.806 232.924 M356.515 233.147 C 356.562 233.793,356.735 234.239,356.900 234.137 C 357.331 233.872,357.270 232.491,356.815 232.209 C 356.595 232.074,356.467 232.477,356.515 233.147 M43.868 243.800 C 44.171 245.777,44.402 246.114,44.394 244.567 C 44.391 243.925,44.216 243.130,44.005 242.800 C 43.745 242.391,43.701 242.710,43.868 243.800 M44.667 250.267 C 44.520 250.413,44.400 250.893,44.400 251.333 C 44.400 252.336,44.929 251.865,45.008 250.792 C 45.073 249.915,45.051 249.882,44.667 250.267 M354.914 253.800 C 354.917 254.900,354.995 255.303,355.087 254.695 C 355.179 254.086,355.177 253.186,355.082 252.695 C 354.987 252.203,354.911 252.700,354.914 253.800 M44.909 254.400 C 44.909 255.390,44.987 255.795,45.082 255.300 C 45.178 254.805,45.178 253.995,45.082 253.500 C 44.987 253.005,44.909 253.410,44.909 254.400 M45.701 263.800 C 45.705 264.680,45.787 264.993,45.883 264.495 C 45.979 263.998,45.975 263.278,45.875 262.895 C 45.775 262.513,45.696 262.920,45.701 263.800 M354.093 263.600 C 354.093 264.370,354.175 264.685,354.276 264.300 C 354.376 263.915,354.376 263.285,354.276 262.900 C 354.175 262.515,354.093 262.830,354.093 263.600 M46.493 273.200 C 46.493 273.970,46.575 274.285,46.676 273.900 C 46.776 273.515,46.776 272.885,46.676 272.500 C 46.575 272.115,46.493 272.430,46.493 273.200 M352.854 276.267 C 352.825 276.744,352.696 277.464,352.570 277.867 C 352.352 278.561,352.364 278.562,352.796 277.888 C 353.047 277.497,353.175 276.777,353.081 276.288 C 352.909 275.401,352.909 275.401,352.854 276.267 M352.315 282.800 C 352.218 283.460,352.287 284.000,352.469 284.000 C 352.651 284.000,352.800 283.460,352.800 282.800 C 352.800 282.140,352.730 281.600,352.645 281.600 C 352.560 281.600,352.412 282.140,352.315 282.800 M351.502 291.800 C 351.397 292.350,351.466 292.800,351.655 292.800 C 351.845 292.800,352.000 292.350,352.000 291.800 C 352.000 291.250,351.931 290.800,351.847 290.800 C 351.762 290.800,351.607 291.250,351.502 291.800 M48.920 300.000 C 48.920 301.210,48.995 301.705,49.087 301.100 C 49.178 300.495,49.178 299.505,49.087 298.900 C 48.995 298.295,48.920 298.790,48.920 300.000 M350.093 307.200 C 350.093 307.970,350.175 308.285,350.276 307.900 C 350.376 307.515,350.376 306.885,350.276 306.500 C 350.175 306.115,350.093 306.430,350.093 307.200 M348.501 325.000 C 348.505 325.880,348.587 326.193,348.683 325.695 C 348.779 325.198,348.775 324.478,348.675 324.095 C 348.575 323.713,348.496 324.120,348.501 325.000 M347.693 336.000 C 347.693 336.770,347.775 337.085,347.876 336.700 C 347.976 336.315,347.976 335.685,347.876 335.300 C 347.775 334.915,347.693 335.230,347.693 336.000 M52.893 345.200 C 52.893 345.970,52.975 346.285,53.076 345.900 C 53.176 345.515,53.176 344.885,53.076 344.500 C 52.975 344.115,52.893 344.430,52.893 345.200 M53.444 348.600 C 53.773 350.071,54.002 350.390,53.994 349.367 C 53.991 348.945,53.805 348.330,53.582 348.000 C 53.285 347.562,53.248 347.724,53.444 348.600 M346.114 353.400 C 346.117 354.500,346.195 354.903,346.287 354.295 C 346.379 353.686,346.377 352.786,346.282 352.295 C 346.187 351.803,346.111 352.300,346.114 353.400 M341.200 362.018 C 340.762 362.315,340.924 362.352,341.800 362.156 C 343.271 361.827,343.590 361.598,342.567 361.606 C 342.145 361.609,341.530 361.795,341.200 362.018 M72.603 365.995 C 72.494 366.171,72.876 366.433,73.450 366.577 C 74.827 366.922,74.984 366.706,73.771 366.134 C 73.237 365.882,72.712 365.819,72.603 365.995 M75.776 366.978 C 76.204 367.320,76.834 367.586,77.176 367.568 C 77.715 367.541,77.718 367.507,77.200 367.314 C 76.870 367.192,76.240 366.926,75.800 366.724 C 75.013 366.362,75.012 366.366,75.776 366.978 M82.433 368.944 C 82.525 369.023,83.140 369.208,83.800 369.356 C 84.676 369.552,84.838 369.515,84.400 369.218 C 83.860 368.853,82.032 368.598,82.433 368.944 M92.234 371.343 C 92.372 371.705,92.871 371.986,93.343 371.968 C 93.928 371.947,94.010 371.866,93.600 371.715 C 93.270 371.593,92.771 371.311,92.491 371.090 C 92.110 370.788,92.045 370.852,92.234 371.343 M106.000 375.211 C 106.000 375.558,107.553 376.181,107.801 375.932 C 107.878 375.855,107.505 375.585,106.971 375.333 C 106.437 375.081,106.000 375.026,106.000 375.211 M115.600 378.155 C 115.600 378.240,116.130 378.387,116.779 378.482 C 117.427 378.577,117.867 378.508,117.755 378.328 C 117.557 378.007,115.600 377.850,115.600 378.155 M244.400 388.800 C 243.576 389.064,243.541 389.126,244.200 389.154 C 244.640 389.173,245.270 389.013,245.600 388.800 C 246.301 388.347,245.814 388.347,244.400 388.800 M233.200 391.833 C 232.485 392.230,232.393 392.390,232.876 392.394 C 233.248 392.397,233.666 392.217,233.804 391.993 C 233.942 391.770,234.251 391.708,234.489 391.855 C 234.749 392.015,234.809 391.937,234.638 391.662 C 234.481 391.408,234.318 391.218,234.276 391.239 C 234.234 391.261,233.750 391.528,233.200 391.833 M177.633 395.344 C 177.725 395.423,178.340 395.608,179.000 395.756 C 179.876 395.952,180.038 395.915,179.600 395.618 C 179.060 395.253,177.232 394.998,177.633 395.344 M217.200 396.418 C 216.762 396.715,216.924 396.752,217.800 396.556 C 219.271 396.227,219.590 395.998,218.567 396.006 C 218.145 396.009,217.530 396.195,217.200 396.418 " stroke="none" fill="#f3642c" fill-rule="evenodd"></path><path id="path2" d="M22.555 3.360 C 22.580 5.208,22.713 6.538,22.850 6.317 C 23.016 6.050,23.186 6.054,23.357 6.330 C 23.498 6.558,23.447 6.847,23.244 6.973 C 22.875 7.201,23.065 11.676,23.493 12.800 C 23.913 13.904,23.931 14.395,23.563 14.623 C 23.223 14.833,23.444 16.533,23.920 17.366 C 24.234 17.916,24.419 19.772,24.601 24.200 C 25.108 36.546,25.273 38.581,25.863 39.721 C 26.372 40.705,26.384 40.970,25.938 41.284 C 25.627 41.502,25.569 41.732,25.800 41.829 C 26.034 41.928,26.145 43.251,26.068 45.010 C 25.972 47.208,26.066 47.991,26.418 47.911 C 26.683 47.850,26.991 48.050,27.102 48.356 C 27.213 48.661,27.145 48.814,26.952 48.695 C 26.758 48.575,26.562 49.000,26.516 49.639 C 26.470 50.278,26.588 50.800,26.778 50.800 C 26.969 50.800,27.026 52.240,26.905 54.000 C 26.753 56.212,26.823 57.200,27.130 57.200 C 27.381 57.200,27.463 57.491,27.319 57.866 C 27.138 58.337,27.212 58.440,27.572 58.217 C 27.973 57.970,27.984 58.082,27.626 58.752 C 27.339 59.288,27.320 59.600,27.575 59.600 C 27.832 59.600,27.907 61.015,27.782 63.500 C 27.647 66.183,27.707 67.150,27.975 66.600 C 28.306 65.920,28.365 66.010,28.368 67.200 C 28.370 67.970,28.529 69.447,28.720 70.483 C 28.911 71.518,28.918 72.273,28.734 72.159 C 28.550 72.046,28.400 72.953,28.400 74.176 C 28.400 75.475,28.576 76.400,28.824 76.400 C 29.057 76.400,29.136 76.580,29.000 76.800 C 28.864 77.020,28.933 77.200,29.152 77.200 C 29.403 77.200,29.492 78.729,29.391 81.300 C 29.278 84.148,29.349 85.156,29.620 84.600 C 29.958 83.908,29.991 83.950,29.859 84.910 C 29.776 85.520,29.861 86.114,30.049 86.230 C 30.237 86.346,30.311 88.187,30.214 90.321 C 30.116 92.454,30.175 93.750,30.345 93.200 L 30.652 92.200 30.871 93.300 C 30.991 93.905,30.938 94.400,30.754 94.400 C 30.570 94.400,30.568 94.805,30.750 95.300 C 30.931 95.795,31.020 97.685,30.948 99.500 C 30.831 102.411,30.898 102.801,31.508 102.806 C 32.049 102.811,32.081 102.887,31.657 103.156 C 31.298 103.384,31.258 103.588,31.539 103.762 C 31.805 103.927,31.910 105.385,31.821 107.682 C 31.675 111.453,31.826 112.555,32.437 112.177 C 32.636 112.054,32.720 113.798,32.630 116.181 C 32.542 118.504,32.596 120.326,32.749 120.231 C 33.103 120.013,33.195 120.910,33.289 125.490 C 33.336 127.738,33.503 128.988,33.717 128.690 C 33.946 128.372,34.000 128.515,33.872 129.100 C 33.764 129.594,33.801 130.077,33.954 130.172 C 34.107 130.266,34.199 132.072,34.158 134.185 C 34.103 136.950,34.233 138.176,34.620 138.563 C 34.992 138.934,35.118 139.920,35.029 141.758 C 34.958 143.219,35.058 144.512,35.250 144.631 C 35.443 144.750,35.597 145.062,35.594 145.324 C 35.590 145.610,35.433 145.561,35.200 145.200 C 34.899 144.734,34.811 144.851,34.806 145.724 C 34.803 146.342,34.968 146.744,35.172 146.617 C 35.377 146.491,35.658 146.570,35.796 146.793 C 35.934 147.017,35.850 147.200,35.610 147.200 C 35.306 147.200,35.294 147.429,35.573 147.950 C 35.794 148.362,35.906 150.253,35.822 152.152 C 35.738 154.051,35.811 155.517,35.984 155.410 C 36.351 155.183,36.433 156.072,36.502 161.000 C 36.529 162.980,36.665 164.150,36.803 163.600 C 37.226 161.922,37.548 164.805,37.438 169.280 C 37.385 171.413,37.479 173.075,37.647 172.971 C 38.014 172.744,38.050 173.113,38.134 178.100 C 38.170 180.245,38.297 182.000,38.415 182.000 C 38.720 182.000,38.910 184.105,38.929 187.700 C 38.938 189.405,39.076 190.800,39.235 190.800 C 39.395 190.800,39.424 191.188,39.300 191.663 C 39.175 192.137,39.237 192.424,39.437 192.301 C 39.644 192.173,39.797 193.646,39.794 195.738 C 39.787 199.723,39.950 201.278,40.347 201.033 C 40.487 200.946,40.602 202.523,40.600 204.537 C 40.599 207.295,40.747 208.331,41.199 208.730 C 41.530 209.021,41.575 209.145,41.300 209.006 C 40.978 208.843,40.800 209.054,40.800 209.600 C 40.800 210.066,40.962 210.347,41.160 210.225 C 41.365 210.098,41.483 211.541,41.435 213.578 C 41.388 215.545,41.462 217.085,41.599 217.001 C 41.736 216.916,41.770 217.916,41.676 219.223 C 41.562 220.800,41.653 221.600,41.947 221.600 C 42.191 221.600,42.395 222.005,42.399 222.500 C 42.404 222.995,42.433 223.760,42.465 224.200 C 42.496 224.640,42.473 225.180,42.414 225.400 C 42.117 226.494,42.441 232.022,42.788 231.807 C 43.277 231.505,43.778 233.388,43.380 234.032 C 43.012 234.627,43.152 240.911,43.539 241.194 C 43.694 241.307,43.809 241.883,43.793 242.473 C 43.777 243.063,43.906 243.458,44.079 243.351 C 44.252 243.244,44.277 244.817,44.132 246.846 C 43.907 250.017,43.954 250.503,44.466 250.307 C 45.091 250.067,45.216 251.003,44.675 251.879 C 44.516 252.135,44.582 252.465,44.820 252.613 C 45.114 252.794,45.163 254.043,44.971 256.499 C 44.772 259.040,44.815 260.038,45.117 259.851 C 45.621 259.540,45.725 260.732,45.626 265.700 C 45.580 268.045,45.704 269.200,46.002 269.200 C 46.247 269.200,46.344 269.368,46.217 269.572 C 46.091 269.777,46.160 270.051,46.371 270.182 C 46.592 270.318,46.687 272.071,46.595 274.310 C 46.507 276.461,46.578 277.847,46.754 277.411 C 47.042 276.697,47.092 276.725,47.279 277.699 C 47.417 278.421,47.339 278.689,47.042 278.511 C 46.771 278.349,46.786 278.476,47.079 278.839 C 47.407 279.244,47.503 280.633,47.383 283.216 C 47.282 285.380,47.353 286.772,47.548 286.466 C 47.820 286.040,47.940 286.067,48.144 286.599 C 48.496 287.517,48.466 287.688,48.001 287.401 C 47.738 287.238,47.734 287.499,47.989 288.171 C 48.202 288.730,48.284 290.631,48.171 292.394 C 48.032 294.582,48.107 295.600,48.407 295.600 C 48.649 295.600,48.744 295.768,48.617 295.972 C 48.491 296.177,48.572 296.459,48.798 296.599 C 49.054 296.757,49.141 298.306,49.030 300.709 C 48.916 303.160,48.986 304.353,49.222 303.982 C 49.506 303.536,49.594 303.633,49.599 304.400 C 49.613 306.370,49.953 310.100,50.170 310.665 C 50.293 310.986,50.216 311.133,49.995 310.997 C 49.767 310.856,49.600 311.280,49.600 312.000 C 49.600 312.686,49.768 313.144,49.972 313.017 C 50.177 312.891,50.458 312.970,50.596 313.193 C 50.734 313.417,50.661 313.600,50.434 313.600 C 50.174 313.600,50.142 313.935,50.348 314.500 C 50.528 314.995,50.632 316.750,50.578 318.400 C 50.471 321.664,50.662 322.932,51.208 322.595 C 51.405 322.473,51.484 324.272,51.389 326.689 C 51.276 329.551,51.349 330.798,51.605 330.400 C 51.913 329.923,51.998 330.005,52.023 330.800 C 52.040 331.350,52.101 333.510,52.158 335.600 C 52.287 340.285,52.315 340.500,52.753 340.229 C 52.951 340.107,53.066 341.845,53.014 344.180 C 52.963 346.473,53.086 348.586,53.287 348.875 C 53.529 349.223,53.570 349.063,53.407 348.400 C 53.238 347.711,53.274 347.587,53.522 348.000 C 53.720 348.330,53.856 349.950,53.825 351.600 C 53.793 353.250,53.931 354.825,54.132 355.100 C 54.366 355.420,54.336 355.600,54.049 355.600 C 53.802 355.600,53.603 356.005,53.606 356.500 C 53.611 357.247,53.685 357.298,54.041 356.800 C 54.385 356.318,54.431 356.377,54.272 357.100 C 54.164 357.594,54.234 358.097,54.428 358.217 C 54.622 358.337,54.719 358.965,54.643 359.613 C 54.559 360.335,54.747 360.985,55.130 361.295 C 55.610 361.684,55.685 361.686,55.456 361.305 C 55.254 360.968,55.357 360.885,55.777 361.046 C 56.117 361.177,56.320 361.406,56.227 361.556 C 56.134 361.706,56.406 361.863,56.829 361.905 C 57.253 361.947,57.915 362.010,58.300 362.045 C 58.685 362.080,59.229 362.290,59.510 362.512 C 59.790 362.733,60.126 362.807,60.257 362.676 C 60.388 362.545,60.746 362.689,61.052 362.995 C 61.359 363.302,61.967 363.483,62.405 363.399 C 62.842 363.315,63.200 363.435,63.200 363.666 C 63.200 363.897,63.470 363.982,63.800 363.855 C 64.130 363.729,64.400 363.803,64.400 364.020 C 64.400 364.242,64.839 364.305,65.400 364.164 C 66.056 364.000,66.400 364.081,66.400 364.399 C 66.400 364.674,66.670 364.782,67.021 364.647 C 67.426 364.492,67.542 364.570,67.355 364.873 C 67.161 365.186,67.294 365.249,67.767 365.068 C 68.156 364.919,68.844 365.066,69.322 365.400 C 70.328 366.105,70.962 366.185,70.574 365.559 C 70.424 365.316,70.757 365.415,71.314 365.780 C 71.993 366.226,72.413 366.303,72.591 366.015 C 72.736 365.780,73.042 365.702,73.270 365.843 C 73.539 366.009,73.494 366.233,73.143 366.476 C 72.765 366.738,72.874 366.775,73.501 366.599 C 74.076 366.437,74.634 366.577,75.043 366.986 C 75.418 367.361,76.000 367.527,76.443 367.386 C 76.891 367.244,77.472 367.415,77.861 367.804 C 78.223 368.166,78.852 368.375,79.259 368.269 C 79.666 368.162,80.108 368.250,80.240 368.465 C 80.373 368.679,80.733 368.758,81.040 368.640 C 81.348 368.522,81.600 368.612,81.600 368.840 C 81.600 369.072,81.951 369.142,82.400 369.000 C 83.444 368.669,84.888 369.135,84.543 369.692 C 84.368 369.975,84.575 370.047,85.137 369.900 C 85.612 369.776,86.000 369.838,86.000 370.037 C 86.000 370.237,86.191 370.400,86.424 370.400 C 86.657 370.400,86.733 370.175,86.594 369.900 C 86.455 369.625,86.615 369.738,86.951 370.150 C 87.292 370.569,87.829 370.798,88.168 370.668 C 88.501 370.540,88.876 370.599,89.000 370.800 C 89.124 371.001,89.519 371.052,89.878 370.915 C 90.334 370.740,90.438 370.815,90.222 371.165 C 90.010 371.508,90.147 371.627,90.656 371.543 C 91.065 371.475,91.656 371.580,91.968 371.776 C 92.387 372.038,92.474 371.971,92.301 371.519 C 92.104 371.005,92.217 370.978,93.003 371.348 C 93.632 371.646,93.785 371.888,93.470 372.089 C 93.155 372.289,93.220 372.390,93.667 372.394 C 94.033 372.397,94.424 372.175,94.535 371.900 C 94.658 371.597,94.749 371.670,94.768 372.087 C 94.789 372.529,95.015 372.692,95.400 372.545 C 95.732 372.417,96.000 372.533,96.000 372.804 C 96.000 373.110,96.374 373.222,97.000 373.102 C 97.550 372.997,98.000 373.049,98.000 373.218 C 98.000 373.387,98.388 373.424,98.863 373.300 C 99.406 373.158,99.630 373.229,99.467 373.491 C 99.323 373.725,99.646 373.992,100.205 374.099 C 100.755 374.204,101.200 374.101,101.200 373.868 C 101.200 373.637,101.431 373.762,101.712 374.148 C 102.020 374.569,102.778 374.860,103.612 374.877 C 104.376 374.893,105.225 375.084,105.500 375.302 C 105.841 375.572,106.000 375.548,106.000 375.225 C 106.000 374.965,106.183 374.866,106.407 375.004 C 106.630 375.142,106.720 375.406,106.606 375.590 C 106.492 375.775,106.739 375.836,107.154 375.728 C 107.570 375.619,108.026 375.718,108.168 375.948 C 108.310 376.177,108.719 376.252,109.078 376.115 C 109.548 375.934,109.640 376.012,109.406 376.390 C 109.157 376.793,109.319 376.857,110.095 376.662 C 110.753 376.497,111.277 376.611,111.589 376.987 C 111.905 377.367,112.468 377.486,113.229 377.334 C 114.060 377.168,114.455 377.277,114.625 377.721 C 114.798 378.172,115.219 378.282,116.180 378.126 C 117.017 377.990,117.613 378.097,117.811 378.418 C 118.028 378.768,117.963 378.824,117.600 378.600 C 117.247 378.382,117.173 378.432,117.372 378.754 C 117.534 379.017,118.013 379.123,118.435 378.989 C 118.884 378.846,119.462 379.005,119.830 379.373 C 120.585 380.128,121.198 380.184,121.206 379.500 C 121.210 379.154,121.303 379.136,121.506 379.440 C 122.066 380.278,123.464 380.752,124.772 380.546 C 125.651 380.407,125.997 380.481,125.819 380.769 C 125.549 381.205,126.026 381.351,127.300 381.221 C 127.685 381.182,128.000 381.360,128.000 381.618 C 128.000 381.875,128.270 381.982,128.600 381.855 C 128.930 381.729,129.200 381.799,129.200 382.013 C 129.200 382.226,129.391 382.400,129.624 382.400 C 129.857 382.400,129.925 382.202,129.775 381.960 C 129.614 381.699,129.889 381.734,130.452 382.045 C 130.973 382.334,131.535 382.532,131.700 382.485 C 131.865 382.438,132.000 382.580,132.000 382.800 C 132.000 383.020,132.191 383.200,132.424 383.200 C 132.660 383.200,132.711 382.979,132.539 382.700 C 132.370 382.425,132.741 382.534,133.365 382.941 C 134.093 383.418,134.399 383.489,134.220 383.141 C 134.066 382.844,134.194 382.909,134.504 383.286 C 134.877 383.740,135.429 383.905,136.142 383.776 C 136.889 383.641,137.293 383.777,137.464 384.223 C 137.613 384.610,138.005 384.787,138.455 384.670 C 138.864 384.563,139.308 384.650,139.440 384.865 C 139.573 385.079,139.942 385.154,140.261 385.032 C 140.626 384.892,140.737 384.978,140.561 385.263 C 140.365 385.580,140.600 385.637,141.340 385.451 C 141.996 385.286,142.400 385.349,142.400 385.616 C 142.400 385.853,142.580 385.936,142.800 385.800 C 143.020 385.664,143.200 385.763,143.200 386.020 C 143.200 386.318,143.561 386.396,144.200 386.236 C 144.807 386.083,145.200 386.156,145.200 386.419 C 145.200 386.680,145.539 386.746,146.050 386.584 C 146.660 386.390,146.816 386.451,146.600 386.800 C 146.384 387.149,146.540 387.210,147.150 387.016 C 147.687 386.845,148.000 386.919,148.000 387.216 C 148.000 387.474,148.270 387.582,148.600 387.455 C 148.930 387.329,149.200 387.420,149.200 387.659 C 149.200 387.898,149.560 387.999,150.000 387.884 C 150.440 387.769,150.800 387.832,150.800 388.025 C 150.800 388.217,151.070 388.271,151.400 388.145 C 151.732 388.017,152.000 388.133,152.000 388.404 C 152.000 388.710,152.374 388.822,153.000 388.702 C 153.580 388.591,154.003 388.698,154.006 388.955 C 154.011 389.281,154.091 389.281,154.306 388.955 C 154.485 388.684,154.913 388.633,155.400 388.826 L 156.200 389.144 155.400 389.219 C 154.846 389.271,154.968 389.381,155.800 389.575 C 156.460 389.729,157.225 389.685,157.500 389.478 C 157.974 389.122,158.173 389.374,158.031 390.150 C 157.996 390.342,158.424 390.412,158.983 390.305 C 159.543 390.198,160.000 390.285,160.000 390.498 C 160.000 390.711,160.270 390.782,160.600 390.655 C 160.930 390.529,161.200 390.619,161.200 390.855 C 161.200 391.092,161.448 391.190,161.751 391.074 C 162.054 390.958,162.504 391.064,162.751 391.311 C 162.998 391.558,163.200 391.629,163.200 391.470 C 163.200 391.310,163.731 391.454,164.380 391.790 C 165.712 392.479,166.145 392.558,165.836 392.058 C 165.719 391.870,166.069 391.801,166.612 391.904 C 167.155 392.008,167.600 392.263,167.600 392.470 C 167.600 392.678,167.780 392.736,168.000 392.600 C 168.220 392.464,168.400 392.518,168.400 392.721 C 168.400 392.923,168.850 393.003,169.400 392.898 C 170.008 392.782,170.400 392.891,170.400 393.177 C 170.400 393.436,170.580 393.536,170.800 393.400 C 171.020 393.264,171.200 393.325,171.200 393.537 C 171.200 393.748,171.750 393.882,172.422 393.836 C 173.178 393.783,173.786 393.990,174.015 394.376 C 174.310 394.873,174.455 394.894,174.728 394.481 C 175.003 394.065,175.172 394.084,175.581 394.577 C 175.861 394.915,176.250 395.093,176.445 394.972 C 176.640 394.851,176.800 394.956,176.800 395.203 C 176.800 395.472,177.123 395.551,177.600 395.400 C 178.625 395.075,180.090 395.531,179.756 396.072 C 179.597 396.329,179.791 396.393,180.271 396.241 C 180.695 396.106,181.393 396.261,181.821 396.585 C 182.249 396.909,182.780 397.178,183.000 397.181 C 183.220 397.185,183.130 397.013,182.800 396.800 C 182.470 396.587,182.391 396.409,182.624 396.406 C 182.856 396.403,183.389 396.650,183.807 396.956 C 184.225 397.261,184.829 397.410,185.149 397.288 C 185.525 397.143,185.628 397.231,185.441 397.534 C 185.231 397.874,185.544 397.941,186.578 397.777 C 187.631 397.609,188.066 397.707,188.236 398.150 C 188.366 398.488,188.730 398.648,189.073 398.516 C 189.407 398.388,189.840 398.535,190.034 398.842 C 190.275 399.221,190.390 399.244,190.394 398.913 C 190.397 398.644,190.669 398.528,190.998 398.654 C 191.326 398.781,191.491 399.052,191.364 399.258 C 191.229 399.477,191.562 399.524,192.166 399.373 C 192.791 399.216,193.200 399.281,193.200 399.537 C 193.200 399.818,195.421 399.960,199.810 399.958 C 204.448 399.956,206.340 399.826,206.152 399.522 C 205.968 399.224,206.340 399.175,207.347 399.364 C 208.493 399.579,208.864 399.499,209.057 398.996 C 209.192 398.643,209.538 398.444,209.826 398.555 C 210.113 398.665,210.436 398.540,210.543 398.278 C 210.687 397.923,210.745 397.928,210.768 398.300 C 210.786 398.575,210.980 398.800,211.200 398.800 C 211.420 398.800,211.555 398.575,211.500 398.300 C 211.445 398.025,211.760 397.793,212.200 397.785 C 212.641 397.777,213.254 397.614,213.562 397.423 C 213.946 397.186,214.033 397.223,213.838 397.538 C 213.445 398.175,214.041 398.095,214.979 397.385 C 215.407 397.061,216.105 396.906,216.529 397.041 C 217.009 397.193,217.203 397.129,217.044 396.872 C 216.710 396.330,218.175 395.875,219.202 396.201 C 219.747 396.374,220.086 396.242,220.260 395.789 C 220.448 395.299,220.817 395.183,221.658 395.352 C 222.501 395.520,222.800 395.426,222.800 394.990 C 222.800 394.666,222.991 394.400,223.224 394.400 C 223.457 394.400,223.556 394.547,223.445 394.728 C 223.333 394.908,223.773 394.977,224.421 394.882 C 225.070 394.787,225.600 394.588,225.600 394.440 C 225.600 394.201,226.279 394.044,227.900 393.909 C 228.175 393.886,228.400 393.755,228.400 393.618 C 228.400 393.399,229.106 393.242,230.700 393.109 C 230.975 393.086,231.200 392.906,231.200 392.710 C 231.200 392.513,231.368 392.456,231.572 392.583 C 231.777 392.709,232.067 392.616,232.216 392.374 C 232.365 392.133,232.918 392.043,233.444 392.175 C 234.009 392.317,234.400 392.239,234.400 391.984 C 234.400 391.747,234.192 391.681,233.938 391.838 C 233.645 392.019,233.585 391.947,233.774 391.642 C 234.002 391.274,234.203 391.271,234.636 391.630 C 235.003 391.934,235.200 391.950,235.200 391.675 C 235.200 391.443,235.650 391.335,236.200 391.434 C 236.957 391.572,237.201 391.444,237.206 390.908 C 237.211 390.303,237.270 390.288,237.606 390.800 C 237.937 391.303,238.057 391.311,238.355 390.849 C 238.551 390.546,238.911 390.421,239.155 390.572 C 239.417 390.734,239.600 390.558,239.600 390.144 C 239.600 389.596,239.707 389.547,240.080 389.920 C 240.698 390.538,241.741 390.552,241.361 389.937 C 241.165 389.620,241.347 389.545,241.938 389.700 C 242.413 389.824,242.702 389.765,242.581 389.569 C 242.459 389.373,242.954 389.303,243.680 389.414 C 244.717 389.572,244.828 389.534,244.200 389.236 C 243.286 388.802,244.304 388.594,246.500 388.765 C 247.105 388.813,247.600 388.665,247.600 388.438 C 247.600 388.211,247.870 388.129,248.200 388.255 C 248.530 388.382,248.800 388.303,248.800 388.080 C 248.800 387.857,249.160 387.769,249.600 387.884 C 250.040 387.999,250.400 387.898,250.400 387.659 C 250.400 387.420,250.670 387.329,251.000 387.455 C 251.330 387.582,251.600 387.483,251.600 387.235 C 251.600 386.952,252.009 386.874,252.700 387.025 C 253.446 387.188,253.628 387.144,253.266 386.888 C 252.833 386.582,252.852 386.466,253.366 386.268 C 253.715 386.135,254.000 386.221,254.000 386.462 C 254.000 386.772,254.155 386.770,254.537 386.452 C 254.832 386.207,255.167 386.100,255.281 386.215 C 255.396 386.329,256.009 386.209,256.645 385.949 C 257.280 385.688,258.135 385.518,258.544 385.570 C 259.050 385.635,259.188 385.505,258.978 385.165 C 258.761 384.813,258.867 384.740,259.334 384.919 C 259.701 385.060,260.000 384.982,260.000 384.744 C 260.000 384.489,260.392 384.412,260.958 384.554 C 261.581 384.710,261.990 384.602,262.127 384.246 C 262.261 383.898,262.787 383.750,263.569 383.841 C 264.246 383.920,264.800 383.838,264.800 383.659 C 264.800 383.480,265.025 383.311,265.300 383.284 C 267.916 383.024,268.500 382.885,268.762 382.461 C 268.928 382.193,269.341 382.079,269.680 382.209 C 270.019 382.340,270.589 382.154,270.945 381.798 C 271.302 381.441,271.775 381.261,271.997 381.398 C 272.219 381.535,272.400 381.457,272.400 381.224 C 272.400 380.991,272.715 380.803,273.100 380.806 C 273.698 380.811,273.713 380.869,273.200 381.200 C 272.870 381.413,272.747 381.591,272.926 381.594 C 273.437 381.603,274.968 380.728,275.294 380.240 C 275.497 379.936,275.590 379.954,275.594 380.300 C 275.597 380.575,275.799 380.800,276.043 380.800 C 276.289 380.800,276.374 380.509,276.234 380.143 C 276.023 379.594,276.082 379.570,276.591 379.992 C 277.066 380.387,277.200 380.390,277.200 380.006 C 277.200 379.679,277.540 379.599,278.209 379.766 C 278.934 379.948,279.288 379.837,279.466 379.371 C 279.647 378.900,280.026 378.785,280.858 378.952 C 281.525 379.085,282.000 379.008,282.000 378.766 C 282.000 378.539,282.168 378.456,282.372 378.583 C 282.577 378.709,282.853 378.638,282.985 378.424 C 283.117 378.210,283.492 378.137,283.818 378.262 C 284.144 378.387,284.705 378.244,285.066 377.945 C 285.427 377.645,286.190 377.360,286.761 377.311 C 288.897 377.129,290.384 376.698,290.156 376.328 C 290.026 376.118,290.163 375.987,290.460 376.036 C 290.757 376.086,291.323 375.986,291.717 375.814 C 292.112 375.642,292.540 375.606,292.668 375.735 C 292.796 375.863,293.407 375.707,294.025 375.387 C 294.644 375.067,295.462 374.926,295.844 375.072 C 296.356 375.269,296.478 375.180,296.308 374.736 C 296.171 374.381,296.300 374.133,296.621 374.133 C 296.920 374.133,297.072 374.283,296.959 374.467 C 296.845 374.650,296.943 374.800,297.176 374.800 C 297.409 374.800,297.600 374.626,297.600 374.413 C 297.600 374.199,297.870 374.129,298.200 374.255 C 298.530 374.382,298.800 374.303,298.800 374.080 C 298.800 373.857,299.183 373.775,299.651 373.897 C 300.215 374.045,300.634 373.882,300.897 373.412 C 301.219 372.836,301.358 372.807,301.641 373.252 C 301.856 373.592,301.990 373.624,301.994 373.337 C 301.997 373.083,302.328 372.961,302.728 373.065 C 303.128 373.170,303.684 372.981,303.963 372.645 C 304.306 372.231,304.849 372.110,305.642 372.268 C 306.665 372.473,306.778 372.407,306.532 371.751 C 306.294 371.116,306.345 371.077,306.862 371.497 C 307.198 371.770,307.588 371.878,307.729 371.738 C 307.869 371.598,308.566 371.437,309.279 371.381 C 309.991 371.325,310.631 371.108,310.701 370.898 C 310.771 370.688,311.272 370.601,311.814 370.705 C 312.576 370.850,312.801 370.724,312.806 370.147 C 312.811 369.575,312.893 369.527,313.156 369.943 C 313.385 370.303,313.588 370.343,313.763 370.060 C 313.907 369.826,314.288 369.736,314.609 369.859 C 314.942 369.987,315.305 369.793,315.452 369.408 C 315.658 368.871,315.780 368.842,316.050 369.266 C 316.310 369.677,316.389 369.683,316.394 369.292 C 316.398 368.951,316.728 368.867,317.400 369.036 C 318.075 369.205,318.400 369.121,318.400 368.777 C 318.400 368.496,318.511 368.378,318.648 368.514 C 318.784 368.650,319.181 368.476,319.530 368.127 C 319.950 367.708,320.215 367.646,320.315 367.946 C 320.399 368.196,320.642 368.400,320.857 368.400 C 321.072 368.400,321.117 368.189,320.958 367.932 C 320.764 367.617,320.887 367.548,321.334 367.719 C 321.700 367.860,322.000 367.812,322.000 367.614 C 322.000 367.415,322.450 367.335,323.000 367.434 C 323.550 367.534,324.000 367.462,324.000 367.274 C 324.000 366.952,324.212 366.892,325.900 366.735 C 326.285 366.699,326.838 366.384,327.130 366.035 C 327.421 365.686,327.545 365.625,327.406 365.900 C 327.267 366.175,327.343 366.400,327.576 366.400 C 327.809 366.400,328.000 366.208,328.000 365.973 C 328.000 365.728,328.341 365.654,328.800 365.800 C 329.399 365.990,329.602 365.871,329.606 365.327 C 329.611 364.711,329.672 364.692,330.000 365.200 C 330.305 365.673,330.389 365.683,330.394 365.250 C 330.398 364.851,330.735 364.767,331.620 364.944 C 332.487 365.117,332.757 365.055,332.554 364.726 C 332.365 364.420,332.489 364.349,332.923 364.515 C 333.283 364.653,333.852 364.491,334.188 364.154 C 334.654 363.688,334.801 363.669,334.806 364.071 C 334.810 364.393,334.927 364.444,335.106 364.200 C 335.446 363.737,336.140 363.529,337.738 363.409 C 338.364 363.362,339.017 363.097,339.188 362.819 C 339.385 362.501,339.832 362.420,340.400 362.600 C 340.981 362.784,341.210 362.739,341.044 362.472 C 340.715 361.938,342.169 361.473,343.170 361.791 C 343.678 361.952,344.077 361.791,344.342 361.318 C 344.563 360.923,344.868 360.690,345.019 360.800 C 345.266 360.979,345.600 358.967,345.635 357.091 C 345.642 356.702,345.778 356.463,345.937 356.561 C 346.096 356.659,346.202 354.998,346.173 352.870 C 346.139 350.452,346.283 348.894,346.556 348.717 C 346.817 348.547,347.025 346.771,347.072 344.317 C 347.175 338.922,347.192 338.748,347.580 338.987 C 347.762 339.100,347.847 337.491,347.769 335.412 C 347.678 332.999,347.782 331.535,348.056 331.366 C 348.345 331.187,348.308 330.988,347.943 330.756 C 347.520 330.488,347.555 330.411,348.100 330.406 C 348.932 330.399,349.062 328.843,348.300 328.021 C 347.993 327.690,347.977 327.582,348.260 327.740 C 348.593 327.927,348.679 327.257,348.570 325.317 C 348.468 323.500,348.576 322.538,348.906 322.335 C 349.345 322.063,349.468 320.391,349.618 312.600 C 349.638 311.565,349.690 311.510,349.991 312.200 C 350.209 312.700,350.268 311.794,350.149 309.781 C 350.042 307.991,350.144 306.073,350.378 305.459 C 350.645 304.754,350.653 304.444,350.399 304.601 C 350.179 304.736,350.000 304.657,350.000 304.424 C 350.000 304.191,350.259 304.000,350.576 304.000 C 351.046 304.000,351.122 303.332,350.993 300.343 C 350.874 297.584,350.978 296.481,351.417 295.854 C 352.092 294.891,352.200 292.800,351.576 292.800 C 351.343 292.800,351.274 292.603,351.423 292.363 C 351.572 292.122,351.683 291.205,351.671 290.324 C 351.659 289.444,351.800 288.326,351.985 287.840 C 352.177 287.335,352.158 286.668,351.940 286.279 C 351.698 285.847,351.701 285.600,351.947 285.600 C 352.159 285.600,352.424 285.825,352.535 286.100 C 352.646 286.375,352.751 286.015,352.768 285.300 C 352.786 284.585,352.639 284.000,352.442 284.000 C 352.235 284.000,352.227 283.368,352.424 282.500 C 352.610 281.675,352.666 280.612,352.548 280.138 C 352.429 279.663,352.632 278.818,352.999 278.258 C 353.546 277.423,353.624 276.600,353.434 273.643 C 353.307 271.665,353.358 269.950,353.548 269.832 C 353.737 269.715,353.824 269.120,353.741 268.510 C 353.610 267.551,353.642 267.509,353.979 268.200 C 354.251 268.758,354.324 267.821,354.222 265.100 C 354.129 262.638,354.225 261.200,354.481 261.200 C 354.703 261.200,354.782 260.930,354.655 260.600 C 354.529 260.270,354.623 260.000,354.864 260.000 C 355.172 260.000,355.219 258.809,355.019 256.000 C 354.847 253.565,354.883 252.000,355.112 252.000 C 355.320 252.000,355.398 251.523,355.287 250.941 C 355.143 250.191,355.222 249.967,355.558 250.174 C 355.911 250.392,356.027 249.417,356.017 246.333 C 355.993 239.490,355.976 239.732,356.422 240.400 C 356.703 240.822,356.801 240.099,356.751 237.959 C 356.712 236.286,356.785 234.747,356.914 234.539 C 357.042 234.332,356.982 233.900,356.780 233.581 C 356.254 232.749,356.316 231.983,356.900 232.100 C 357.624 232.245,357.818 226.549,357.118 225.688 C 356.675 225.143,356.702 225.088,357.300 225.313 C 357.836 225.513,357.999 225.367,357.994 224.687 C 357.989 223.968,357.914 223.913,357.600 224.400 C 357.266 224.917,357.211 224.907,357.206 224.324 C 357.203 223.952,357.374 223.540,357.587 223.408 C 357.800 223.277,357.875 222.591,357.753 221.884 C 357.580 220.878,357.629 220.730,357.980 221.200 C 358.325 221.663,358.408 221.292,358.344 219.574 C 358.298 218.350,358.410 217.107,358.592 216.812 C 358.828 216.431,358.772 216.370,358.399 216.601 C 357.996 216.850,357.942 216.702,358.169 215.963 C 358.331 215.433,358.473 213.965,358.484 212.700 C 358.495 211.435,358.685 210.400,358.905 210.400 C 359.139 210.400,359.210 209.816,359.076 208.991 C 358.950 208.216,358.972 207.659,359.124 207.753 C 359.276 207.847,359.380 206.836,359.355 205.507 C 359.330 204.178,359.469 202.440,359.665 201.645 C 359.961 200.443,360.209 197.567,360.552 191.338 C 360.579 190.864,360.735 190.560,360.900 190.662 C 361.334 190.930,361.268 190.075,360.786 189.174 C 360.558 188.748,360.521 188.400,360.703 188.400 C 360.886 188.400,361.066 187.185,361.104 185.700 C 361.202 181.840,361.269 181.195,361.550 181.369 C 361.688 181.454,361.766 180.236,361.725 178.662 C 361.685 177.088,361.889 174.990,362.180 174.000 C 362.490 172.946,362.679 170.594,362.636 168.327 C 362.588 165.839,362.709 164.480,362.975 164.527 C 363.236 164.573,363.397 163.124,363.411 160.597 C 363.423 158.395,363.606 156.325,363.817 155.997 C 364.028 155.668,364.231 153.780,364.269 151.800 C 364.352 147.471,364.433 146.800,364.867 146.800 C 365.050 146.800,365.187 146.305,365.172 145.700 C 365.146 144.705,365.108 144.676,364.764 145.400 C 364.446 146.069,364.426 146.037,364.645 145.200 C 364.788 144.650,364.899 143.030,364.892 141.600 C 364.883 140.054,365.065 138.884,365.339 138.715 C 365.637 138.530,365.806 136.973,365.816 134.313 C 365.825 132.048,365.987 129.944,366.178 129.636 C 366.430 129.228,366.371 129.155,365.962 129.368 C 365.620 129.545,365.647 129.452,366.032 129.130 C 366.507 128.731,366.678 127.757,366.721 125.200 C 366.792 120.954,366.895 120.011,367.263 120.239 C 367.423 120.338,367.477 118.660,367.382 116.509 C 367.207 112.526,367.388 111.022,367.999 111.399 C 368.187 111.515,368.274 109.949,368.193 107.919 C 368.094 105.451,368.203 104.032,368.523 103.637 C 368.910 103.157,368.887 103.104,368.400 103.353 C 368.016 103.549,368.045 103.458,368.479 103.101 C 369.047 102.634,369.140 101.912,369.050 98.672 C 368.991 96.542,369.094 94.800,369.279 94.800 C 369.464 94.800,369.507 94.305,369.375 93.700 C 369.189 92.847,369.232 92.735,369.567 93.200 C 369.882 93.638,369.950 92.644,369.818 89.512 C 369.698 86.628,369.784 85.134,370.081 84.950 C 370.367 84.773,370.409 84.862,370.200 85.200 C 369.981 85.554,370.032 85.627,370.357 85.426 C 370.701 85.214,370.783 84.003,370.643 81.165 C 370.520 78.662,370.596 77.200,370.848 77.200 C 371.067 77.200,371.136 77.020,371.000 76.800 C 370.864 76.580,370.955 76.400,371.203 76.400 C 371.510 76.400,371.629 75.164,371.580 72.500 C 371.471 66.649,371.549 65.620,372.025 66.600 C 372.293 67.150,372.353 66.183,372.218 63.500 C 372.093 61.015,372.168 59.600,372.425 59.600 C 372.680 59.600,372.661 59.288,372.374 58.752 C 372.016 58.082,372.027 57.970,372.428 58.217 C 372.788 58.440,372.862 58.337,372.681 57.866 C 372.540 57.500,372.599 57.200,372.813 57.200 C 373.341 57.200,373.306 52.666,372.774 52.134 C 372.473 51.833,372.521 51.536,372.936 51.121 C 373.554 50.503,373.655 48.320,373.048 48.694 C 372.855 48.814,372.787 48.661,372.898 48.356 C 373.009 48.050,373.316 47.850,373.581 47.910 C 373.933 47.991,374.026 47.159,373.931 44.809 C 373.851 42.850,373.956 41.596,374.200 41.593 C 374.420 41.590,374.358 41.434,374.062 41.247 C 373.617 40.965,373.630 40.703,374.139 39.719 C 374.732 38.571,374.805 37.666,375.390 24.200 C 375.583 19.750,375.769 17.911,376.080 17.366 C 376.556 16.533,376.777 14.833,376.437 14.623 C 376.069 14.395,376.087 13.904,376.507 12.800 C 376.935 11.676,377.125 7.201,376.756 6.973 C 376.553 6.847,376.502 6.558,376.643 6.330 C 376.814 6.054,376.984 6.050,377.150 6.317 C 377.288 6.538,377.420 5.208,377.445 3.360 L 377.489 0.000 200.000 -0.000 L 22.511 -0.000 22.555 3.360 M343.728 33.200 C 343.688 35.290,343.463 39.025,343.228 41.500 C 342.557 48.561,339.389 83.953,335.592 126.800 C 335.368 129.330,335.016 133.290,334.810 135.600 C 334.604 137.910,334.245 141.960,334.012 144.600 C 333.779 147.240,333.417 151.200,333.209 153.400 C 332.614 159.675,332.035 166.163,331.585 171.600 C 331.357 174.350,330.993 178.490,330.776 180.800 C 330.559 183.110,329.848 191.030,329.197 198.400 C 328.546 205.770,327.838 213.690,327.624 216.000 C 327.410 218.310,327.044 222.360,326.809 225.000 C 326.574 227.640,326.213 231.690,326.006 234.000 C 325.125 243.848,324.699 248.634,323.387 263.400 C 322.626 271.980,321.197 287.910,320.214 298.800 C 318.531 317.429,317.970 323.817,317.236 332.715 C 316.828 337.660,320.446 336.135,287.600 345.210 C 276.767 348.203,265.049 351.463,263.400 351.943 C 260.332 352.835,258.513 353.342,251.800 355.173 C 244.653 357.122,221.276 363.601,209.000 367.035 C 205.480 368.019,202.060 368.864,201.400 368.912 L 200.200 369.000 200.000 346.800 L 199.800 324.600 197.400 323.886 C 196.080 323.493,194.280 322.977,193.400 322.739 C 192.520 322.502,191.350 322.166,190.800 321.994 C 190.250 321.822,188.270 321.277,186.400 320.784 C 184.530 320.292,181.830 319.545,180.400 319.126 C 178.970 318.707,177.170 318.190,176.400 317.978 C 173.883 317.283,147.457 309.969,145.200 309.342 C 143.990 309.006,142.460 308.583,141.800 308.401 C 141.140 308.220,139.250 307.696,137.600 307.236 C 131.861 305.635,128.593 304.726,127.400 304.400 C 126.740 304.220,124.850 303.696,123.200 303.236 C 116.933 301.488,114.124 300.722,111.800 300.128 C 108.771 299.354,108.516 299.008,108.216 295.266 C 107.966 292.137,107.560 287.638,106.821 279.800 C 103.660 246.277,102.336 229.559,102.798 229.002 C 103.232 228.479,106.206 228.400,125.435 228.400 C 151.246 228.400,148.238 227.626,148.822 234.416 C 149.030 236.827,149.386 240.825,149.613 243.300 C 149.840 245.775,150.196 249.870,150.405 252.400 C 151.435 264.879,151.029 263.684,154.552 264.609 C 155.789 264.934,157.745 265.458,158.900 265.773 C 160.055 266.088,162.440 266.725,164.200 267.188 C 170.092 268.740,194.169 275.270,196.791 276.028 C 198.217 276.440,199.523 276.637,199.694 276.466 C 199.865 276.295,199.959 260.865,199.902 242.178 L 199.800 208.200 150.639 208.098 C 117.700 208.030,101.315 207.861,100.983 207.586 C 100.266 206.991,100.202 206.460,98.777 189.200 C 98.413 184.782,98.157 181.896,97.198 171.400 C 96.957 168.760,96.588 164.665,96.380 162.300 C 96.020 158.232,95.720 154.905,94.808 144.900 C 94.593 142.535,94.233 138.530,94.008 136.000 C 93.784 133.470,93.428 129.510,93.218 127.200 C 92.629 120.724,92.054 114.254,91.618 109.200 C 90.677 98.297,89.760 88.155,89.000 80.247 C 88.543 75.490,88.504 73.757,88.844 73.347 C 89.224 72.889,98.309 72.800,144.649 72.800 L 200.000 72.800 200.000 51.267 C 200.000 39.423,200.120 29.613,200.268 29.466 C 200.415 29.318,232.770 29.243,272.168 29.299 L 343.800 29.400 343.728 33.200 M138.769 118.564 C 138.587 118.746,138.888 123.461,139.551 130.800 C 139.780 133.330,140.154 137.560,140.382 140.200 C 140.610 142.840,140.975 146.890,141.194 149.200 C 141.413 151.510,141.695 154.930,141.821 156.800 C 141.947 158.670,142.133 160.605,142.233 161.100 L 142.415 162.000 171.211 162.000 L 200.007 162.000 199.903 140.300 L 199.800 118.600 169.369 118.498 C 152.632 118.441,138.862 118.471,138.769 118.564 M352.796 277.888 C 352.364 278.562,352.352 278.561,352.570 277.867 C 352.696 277.464,352.825 276.744,352.854 276.267 C 352.909 275.401,352.909 275.401,353.081 276.288 C 353.175 276.777,353.047 277.497,352.796 277.888 " stroke="none" fill="#e44c24" fill-rule="evenodd"></path><path id="path3" d="M89.216 73.781 C 88.951 74.100,88.833 74.685,88.955 75.081 C 89.076 75.476,89.360 78.050,89.585 80.800 C 89.810 83.550,90.176 87.780,90.400 90.200 C 90.623 92.620,90.981 96.670,91.195 99.200 C 91.410 101.730,91.851 106.680,92.176 110.200 C 92.501 113.720,93.137 120.830,93.590 126.000 C 94.043 131.170,94.584 137.200,94.791 139.400 C 94.999 141.600,95.360 145.560,95.593 148.200 C 95.826 150.840,96.186 154.890,96.394 157.200 C 96.601 159.510,96.963 163.650,97.198 166.400 C 97.432 169.150,97.796 173.200,98.006 175.400 C 98.404 179.566,98.677 182.596,100.004 197.600 C 100.656 204.972,100.922 206.690,101.476 207.100 C 102.012 207.496,117.880 207.600,177.653 207.600 C 227.417 207.600,253.237 207.736,253.399 207.999 C 253.535 208.218,253.457 210.153,253.226 212.299 C 252.995 214.445,252.264 222.410,251.600 230.000 C 250.936 237.590,250.222 245.510,250.013 247.600 C 249.804 249.690,249.411 254.055,249.140 257.300 C 248.535 264.545,249.113 263.785,242.961 265.423 C 237.760 266.808,231.967 268.378,224.600 270.400 C 222.400 271.004,219.070 271.899,217.200 272.390 C 215.330 272.880,213.350 273.424,212.800 273.600 C 212.250 273.776,210.270 274.319,208.400 274.808 C 206.530 275.297,203.755 276.052,202.234 276.485 L 199.467 277.273 196.234 276.388 C 194.455 275.901,191.830 275.172,190.400 274.768 C 188.970 274.364,186.810 273.774,185.600 273.456 C 169.911 269.334,151.704 264.238,151.347 263.869 C 151.080 263.592,150.284 256.531,149.402 246.600 C 148.581 237.360,147.728 229.575,147.506 229.300 C 146.903 228.554,103.886 228.573,103.267 229.320 C 102.847 229.825,102.931 231.054,104.795 251.800 C 105.032 254.440,105.395 258.400,105.601 260.600 C 105.806 262.800,106.167 266.850,106.402 269.600 C 106.903 275.466,107.486 281.885,108.000 287.200 C 108.202 289.290,108.485 292.569,108.630 294.487 C 108.977 299.102,108.333 298.691,120.400 301.991 C 126.230 303.585,133.430 305.580,136.400 306.424 C 139.370 307.268,142.790 308.219,144.000 308.536 C 145.906 309.036,166.163 314.649,186.000 320.172 C 189.410 321.122,194.000 322.390,196.200 322.989 L 200.200 324.080 210.600 321.218 C 216.320 319.645,222.260 318.007,223.800 317.580 C 227.663 316.509,240.691 312.881,242.400 312.401 C 243.170 312.185,246.410 311.284,249.600 310.400 C 252.790 309.516,256.030 308.613,256.800 308.395 C 258.441 307.928,267.366 305.471,280.000 302.006 C 284.950 300.649,289.378 299.388,289.841 299.205 C 290.798 298.825,291.018 297.746,291.632 290.400 C 292.222 283.336,292.931 275.398,293.973 264.200 C 294.433 259.256,294.704 256.253,295.201 250.600 C 295.612 245.931,296.150 239.950,296.792 232.900 C 297.781 222.039,298.118 218.288,299.607 201.600 C 300.481 191.810,301.569 179.727,302.025 174.749 C 302.481 169.771,302.797 165.001,302.727 164.149 L 302.600 162.600 222.307 162.499 L 142.015 162.398 141.834 161.499 C 141.735 161.005,141.452 158.080,141.205 155.000 C 140.958 151.920,140.592 147.690,140.392 145.600 C 140.192 143.510,139.842 139.685,139.614 137.100 C 139.386 134.515,139.017 130.375,138.794 127.900 C 138.570 125.425,138.345 122.230,138.294 120.800 L 138.200 118.200 221.806 118.364 C 282.925 118.484,305.637 118.408,306.248 118.081 C 306.952 117.705,307.126 117.113,307.356 114.317 C 307.731 109.756,308.276 103.514,308.798 97.800 C 309.786 86.985,309.982 84.777,310.388 79.882 C 310.621 77.067,310.831 74.637,310.853 74.482 C 310.876 74.327,310.873 73.975,310.847 73.700 C 310.771 72.893,89.886 72.973,89.216 73.781 M310.084 76.400 C 310.021 77.830,309.802 80.620,309.599 82.600 C 309.395 84.580,309.031 88.540,308.789 91.400 C 308.547 94.260,308.188 98.220,307.990 100.200 C 307.792 102.180,307.412 106.500,307.147 109.800 C 306.882 113.100,306.520 116.205,306.342 116.700 L 306.020 117.600 221.853 117.600 C 151.431 117.600,137.652 117.688,137.478 118.142 C 137.363 118.440,137.424 120.105,137.611 121.842 C 137.799 123.579,138.152 127.340,138.395 130.200 C 138.638 133.060,139.000 137.110,139.199 139.200 C 139.398 141.290,139.755 145.250,139.993 148.000 C 140.687 156.020,141.219 161.332,141.424 162.300 L 141.615 163.200 221.784 163.200 C 265.877 163.200,302.047 163.353,302.163 163.540 C 302.278 163.727,302.212 165.482,302.016 167.440 C 301.819 169.398,301.462 173.250,301.221 176.000 C 300.451 184.796,299.978 190.097,299.597 194.200 C 299.392 196.400,299.034 200.450,298.800 203.200 C 298.566 205.950,298.201 210.000,297.989 212.200 C 297.777 214.400,296.886 224.390,296.009 234.400 C 295.132 244.410,294.239 254.490,294.025 256.800 C 293.811 259.110,293.444 263.160,293.209 265.800 C 292.975 268.440,292.611 272.490,292.400 274.800 C 292.189 277.110,291.837 281.070,291.617 283.600 C 290.645 294.766,290.253 298.023,289.841 298.359 C 289.598 298.556,282.470 300.634,274.000 302.976 C 260.081 306.826,248.143 310.142,244.400 311.197 C 241.775 311.938,231.815 314.699,224.200 316.797 C 220.020 317.949,213.131 319.861,208.892 321.046 C 201.169 323.204,199.232 323.510,197.519 322.842 C 197.013 322.645,195.880 322.285,195.000 322.043 C 194.120 321.801,190.520 320.802,187.000 319.823 C 183.480 318.844,173.400 316.057,164.600 313.628 C 155.800 311.199,147.970 309.029,147.200 308.807 C 145.742 308.385,135.351 305.485,123.000 302.053 C 119.040 300.952,114.630 299.745,113.200 299.369 C 109.320 298.349,109.664 299.352,108.413 285.400 C 108.177 282.760,107.813 278.710,107.606 276.400 C 107.399 274.090,107.034 269.950,106.795 267.200 C 106.557 264.450,106.198 260.490,105.997 258.400 C 105.796 256.310,105.436 252.260,105.197 249.400 C 104.958 246.540,104.598 242.670,104.398 240.800 C 104.198 238.930,103.920 235.645,103.780 233.500 L 103.525 229.600 125.345 229.600 L 147.164 229.600 147.370 230.900 C 147.483 231.615,148.037 237.600,148.602 244.200 C 149.816 258.392,150.314 263.312,150.618 264.103 C 150.827 264.647,156.030 266.159,175.200 271.250 C 178.390 272.097,181.540 272.950,182.200 273.147 C 182.860 273.343,184.930 273.908,186.800 274.403 C 188.670 274.897,192.027 275.819,194.260 276.451 C 199.463 277.924,199.046 277.950,207.875 275.578 C 212.014 274.465,216.750 273.192,218.400 272.749 C 220.050 272.306,225.360 270.870,230.200 269.559 C 235.040 268.247,241.070 266.614,243.600 265.929 C 246.130 265.244,248.401 264.528,248.647 264.337 C 249.085 263.997,249.563 260.244,250.399 250.600 C 250.858 245.310,250.903 244.797,251.780 235.000 C 252.657 225.212,253.179 219.546,253.616 215.084 C 253.827 212.931,254.000 210.276,254.000 209.184 L 254.000 207.200 233.700 207.142 C 222.535 207.110,188.201 206.975,157.403 206.842 L 101.405 206.600 100.538 196.800 C 100.062 191.410,99.468 184.660,99.220 181.800 C 98.971 178.940,98.594 174.800,98.381 172.600 C 98.169 170.400,97.633 164.370,97.191 159.200 C 96.748 154.030,96.216 148.000,96.009 145.800 C 95.801 143.600,95.437 139.640,95.200 137.000 C 94.963 134.360,94.601 130.400,94.397 128.200 C 94.192 126.000,93.833 121.950,93.598 119.200 C 93.196 114.501,92.881 111.003,91.995 101.400 C 91.792 99.200,91.435 95.150,91.201 92.400 C 90.968 89.650,90.606 85.600,90.398 83.400 C 89.693 75.964,89.591 74.142,89.863 73.870 C 90.013 73.721,139.649 73.644,200.167 73.699 L 310.200 73.800 310.084 76.400 " stroke="none" fill="#ee9275" fill-rule="evenodd"></path><path id="path4" d="M89.300 73.065 C 89.025 73.176,88.800 73.454,88.800 73.682 C 88.800 73.954,88.987 73.942,89.340 73.650 C 89.735 73.322,119.468 73.174,200.240 73.100 L 310.600 72.999 200.200 72.931 C 139.480 72.894,89.575 72.954,89.300 73.065 M88.900 76.800 C 88.897 77.790,89.025 79.770,89.186 81.200 L 89.478 83.800 89.504 81.400 C 89.518 80.080,89.390 78.100,89.218 77.000 L 88.907 75.000 88.900 76.800 M310.520 79.200 C 310.520 80.410,310.595 80.905,310.687 80.300 C 310.778 79.695,310.778 78.705,310.687 78.100 C 310.595 77.495,310.520 77.990,310.520 79.200 M89.703 85.600 C 89.698 86.590,89.825 88.570,89.986 90.000 L 90.278 92.600 90.299 90.400 C 90.311 89.190,90.184 87.210,90.017 86.000 C 89.713 83.803,89.713 83.803,89.703 85.600 M309.724 88.200 C 309.726 89.520,309.801 90.012,309.890 89.293 C 309.979 88.574,309.977 87.494,309.886 86.893 C 309.795 86.292,309.722 86.880,309.724 88.200 M309.293 93.200 C 309.293 93.970,309.375 94.285,309.476 93.900 C 309.576 93.515,309.576 92.885,309.476 92.500 C 309.375 92.115,309.293 92.430,309.293 93.200 M90.681 97.000 C 90.799 99.420,90.964 101.475,91.047 101.567 C 91.313 101.857,91.134 97.092,90.794 94.800 C 90.567 93.270,90.533 93.939,90.681 97.000 M308.920 96.800 C 308.920 98.010,308.995 98.505,309.087 97.900 C 309.178 97.295,309.178 96.305,309.087 95.700 C 308.995 95.095,308.920 95.590,308.920 96.800 M91.232 102.877 C 91.214 103.470,91.826 110.940,92.591 119.477 C 93.356 128.015,94.172 137.160,94.403 139.800 C 94.634 142.440,94.991 146.400,95.197 148.600 C 95.402 150.800,95.761 154.760,95.994 157.400 C 97.672 176.400,98.005 179.977,98.380 183.000 C 98.723 185.763,98.726 185.753,98.547 182.200 C 98.447 180.220,98.202 177.070,98.002 175.200 C 97.802 173.330,97.444 169.460,97.207 166.600 C 96.971 163.740,96.607 159.510,96.399 157.200 C 96.191 154.890,95.844 151.020,95.628 148.600 C 95.412 146.180,95.045 142.130,94.812 139.600 C 94.278 133.793,93.024 119.636,92.190 110.000 C 91.560 102.723,91.294 100.748,91.232 102.877 M308.124 105.800 C 308.126 107.120,308.201 107.612,308.290 106.893 C 308.379 106.174,308.377 105.094,308.286 104.493 C 308.195 103.892,308.122 104.480,308.124 105.800 M307.320 114.800 C 307.320 116.010,307.395 116.505,307.487 115.900 C 307.578 115.295,307.578 114.305,307.487 113.700 C 307.395 113.095,307.320 113.590,307.320 114.800 M138.219 118.369 C 138.094 118.572,138.182 120.867,138.416 123.469 C 138.649 126.071,139.002 130.090,139.200 132.400 C 139.398 134.710,139.749 138.670,139.980 141.200 C 140.777 149.936,141.186 154.611,141.417 157.600 C 141.544 159.250,141.731 161.005,141.832 161.500 L 142.015 162.400 222.108 162.301 L 302.200 162.202 222.307 162.100 L 142.415 161.998 142.228 161.099 C 142.125 160.605,141.485 153.720,140.805 145.800 C 140.125 137.880,139.403 129.780,139.201 127.800 C 138.999 125.820,138.781 122.940,138.717 121.400 L 138.600 118.600 169.600 118.396 L 200.600 118.193 169.524 118.096 C 150.873 118.039,138.356 118.147,138.219 118.369 M302.768 163.900 C 302.959 165.281,302.987 165.309,303.119 164.251 C 303.198 163.619,303.105 162.945,302.912 162.752 C 302.710 162.550,302.649 163.040,302.768 163.900 M302.501 169.800 C 302.505 170.680,302.587 170.993,302.683 170.495 C 302.779 169.998,302.775 169.278,302.675 168.895 C 302.575 168.513,302.496 168.920,302.501 169.800 M301.701 178.600 C 301.705 179.480,301.787 179.793,301.883 179.295 C 301.979 178.798,301.975 178.078,301.875 177.695 C 301.775 177.313,301.696 177.720,301.701 178.600 M98.830 188.433 C 98.846 189.845,99.009 191.810,99.192 192.800 C 99.414 194.002,99.453 193.206,99.309 190.400 C 99.066 185.680,98.785 184.526,98.830 188.433 M300.893 187.600 C 300.893 188.370,300.975 188.685,301.076 188.300 C 301.176 187.915,301.176 187.285,301.076 186.900 C 300.975 186.515,300.893 186.830,300.893 187.600 M300.101 196.600 C 300.105 197.480,300.187 197.793,300.283 197.295 C 300.379 196.798,300.375 196.078,300.275 195.695 C 300.175 195.313,300.096 195.720,300.101 196.600 M99.623 197.833 C 99.636 199.135,99.800 200.920,99.988 201.800 C 100.221 202.888,100.260 202.185,100.111 199.600 C 99.861 195.283,99.589 194.295,99.623 197.833 M299.301 205.400 C 299.305 206.280,299.387 206.593,299.483 206.095 C 299.579 205.598,299.575 204.878,299.475 204.495 C 299.375 204.113,299.296 204.520,299.301 205.400 M100.460 205.686 C 100.361 208.136,95.837 208.000,177.548 208.000 L 253.149 208.000 253.312 209.100 C 253.465 210.138,253.472 210.132,253.437 209.000 L 253.400 207.800 177.520 207.600 C 127.725 207.469,101.506 207.262,101.251 207.000 C 101.037 206.780,100.785 206.060,100.691 205.400 C 100.535 204.308,100.514 204.333,100.460 205.686 M252.901 212.600 C 252.905 213.480,252.987 213.793,253.083 213.295 C 253.179 212.798,253.175 212.078,253.075 211.695 C 252.975 211.313,252.896 211.720,252.901 212.600 M298.501 214.200 C 298.505 215.080,298.587 215.393,298.683 214.895 C 298.779 214.398,298.775 213.678,298.675 213.295 C 298.575 212.913,298.496 213.320,298.501 214.200 M252.501 217.800 C 252.505 218.680,252.587 218.993,252.683 218.495 C 252.779 217.998,252.775 217.278,252.675 216.895 C 252.575 216.513,252.496 216.920,252.501 217.800 M298.093 218.000 C 298.093 218.770,298.175 219.085,298.276 218.700 C 298.376 218.315,298.376 217.685,298.276 217.300 C 298.175 216.915,298.093 217.230,298.093 218.000 M252.109 221.600 C 252.109 222.590,252.187 222.995,252.282 222.500 C 252.378 222.005,252.378 221.195,252.282 220.700 C 252.187 220.205,252.109 220.610,252.109 221.600 M297.693 223.200 C 297.693 223.970,297.775 224.285,297.876 223.900 C 297.976 223.515,297.976 222.885,297.876 222.500 C 297.775 222.115,297.693 222.430,297.693 223.200 M251.693 226.800 C 251.693 227.570,251.775 227.885,251.876 227.500 C 251.976 227.115,251.976 226.485,251.876 226.100 C 251.775 225.715,251.693 226.030,251.693 226.800 M297.293 226.800 C 297.293 227.570,297.375 227.885,297.476 227.500 C 297.576 227.115,297.576 226.485,297.476 226.100 C 297.375 225.715,297.293 226.030,297.293 226.800 M103.070 228.663 C 102.921 228.812,102.800 229.119,102.800 229.347 C 102.800 229.594,102.993 229.567,103.280 229.280 C 103.990 228.570,146.817 228.590,147.570 229.300 C 147.998 229.704,148.065 229.684,147.917 229.200 C 147.723 228.566,103.694 228.039,103.070 228.663 M251.301 230.600 C 251.305 231.480,251.387 231.793,251.483 231.295 C 251.579 230.798,251.575 230.078,251.475 229.695 C 251.375 229.313,251.296 229.720,251.301 230.600 M148.282 233.600 C 148.403 235.690,148.569 237.475,148.651 237.567 C 148.929 237.878,148.743 233.410,148.402 231.600 C 148.164 230.338,148.128 230.937,148.282 233.600 M296.893 232.400 C 296.893 233.170,296.975 233.485,297.076 233.100 C 297.176 232.715,297.176 232.085,297.076 231.700 C 296.975 231.315,296.893 231.630,296.893 232.400 M102.898 233.600 C 102.888 234.810,103.016 236.790,103.183 238.000 L 103.487 240.200 103.500 238.200 C 103.507 237.100,103.379 235.120,103.215 233.800 L 102.918 231.400 102.898 233.600 M296.501 235.800 C 296.505 236.680,296.587 236.993,296.683 236.495 C 296.779 235.998,296.775 235.278,296.675 234.895 C 296.575 234.513,296.496 234.920,296.501 235.800 M250.501 239.400 C 250.505 240.280,250.587 240.593,250.683 240.095 C 250.779 239.598,250.775 238.878,250.675 238.495 C 250.575 238.113,250.496 238.520,250.501 239.400 M149.079 242.200 C 149.198 244.400,149.364 246.275,149.448 246.367 C 149.719 246.664,149.539 242.257,149.196 240.200 C 148.960 238.785,148.926 239.370,149.079 242.200 M296.093 241.200 C 296.093 241.970,296.175 242.285,296.276 241.900 C 296.376 241.515,296.376 240.885,296.276 240.500 C 296.175 240.115,296.093 240.430,296.093 241.200 M103.701 242.400 C 103.689 243.610,103.816 245.590,103.983 246.800 C 104.414 249.916,104.440 246.586,104.014 242.800 L 103.722 240.200 103.701 242.400 M295.709 244.800 C 295.709 245.790,295.787 246.195,295.882 245.700 C 295.978 245.205,295.978 244.395,295.882 243.900 C 295.787 243.405,295.709 243.810,295.709 244.800 M249.693 248.400 C 249.693 249.170,249.775 249.485,249.876 249.100 C 249.976 248.715,249.976 248.085,249.876 247.700 C 249.775 247.315,249.693 247.630,249.693 248.400 M149.887 251.400 C 150.007 253.600,150.171 255.475,150.253 255.567 C 150.531 255.881,150.341 251.000,150.005 249.200 C 149.775 247.970,149.738 248.666,149.887 251.400 M104.496 251.600 C 104.487 252.590,104.616 254.390,104.783 255.600 L 105.087 257.800 105.104 256.000 C 105.113 255.010,104.984 253.210,104.817 252.000 L 104.513 249.800 104.496 251.600 M294.920 254.000 C 294.920 255.210,294.995 255.705,295.087 255.100 C 295.178 254.495,295.178 253.505,295.087 252.900 C 294.995 252.295,294.920 252.790,294.920 254.000 M248.901 257.400 C 248.905 258.280,248.987 258.593,249.083 258.095 C 249.179 257.598,249.175 256.878,249.075 256.495 C 248.975 256.113,248.896 256.520,248.901 257.400 M150.658 260.000 C 150.785 261.870,151.095 263.612,151.345 263.870 C 151.848 264.390,163.976 267.757,164.274 267.459 C 164.376 267.357,164.132 267.187,163.730 267.081 C 157.991 265.574,155.818 264.994,153.800 264.429 L 151.400 263.758 151.114 260.620 C 150.719 256.298,150.373 255.826,150.658 260.000 M105.296 260.600 C 105.287 261.700,105.416 263.590,105.583 264.800 L 105.887 267.000 105.904 265.000 C 105.913 263.900,105.784 262.010,105.617 260.800 L 105.313 258.600 105.296 260.600 M294.114 263.000 C 294.117 264.100,294.195 264.503,294.287 263.895 C 294.379 263.286,294.377 262.386,294.282 261.895 C 294.187 261.403,294.111 261.900,294.114 263.000 M293.693 268.000 C 293.693 268.770,293.775 269.085,293.876 268.700 C 293.976 268.315,293.976 267.685,293.876 267.300 C 293.775 266.915,293.693 267.230,293.693 268.000 M106.102 269.400 C 106.094 270.500,106.221 272.480,106.385 273.800 L 106.682 276.200 106.698 274.200 C 106.706 273.100,106.579 271.120,106.415 269.800 L 106.118 267.400 106.102 269.400 M166.209 268.188 C 167.093 268.467,168.443 268.805,169.209 268.938 C 169.974 269.071,169.520 268.827,168.200 268.395 C 166.880 267.964,165.530 267.626,165.200 267.645 C 164.870 267.664,165.324 267.908,166.209 268.188 M171.400 269.600 C 171.840 269.789,172.470 269.944,172.800 269.944 C 173.178 269.944,173.104 269.817,172.600 269.600 C 172.160 269.411,171.530 269.256,171.200 269.256 C 170.822 269.256,170.896 269.383,171.400 269.600 M293.320 271.600 C 293.320 272.810,293.395 273.305,293.487 272.700 C 293.578 272.095,293.578 271.105,293.487 270.500 C 293.395 269.895,293.320 270.390,293.320 271.600 M176.000 270.829 C 177.430 271.251,178.780 271.581,179.000 271.562 C 179.608 271.509,174.688 270.007,174.000 270.036 C 173.670 270.050,174.570 270.407,176.000 270.829 M181.800 272.405 C 183.120 272.836,184.470 273.174,184.800 273.155 C 185.542 273.113,182.684 272.191,180.791 271.862 C 180.026 271.729,180.480 271.973,181.800 272.405 M187.200 273.850 C 190.473 274.888,198.179 276.919,199.400 277.065 C 200.060 277.144,197.360 276.309,193.400 275.209 C 186.654 273.335,183.164 272.570,187.200 273.850 M292.893 276.800 C 292.893 277.570,292.975 277.885,293.076 277.500 C 293.176 277.115,293.176 276.485,293.076 276.100 C 292.975 275.715,292.893 276.030,292.893 276.800 M106.903 278.400 C 106.898 279.390,107.025 281.370,107.186 282.800 L 107.478 285.400 107.499 283.200 C 107.511 281.990,107.384 280.010,107.217 278.800 C 106.913 276.603,106.913 276.603,106.903 278.400 M292.524 280.600 C 292.526 281.920,292.601 282.412,292.690 281.693 C 292.779 280.974,292.777 279.894,292.686 279.293 C 292.595 278.692,292.522 279.280,292.524 280.600 M107.651 286.492 C 107.536 288.967,108.517 297.858,108.987 298.600 C 109.472 299.365,111.153 299.927,120.400 302.415 C 121.830 302.800,127.024 304.225,131.943 305.581 C 136.861 306.938,140.953 307.980,141.036 307.898 C 141.196 307.738,137.240 306.606,120.400 301.995 C 108.256 298.669,108.957 299.139,108.590 294.072 C 108.241 289.255,107.718 285.036,107.651 286.492 M291.724 289.400 C 291.726 290.720,291.801 291.212,291.890 290.493 C 291.979 289.774,291.977 288.694,291.886 288.093 C 291.795 287.492,291.722 288.080,291.724 289.400 M287.000 300.000 C 286.496 300.217,286.422 300.344,286.800 300.344 C 287.130 300.344,287.760 300.189,288.200 300.000 C 288.704 299.783,288.778 299.656,288.400 299.656 C 288.070 299.656,287.440 299.811,287.000 300.000 M142.200 308.400 C 142.640 308.589,143.270 308.744,143.600 308.744 C 143.978 308.744,143.904 308.617,143.400 308.400 C 142.960 308.211,142.330 308.056,142.000 308.056 C 141.622 308.056,141.696 308.183,142.200 308.400 M144.433 308.962 C 144.728 309.250,152.463 311.270,152.630 311.103 C 152.718 311.015,151.084 310.461,148.998 309.871 C 145.426 308.862,144.049 308.588,144.433 308.962 M153.800 311.600 C 154.240 311.789,154.870 311.944,155.200 311.944 C 155.578 311.944,155.504 311.817,155.000 311.600 C 154.560 311.411,153.930 311.256,153.600 311.256 C 153.222 311.256,153.296 311.383,153.800 311.600 M156.033 312.151 C 156.389 312.473,166.513 315.229,166.885 315.105 C 167.101 315.033,164.848 314.305,161.877 313.487 C 156.672 312.054,155.675 311.826,156.033 312.151 M168.000 315.600 C 168.330 315.813,168.960 315.978,169.400 315.966 L 170.200 315.944 169.400 315.600 C 168.204 315.086,167.205 315.086,168.000 315.600 M171.000 316.391 C 171.720 316.695,173.645 317.242,182.500 319.662 C 183.985 320.068,186.415 320.736,187.900 321.146 C 195.857 323.344,200.107 324.427,200.244 324.290 C 200.328 324.205,198.553 323.634,196.299 323.021 C 194.044 322.408,190.400 321.398,188.200 320.778 C 174.451 316.899,168.764 315.449,171.000 316.391 M225.000 317.200 C 224.496 317.417,224.422 317.544,224.800 317.544 C 225.130 317.544,225.760 317.389,226.200 317.200 C 226.704 316.983,226.778 316.856,226.400 316.856 C 226.070 316.856,225.440 317.011,225.000 317.200 " stroke="none" fill="#e47252" fill-rule="evenodd"></path></g></svg>