<svg id="svg" version="1.1" xmlns="http://www.w3.org/2000/svg" xmlns:xlink="http://www.w3.org/1999/xlink" width="400" height="454.54545454545456" viewBox="0, 0, 400,454.54545454545456"><g id="svgg"><path id="path0" d="M0.846 28.526 C 0.785 29.484,1.507 30.800,2.094 30.800 C 2.441 30.800,2.437 30.677,2.080 30.320 C 1.467 29.707,1.454 29.062,2.062 29.438 C 2.350 29.616,2.415 29.548,2.234 29.255 C 2.075 28.998,1.791 28.882,1.603 28.998 C 1.414 29.115,1.178 28.893,1.077 28.505 C 0.906 27.850,0.890 27.851,0.846 28.526 M398.846 34.569 C 398.821 34.991,398.502 35.666,398.138 36.069 C 397.765 36.481,397.671 36.800,397.924 36.800 C 398.546 36.800,399.288 35.300,399.072 34.479 C 398.922 33.911,398.885 33.926,398.846 34.569 M201.786 37.299 C 201.681 37.575,201.641 123.930,201.698 229.200 L 201.800 420.600 203.578 420.458 C 204.556 420.380,205.726 420.079,206.178 419.790 C 206.630 419.501,208.030 419.140,209.288 418.988 C 210.546 418.835,211.783 418.461,212.037 418.155 C 212.291 417.850,213.025 417.600,213.669 417.600 C 214.313 417.600,215.355 417.333,215.985 417.008 C 216.616 416.682,218.182 416.298,219.466 416.154 C 220.749 416.011,222.070 415.661,222.400 415.377 C 222.730 415.093,224.170 414.734,225.600 414.580 C 227.030 414.425,228.490 414.046,228.845 413.737 C 229.200 413.428,230.460 413.076,231.645 412.954 C 232.830 412.832,234.340 412.489,235.000 412.192 C 236.903 411.336,240.076 410.342,241.600 410.126 C 242.370 410.017,243.732 409.584,244.626 409.164 C 245.521 408.744,246.925 408.400,247.746 408.400 C 248.568 408.400,249.728 408.147,250.325 407.839 C 250.922 407.530,252.308 407.144,253.405 406.980 C 254.502 406.816,255.760 406.460,256.200 406.189 C 256.640 405.917,257.741 405.585,258.647 405.451 C 259.553 405.317,260.813 404.937,261.447 404.606 C 262.081 404.276,263.230 404.003,264.000 404.000 C 264.770 403.997,265.907 403.731,266.526 403.408 C 267.145 403.085,268.550 402.702,269.648 402.556 C 270.746 402.410,272.303 401.956,273.107 401.546 C 273.911 401.135,274.987 400.800,275.499 400.800 C 276.010 400.800,276.827 400.551,277.314 400.248 C 277.801 399.944,279.148 399.592,280.307 399.466 C 281.465 399.339,282.810 398.958,283.296 398.618 C 283.781 398.278,284.658 398.000,285.245 398.000 C 285.832 398.000,287.097 397.644,288.056 397.209 C 289.015 396.774,290.525 396.414,291.411 396.409 C 292.297 396.404,293.419 396.122,293.904 395.782 C 294.390 395.442,295.735 395.054,296.893 394.919 C 298.052 394.784,299.360 394.447,299.800 394.168 C 300.240 393.890,301.500 393.536,302.600 393.381 C 303.700 393.226,304.800 392.940,305.045 392.746 C 305.290 392.552,306.500 392.206,307.735 391.978 C 308.969 391.750,310.479 391.303,311.090 390.984 C 311.700 390.666,312.688 390.404,313.285 390.402 C 313.882 390.401,315.284 390.040,316.400 389.600 C 317.516 389.160,318.882 388.800,319.435 388.800 C 319.987 388.800,320.968 388.527,321.613 388.193 C 322.258 387.860,323.644 387.473,324.693 387.334 C 325.742 387.194,326.955 386.838,327.389 386.540 C 327.823 386.243,328.633 385.998,329.189 385.995 C 332.370 385.977,332.371 385.974,332.842 377.200 C 333.049 373.350,333.390 369.660,333.599 369.000 C 333.809 368.340,334.171 364.234,334.403 359.875 C 334.635 355.516,334.992 351.646,335.197 351.275 C 335.401 350.904,335.750 346.954,335.971 342.498 C 336.193 338.042,336.542 334.082,336.747 333.698 C 336.952 333.314,337.251 329.760,337.411 325.800 C 337.579 321.647,337.921 318.008,338.219 317.200 C 338.526 316.368,338.841 312.820,338.996 308.454 C 339.138 304.413,339.440 300.633,339.666 300.054 C 339.892 299.474,340.243 295.539,340.445 291.310 C 340.647 287.080,340.991 283.149,341.210 282.573 C 341.429 281.997,341.787 277.988,342.005 273.663 C 342.224 269.338,342.571 265.440,342.777 265.000 C 342.982 264.560,343.332 260.735,343.552 256.499 C 343.773 252.263,344.099 248.573,344.277 248.299 C 344.455 248.025,344.803 244.065,345.050 239.501 C 345.298 234.936,345.679 230.976,345.896 230.701 C 346.113 230.425,346.399 226.945,346.530 222.967 C 346.661 218.989,346.973 215.209,347.223 214.567 C 347.473 213.925,347.834 210.160,348.026 206.200 C 348.218 202.240,348.565 198.010,348.798 196.800 C 349.030 195.590,349.403 191.397,349.627 187.483 C 349.850 183.568,350.197 179.934,350.397 179.408 C 350.597 178.882,350.875 175.425,351.014 171.726 C 351.154 168.026,351.509 164.100,351.804 163.000 C 352.099 161.900,352.464 157.760,352.615 153.800 C 352.783 149.391,353.090 146.135,353.407 145.400 C 353.728 144.655,354.015 141.516,354.163 137.124 C 354.294 133.231,354.652 128.911,354.960 127.524 C 355.267 126.136,355.635 121.859,355.778 118.019 C 355.920 114.180,356.214 110.824,356.432 110.562 C 356.649 110.299,356.999 106.601,357.208 102.342 C 357.417 98.084,357.771 93.790,357.995 92.800 C 358.218 91.810,358.573 87.806,358.785 83.903 C 358.996 80.000,359.333 76.490,359.535 76.103 C 359.736 75.716,360.025 72.340,360.178 68.600 C 360.331 64.860,360.695 60.810,360.987 59.600 C 361.278 58.390,361.630 54.387,361.767 50.704 C 361.904 47.021,362.185 43.565,362.391 43.024 C 362.597 42.483,362.818 40.906,362.882 39.520 L 363.000 37.000 282.488 36.899 C 218.288 36.819,201.937 36.900,201.786 37.299 M3.744 51.200 C 3.744 53.290,3.812 54.145,3.894 53.100 C 3.976 52.055,3.976 50.345,3.894 49.300 C 3.812 48.255,3.744 49.110,3.744 51.200 M397.154 50.700 C 397.129 50.865,397.140 51.316,397.180 51.703 C 397.219 52.089,396.991 52.505,396.673 52.627 C 396.218 52.802,396.101 53.721,396.123 56.925 L 396.151 61.000 396.291 57.462 C 396.376 55.303,396.652 53.587,396.998 53.059 C 397.310 52.583,397.534 51.790,397.497 51.297 C 397.431 50.422,397.246 50.100,397.154 50.700 M4.145 62.200 C 3.879 62.893,4.222 64.000,4.702 64.000 C 4.881 64.000,5.029 63.653,5.029 63.229 C 5.029 62.806,4.857 62.565,4.646 62.695 C 4.429 62.829,4.374 62.644,4.519 62.266 C 4.660 61.900,4.685 61.600,4.575 61.600 C 4.465 61.600,4.271 61.870,4.145 62.200 M395.281 69.218 C 394.972 69.713,394.946 70.000,395.209 70.000 C 395.438 70.000,395.732 69.722,395.862 69.383 C 396.222 68.445,395.833 68.334,395.281 69.218 M393.900 84.083 C 393.166 84.835,393.414 85.033,394.349 84.440 C 394.651 84.249,394.831 83.929,394.749 83.730 C 394.667 83.530,394.285 83.689,393.900 84.083 M297.631 89.992 C 308.394 89.981,317.200 89.844,317.200 89.686 C 317.199 89.306,341.849 89.714,342.234 90.100 C 342.399 90.265,342.344 90.400,342.113 90.400 C 341.882 90.400,341.716 90.940,341.742 91.600 C 341.769 92.260,341.950 92.800,342.145 92.800 C 342.339 92.800,342.316 93.025,342.094 93.300 C 341.865 93.585,341.714 95.923,341.745 98.729 C 341.792 102.959,341.701 103.747,341.100 104.291 C 340.323 104.994,340.191 105.823,340.795 106.197 C 341.016 106.334,341.093 106.185,340.968 105.861 C 340.846 105.542,340.983 105.144,341.273 104.976 C 341.563 104.809,341.667 104.819,341.503 104.999 C 341.340 105.179,341.411 105.572,341.660 105.873 C 341.910 106.173,342.005 106.529,341.871 106.662 C 341.737 106.796,341.820 107.263,342.054 107.701 C 342.361 108.275,342.357 108.421,342.040 108.225 C 341.652 107.985,341.428 108.460,341.545 109.276 C 341.566 109.427,341.220 109.667,340.775 109.808 C 339.930 110.076,339.712 112.973,340.430 114.413 C 340.598 114.750,340.525 115.815,340.268 116.780 C 339.912 118.113,339.912 118.570,340.266 118.688 C 340.579 118.793,340.626 119.213,340.409 119.967 C 340.232 120.585,340.223 121.830,340.388 122.734 C 340.553 123.639,340.536 124.284,340.350 124.169 C 340.164 124.054,340.082 124.689,340.168 125.580 C 340.279 126.730,340.190 127.120,339.862 126.923 C 339.518 126.717,339.514 126.793,339.847 127.223 C 340.428 127.972,340.472 130.308,339.911 130.655 C 339.651 130.815,339.591 130.738,339.762 130.462 C 339.919 130.208,339.876 130.000,339.666 130.000 C 339.119 130.000,338.800 131.033,338.800 132.803 L 338.800 134.340 296.741 134.142 C 262.160 133.979,254.624 134.037,254.352 134.472 C 254.171 134.762,254.021 151.128,254.020 170.840 L 254.017 206.681 257.309 206.702 C 259.817 206.718,260.783 206.566,261.369 206.062 C 261.792 205.698,262.014 205.613,261.862 205.872 C 261.473 206.540,262.268 206.920,263.439 206.626 C 264.044 206.474,264.336 206.185,264.187 205.888 C 264.051 205.620,264.179 205.670,264.470 206.000 C 264.762 206.330,265.540 206.639,266.200 206.687 C 266.860 206.736,267.214 206.646,266.987 206.487 C 266.155 205.909,266.585 205.000,267.700 204.981 C 268.305 204.971,268.800 205.117,268.800 205.305 C 268.800 205.493,269.025 205.512,269.300 205.347 C 269.663 205.129,269.655 205.226,269.271 205.699 C 268.980 206.059,268.485 206.254,268.171 206.133 C 267.857 206.013,267.600 206.114,267.600 206.357 C 267.600 207.068,268.732 206.868,269.597 206.003 C 270.126 205.474,270.998 205.184,272.197 205.139 C 273.188 205.101,274.000 204.897,274.000 204.686 C 274.000 204.467,274.225 204.489,274.525 204.738 C 274.829 204.990,276.137 205.113,277.625 205.030 C 281.095 204.837,281.082 204.840,280.410 204.414 C 279.749 203.997,281.248 203.225,282.400 203.390 C 283.188 203.503,282.788 204.213,281.967 204.158 C 281.618 204.134,281.333 204.371,281.333 204.684 C 281.333 205.410,283.156 205.013,283.786 204.151 C 284.124 203.689,285.187 203.551,288.511 203.539 C 291.630 203.527,292.729 203.397,292.541 203.061 C 292.381 202.775,292.487 202.789,292.821 203.100 C 293.638 203.858,294.641 203.773,294.000 203.000 C 293.726 202.670,293.659 202.377,293.851 202.349 C 294.424 202.264,298.729 202.093,303.063 201.983 C 306.952 201.883,307.146 201.836,307.577 200.890 C 307.998 199.968,308.076 199.945,308.746 200.551 C 309.142 200.909,309.585 201.081,309.732 200.934 C 309.879 200.787,311.755 200.647,313.900 200.623 C 316.045 200.599,318.053 200.422,318.362 200.228 C 318.766 199.975,318.835 200.020,318.607 200.389 C 318.363 200.783,318.458 200.807,319.019 200.493 C 319.523 200.211,319.966 200.222,320.456 200.528 C 320.845 200.771,321.302 200.832,321.470 200.663 C 321.639 200.494,321.517 200.196,321.200 200.000 C 320.035 199.280,321.332 199.051,326.308 199.098 C 329.109 199.125,332.074 198.998,332.897 198.816 C 333.765 198.625,334.301 198.636,334.173 198.843 C 334.052 199.039,333.648 199.214,333.276 199.232 C 332.893 199.249,332.808 199.348,333.080 199.458 C 333.420 199.596,333.450 199.943,333.182 200.646 C 332.723 201.854,332.574 204.910,332.944 205.509 C 333.092 205.749,333.031 206.057,332.808 206.195 C 332.448 206.417,332.480 208.975,332.901 213.865 C 332.961 214.561,332.892 215.057,332.747 214.967 C 332.602 214.878,332.520 215.523,332.565 216.402 C 332.611 217.296,332.460 218.014,332.223 218.032 C 331.990 218.049,332.025 218.154,332.300 218.265 C 332.907 218.510,332.972 220.000,332.376 220.000 C 332.143 220.000,332.063 219.822,332.197 219.605 C 332.334 219.383,332.185 219.308,331.859 219.433 C 331.105 219.722,330.982 226.796,331.731 226.806 C 332.088 226.811,332.089 226.883,331.732 227.110 C 331.451 227.288,331.270 228.444,331.279 230.004 C 331.301 234.000,331.242 234.400,330.632 234.400 C 330.084 234.400,329.704 235.621,329.667 237.500 C 329.658 237.995,329.819 238.400,330.025 238.400 C 330.231 238.400,330.400 238.591,330.400 238.824 C 330.400 239.057,330.265 239.164,330.100 239.063 C 329.935 238.962,329.781 239.395,329.758 240.027 C 329.731 240.766,329.874 241.081,330.158 240.911 C 330.469 240.725,330.467 240.817,330.150 241.223 C 329.870 241.582,329.701 243.731,329.702 246.918 C 329.703 251.167,329.594 252.118,329.057 252.518 C 328.702 252.783,328.319 253.630,328.207 254.400 L 328.003 255.800 328.413 254.500 C 328.964 252.752,329.492 252.855,329.441 254.700 C 329.415 255.670,329.223 256.165,328.900 256.100 C 328.625 256.045,328.400 256.165,328.400 256.367 C 328.400 256.569,328.279 257.049,328.132 257.433 C 327.935 257.947,328.004 258.045,328.394 257.804 C 328.771 257.571,328.829 257.629,328.595 258.008 C 328.018 258.942,328.082 263.343,328.682 264.051 C 329.154 264.606,329.148 264.734,328.638 264.930 C 328.156 265.115,328.053 265.967,328.102 269.365 C 328.135 271.679,328.006 273.713,327.817 273.886 C 327.627 274.059,327.601 273.975,327.759 273.700 C 327.918 273.425,327.857 273.200,327.624 273.200 C 327.391 273.200,327.182 273.695,327.160 274.300 L 327.120 275.400 326.800 274.400 C 326.523 273.534,326.474 273.618,326.440 275.020 C 326.418 275.911,326.625 276.882,326.900 277.179 C 327.300 277.610,327.300 277.661,326.900 277.435 C 326.292 277.092,326.265 277.400,326.814 278.426 C 327.071 278.906,327.081 279.200,326.841 279.200 C 326.429 279.200,326.495 281.028,326.923 281.456 C 327.063 281.597,327.066 281.893,326.928 282.116 C 326.438 282.910,326.426 285.369,326.912 285.677 C 327.242 285.887,327.254 285.990,326.948 285.994 C 326.641 285.998,326.530 287.042,326.602 289.248 C 326.665 291.198,326.568 292.277,326.359 291.948 C 326.085 291.516,326.011 291.510,326.006 291.924 C 326.003 292.212,325.865 292.364,325.700 292.262 C 325.535 292.160,325.347 293.320,325.281 294.839 C 325.193 296.893,325.295 297.602,325.681 297.606 C 326.025 297.610,326.055 297.711,325.771 297.906 C 325.536 298.068,325.336 298.650,325.328 299.200 C 325.320 299.750,325.288 302.045,325.257 304.300 C 325.210 307.690,325.094 308.400,324.587 308.400 C 323.750 308.400,323.401 309.479,324.004 310.205 C 324.396 310.677,324.395 310.800,324.000 310.800 C 323.613 310.800,323.619 310.941,324.025 311.430 C 324.366 311.842,324.407 312.155,324.141 312.330 C 323.894 312.494,323.721 315.257,323.699 319.357 C 323.662 326.615,323.610 326.789,321.567 326.552 C 320.839 326.467,320.398 326.600,320.394 326.908 C 320.389 327.259,320.290 327.245,320.044 326.857 C 319.780 326.441,319.630 326.428,319.400 326.800 C 319.170 327.172,319.022 327.160,318.767 326.746 C 318.488 326.295,318.348 326.298,317.917 326.762 C 317.632 327.067,317.582 327.217,317.804 327.094 C 318.289 326.827,319.790 327.838,319.324 328.117 C 319.146 328.224,318.100 328.267,317.000 328.213 C 315.870 328.157,314.872 328.306,314.706 328.557 C 314.501 328.866,314.410 328.849,314.406 328.500 C 314.396 327.671,312.910 327.937,311.799 328.966 C 310.939 329.763,310.420 329.909,308.825 329.802 C 307.102 329.686,306.915 329.753,307.090 330.423 C 307.261 331.075,307.084 331.157,305.743 331.050 C 304.694 330.967,304.039 331.131,303.699 331.564 C 303.274 332.103,303.230 332.107,303.408 331.588 C 303.556 331.156,303.321 330.951,302.609 330.892 C 302.054 330.847,301.600 330.998,301.600 331.228 C 301.600 331.459,301.434 331.544,301.230 331.419 C 301.027 331.293,300.802 331.484,300.730 331.842 C 300.626 332.366,300.065 332.498,297.884 332.512 C 295.195 332.530,294.182 332.963,295.249 333.639 C 295.629 333.879,295.396 333.990,294.500 333.994 C 293.733 333.997,293.197 334.205,293.194 334.500 C 293.190 334.852,293.101 334.868,292.894 334.553 C 292.732 334.307,291.744 334.108,290.698 334.110 C 289.208 334.113,288.888 334.224,289.218 334.622 C 289.857 335.391,289.117 335.656,286.185 335.709 C 284.447 335.740,283.727 335.887,283.997 336.157 C 284.959 337.119,284.342 337.423,281.645 337.315 C 279.232 337.219,278.897 337.292,278.945 337.903 C 278.994 338.519,278.619 338.591,275.700 338.525 C 272.524 338.453,272.175 338.575,272.353 339.700 C 272.395 339.966,268.249 340.210,266.869 340.023 C 266.577 339.983,266.241 340.322,266.122 340.775 C 265.893 341.651,265.874 341.658,263.400 341.744 C 262.217 341.785,261.834 341.954,261.930 342.389 C 262.032 342.854,261.899 342.833,261.298 342.289 C 260.879 341.910,260.371 341.603,260.169 341.606 C 259.966 341.609,260.068 341.782,260.397 341.989 C 261.659 342.787,260.127 343.364,256.996 343.270 C 254.115 343.184,253.327 343.566,254.554 344.457 C 254.749 344.598,254.074 344.620,253.054 344.505 C 251.847 344.369,251.200 344.449,251.200 344.735 C 251.200 344.977,250.923 345.069,250.585 344.939 C 250.247 344.809,249.633 345.009,249.220 345.382 C 248.807 345.755,247.851 346.110,247.094 346.170 C 246.338 346.230,245.485 346.424,245.198 346.601 C 244.895 346.788,244.774 346.765,244.909 346.547 C 245.037 346.339,244.670 346.131,244.092 346.083 C 243.081 345.999,243.071 346.019,243.821 346.599 C 244.589 347.194,244.589 347.198,243.800 346.926 C 243.104 346.686,243.068 346.734,243.523 347.294 C 243.996 347.876,243.810 347.925,241.623 347.801 C 240.020 347.711,239.200 347.816,239.200 348.112 C 239.200 348.425,239.055 348.415,238.720 348.080 C 238.027 347.387,237.313 347.487,236.395 348.405 C 235.952 348.848,235.097 349.229,234.495 349.253 C 232.980 349.313,231.165 350.019,231.429 350.446 C 231.619 350.755,227.829 351.015,225.919 350.824 C 225.438 350.776,225.283 350.992,225.392 351.558 C 225.535 352.303,225.377 352.348,223.173 352.188 C 221.773 352.087,220.800 352.177,220.800 352.408 C 220.800 352.624,220.995 352.800,221.233 352.800 C 222.163 352.800,221.276 353.793,220.277 353.869 C 218.813 353.982,218.681 353.603,218.770 349.551 C 218.829 346.853,218.722 345.999,218.324 345.994 C 217.976 345.990,217.945 345.889,218.231 345.694 C 218.825 345.290,218.998 334.169,218.416 333.810 C 218.180 333.664,218.109 333.348,218.258 333.107 C 218.688 332.410,218.462 321.502,218.007 321.047 C 217.783 320.823,217.603 320.451,217.606 320.220 C 217.609 319.989,217.780 320.065,217.984 320.388 C 218.463 321.146,218.899 320.724,218.558 319.834 C 218.414 319.460,218.065 319.243,217.781 319.352 C 217.252 319.555,216.677 318.656,217.079 318.254 C 217.203 318.131,217.270 316.209,217.228 313.984 C 217.152 309.892,217.467 309.130,219.044 309.590 C 219.191 309.633,219.463 309.428,219.649 309.134 C 219.922 308.704,219.994 308.717,220.019 309.200 C 220.037 309.531,220.220 309.378,220.428 308.858 C 220.669 308.255,221.020 307.999,221.403 308.146 C 221.731 308.272,222.000 308.190,222.000 307.964 C 222.000 307.734,222.221 307.691,222.500 307.866 C 223.565 308.534,224.983 308.502,224.419 307.823 C 223.812 307.092,223.973 307.057,225.423 307.609 C 226.384 307.974,226.476 307.935,226.294 307.239 C 226.157 306.714,226.259 306.524,226.605 306.657 C 226.888 306.766,227.250 306.643,227.410 306.385 C 227.628 306.031,227.778 306.041,228.016 306.426 C 228.265 306.829,228.551 306.793,229.370 306.257 C 230.039 305.818,230.371 305.750,230.304 306.064 C 230.247 306.333,230.560 306.626,231.000 306.715 C 231.647 306.847,231.705 306.779,231.300 306.359 C 230.437 305.463,230.756 305.040,231.700 305.827 C 232.195 306.241,232.375 306.323,232.100 306.009 C 231.280 305.076,231.472 304.998,234.500 305.042 C 237.628 305.086,238.400 304.941,238.400 304.308 C 238.400 304.064,238.174 304.090,237.832 304.373 C 237.376 304.752,237.284 304.707,237.367 304.147 C 237.454 303.554,237.898 303.455,240.335 303.487 C 241.932 303.507,243.200 303.353,243.200 303.138 C 243.200 302.926,242.975 302.884,242.700 303.045 C 242.425 303.206,242.520 302.972,242.910 302.526 C 243.400 301.966,243.939 301.776,244.653 301.912 C 245.283 302.033,245.822 301.893,246.036 301.555 C 246.230 301.250,246.391 301.188,246.394 301.418 C 246.397 301.648,247.030 301.879,247.800 301.931 C 248.921 302.006,249.194 301.883,249.168 301.313 C 249.150 300.893,249.054 300.806,248.935 301.100 C 248.824 301.375,248.546 301.600,248.318 301.600 C 248.058 301.600,248.080 301.386,248.377 301.028 C 248.638 300.713,249.196 300.522,249.617 300.603 C 250.039 300.684,250.489 300.579,250.619 300.369 C 250.749 300.159,251.068 300.120,251.328 300.283 C 252.365 300.935,253.600 300.842,253.594 300.114 C 253.589 299.518,253.526 299.497,253.216 299.988 C 253.011 300.312,252.735 300.468,252.603 300.336 C 252.254 299.987,253.547 298.800,254.275 298.800 C 254.717 298.800,254.829 299.057,254.667 299.700 C 254.462 300.514,254.490 300.533,254.959 299.907 C 255.245 299.526,255.861 299.155,256.329 299.084 C 256.797 299.012,257.293 298.841,257.431 298.703 C 257.569 298.564,258.114 298.615,258.641 298.816 C 259.270 299.055,259.600 299.038,259.600 298.766 C 259.600 298.539,259.792 298.471,260.027 298.616 C 260.261 298.761,260.666 298.604,260.927 298.266 C 261.222 297.884,262.228 297.602,263.600 297.518 C 265.488 297.401,265.797 297.270,265.779 296.591 C 265.759 295.871,266.028 295.800,268.779 295.800 C 271.340 295.800,271.793 295.699,271.751 295.140 C 271.695 294.378,273.298 293.935,275.057 294.227 C 275.888 294.365,276.039 294.312,275.612 294.030 C 274.639 293.391,275.480 293.047,278.111 293.008 C 280.347 292.975,280.588 292.891,280.485 292.185 C 280.382 291.486,280.452 291.503,281.122 292.347 C 281.885 293.308,283.297 293.110,283.670 291.991 C 283.747 291.760,284.829 291.560,286.076 291.545 C 287.735 291.525,288.291 291.382,288.149 291.011 C 287.877 290.303,289.088 289.866,291.122 289.936 C 292.399 289.980,292.767 289.867,292.545 289.498 C 292.322 289.125,292.391 289.107,292.823 289.425 C 293.700 290.070,294.572 289.889,294.738 289.028 C 294.819 288.604,295.137 288.006,295.443 287.700 C 296.115 287.028,296.167 286.400,295.551 286.400 C 295.237 286.400,295.227 286.249,295.517 285.900 C 296.055 285.251,296.041 284.735,295.466 284.023 C 295.127 283.604,295.125 283.522,295.458 283.721 C 295.710 283.872,296.025 283.712,296.158 283.365 C 296.627 282.144,296.432 256.800,295.954 256.800 C 295.680 256.800,295.757 256.420,296.154 255.814 C 296.556 255.201,296.789 254.029,296.772 252.714 C 296.751 251.110,296.656 250.793,296.380 251.400 C 296.069 252.082,296.024 252.023,296.068 251.000 C 296.097 250.340,296.093 249.314,296.060 248.720 L 296.000 247.640 291.500 247.669 C 286.538 247.701,285.600 247.834,285.600 248.507 C 285.600 248.829,285.738 248.822,286.080 248.480 C 286.773 247.787,287.328 247.890,287.034 248.657 C 286.814 249.230,286.867 249.242,287.456 248.757 C 288.034 248.280,288.103 248.282,287.942 248.770 C 287.793 249.220,286.763 249.343,283.077 249.353 C 280.504 249.360,278.400 249.508,278.400 249.683 C 278.400 249.857,278.085 249.997,277.700 249.994 C 277.096 249.989,277.082 249.930,277.600 249.563 C 278.133 249.186,278.133 249.157,277.600 249.303 C 277.270 249.393,277.000 249.722,277.000 250.033 C 277.000 250.389,276.479 250.649,275.603 250.733 C 274.835 250.805,274.073 251.075,273.910 251.333 C 273.686 251.683,273.611 251.684,273.606 251.337 C 273.599 250.761,270.452 250.878,270.068 251.469 C 269.920 251.695,269.406 252.088,268.924 252.341 C 267.831 252.917,267.357 252.300,268.225 251.432 C 268.573 251.085,268.704 250.800,268.517 250.800 C 268.331 250.800,267.870 251.160,267.493 251.600 C 266.839 252.364,264.962 252.648,262.100 252.416 C 261.605 252.376,261.200 252.546,261.200 252.795 C 261.200 253.044,261.032 253.144,260.828 253.017 C 260.623 252.891,260.349 252.959,260.219 253.169 C 260.089 253.379,259.631 253.483,259.200 253.400 C 258.769 253.317,258.327 253.394,258.218 253.571 C 258.109 253.748,257.538 253.801,256.950 253.688 C 256.143 253.534,255.960 253.611,256.202 254.004 C 256.413 254.344,256.366 254.426,256.067 254.242 C 255.234 253.727,252.782 253.646,253.080 254.144 C 253.237 254.406,253.082 254.380,252.715 254.083 C 251.915 253.435,250.114 253.840,249.610 254.781 C 249.307 255.348,248.710 255.459,246.248 255.410 C 244.076 255.367,243.401 255.468,243.788 255.776 C 244.224 256.121,244.171 256.349,243.505 257.000 L 242.686 257.800 242.912 256.877 C 243.108 256.073,243.056 256.021,242.503 256.477 C 241.936 256.945,241.920 256.895,242.357 256.000 L 242.845 255.000 242.061 255.897 C 241.377 256.679,240.837 256.805,237.830 256.885 C 235.268 256.953,234.431 257.105,234.574 257.475 C 234.908 258.346,234.024 258.506,229.111 258.468 C 224.741 258.434,224.300 258.497,224.121 259.181 C 223.972 259.749,223.638 259.896,222.749 259.783 C 222.103 259.702,221.653 259.762,221.749 259.917 C 221.892 260.149,220.732 260.198,219.100 260.031 C 218.935 260.014,219.160 259.640,219.600 259.200 C 220.815 257.985,220.812 248.012,219.597 246.797 C 218.800 246.000,218.792 245.443,218.629 178.897 C 218.462 110.845,218.454 110.200,217.695 110.200 C 216.905 110.200,216.775 109.719,217.421 109.183 C 217.956 108.739,218.121 108.746,218.424 109.226 C 218.663 109.602,218.790 109.633,218.794 109.314 C 218.797 109.047,218.418 108.624,217.952 108.374 C 217.266 108.007,217.163 108.023,217.416 108.460 C 217.588 108.757,217.602 108.888,217.449 108.751 C 217.069 108.414,216.921 90.428,217.300 90.662 C 217.465 90.764,217.600 90.657,217.600 90.424 C 217.600 90.129,226.752 90.000,247.600 90.000 C 275.887 90.000,277.603 89.960,277.646 89.300 C 277.690 88.640,277.703 88.640,277.877 89.306 C 278.050 89.970,279.253 90.011,297.631 89.992 M389.484 135.000 C 389.327 135.440,389.088 136.070,388.952 136.400 C 388.751 136.886,388.835 136.876,389.390 136.347 C 389.768 135.988,390.007 135.358,389.922 134.947 C 389.776 134.242,389.752 134.245,389.484 135.000 M11.314 141.800 C 11.317 142.900,11.395 143.303,11.487 142.695 C 11.579 142.086,11.577 141.186,11.482 140.695 C 11.387 140.203,11.311 140.700,11.314 141.800 M388.509 148.800 C 388.509 149.790,388.587 150.195,388.682 149.700 C 388.778 149.205,388.778 148.395,388.682 147.900 C 388.587 147.405,388.509 147.810,388.509 148.800 M387.953 151.900 C 387.927 152.065,387.936 152.364,387.974 152.563 C 388.011 152.763,387.808 153.092,387.521 153.294 C 387.117 153.579,387.135 153.624,387.600 153.497 C 387.930 153.407,388.220 152.944,388.245 152.467 C 388.287 151.663,388.060 151.222,387.953 151.900 M12.832 161.067 C 12.771 161.970,13.292 162.800,13.919 162.800 C 14.496 162.800,14.496 162.755,13.922 162.300 C 13.576 162.025,13.196 161.530,13.078 161.200 C 12.960 160.870,12.849 160.810,12.832 161.067 M16.679 194.280 C 16.070 194.438,16.039 194.567,16.479 195.110 C 16.867 195.590,16.873 195.677,16.500 195.453 C 15.759 195.008,15.876 196.219,16.648 196.990 C 17.004 197.347,17.409 197.515,17.548 197.364 C 17.686 197.214,17.575 197.010,17.300 196.912 C 17.025 196.814,16.800 196.558,16.800 196.343 C 16.800 196.128,16.980 196.064,17.200 196.200 C 17.433 196.344,17.600 195.937,17.600 195.224 C 17.600 194.551,17.555 194.021,17.500 194.046 C 17.445 194.072,17.075 194.177,16.679 194.280 M296.436 202.769 C 296.126 202.965,295.586 203.039,295.236 202.933 C 294.699 202.770,294.704 202.807,295.266 203.170 C 295.968 203.625,297.200 203.362,297.200 202.757 C 297.200 202.320,297.145 202.320,296.436 202.769 M383.412 202.780 C 383.265 203.018,382.977 203.109,382.772 202.983 C 382.568 202.856,382.400 202.943,382.400 203.176 C 382.400 203.409,382.659 203.600,382.976 203.600 C 383.593 203.600,384.212 202.879,383.880 202.547 C 383.770 202.437,383.560 202.542,383.412 202.780 M17.783 213.099 C 17.902 213.411,18.000 213.741,18.000 213.833 C 18.000 213.925,18.169 214.000,18.375 214.000 C 18.581 214.000,18.725 213.670,18.695 213.267 C 18.665 212.863,18.398 212.533,18.103 212.533 C 17.804 212.533,17.662 212.785,17.783 213.099 M18.893 227.200 C 18.893 227.970,18.975 228.285,19.076 227.900 C 19.176 227.515,19.176 226.885,19.076 226.500 C 18.975 226.115,18.893 226.430,18.893 227.200 M19.200 229.618 C 19.200 229.774,19.460 230.118,19.777 230.381 C 20.248 230.772,20.344 230.719,20.297 230.097 C 20.245 229.404,19.200 228.948,19.200 229.618 M331.095 236.445 C 331.177 237.861,331.107 238.021,330.595 237.596 C 329.778 236.918,330.071 234.788,330.980 234.800 C 330.991 234.800,331.043 235.541,331.095 236.445 M379.915 235.824 C 379.339 236.786,379.678 238.493,380.319 237.853 C 380.786 237.385,380.840 237.015,380.539 236.341 C 380.320 235.850,380.039 235.618,379.915 235.824 M20.406 245.326 C 20.395 245.893,21.213 247.200,21.579 247.200 C 22.028 247.200,21.897 246.222,21.436 246.134 C 21.245 246.098,20.937 245.828,20.751 245.534 C 20.565 245.240,20.409 245.147,20.406 245.326 M219.600 253.024 C 219.600 256.201,219.465 258.800,219.300 258.801 C 219.135 258.801,219.054 256.281,219.121 253.201 C 219.206 249.286,219.108 247.600,218.797 247.600 C 218.553 247.600,218.466 247.417,218.604 247.193 C 219.304 246.060,219.600 247.790,219.600 253.024 M297.000 252.998 C 297.000 254.826,297.135 256.238,297.300 256.137 C 297.465 256.036,297.600 254.624,297.600 253.000 C 297.600 251.376,297.465 249.964,297.300 249.861 C 297.135 249.759,297.000 251.171,297.000 252.998 M22.006 262.700 C 22.025 263.612,22.778 264.182,23.283 263.668 C 23.706 263.238,23.691 263.166,23.200 263.271 C 22.870 263.342,22.645 263.175,22.700 262.900 C 22.755 262.625,22.620 262.400,22.400 262.400 C 22.180 262.400,22.003 262.535,22.006 262.700 M23.600 279.813 C 23.600 280.457,24.665 281.069,25.074 280.659 C 25.359 280.374,24.455 279.200,23.951 279.200 C 23.758 279.200,23.600 279.476,23.600 279.813 M26.000 296.224 C 26.000 296.567,25.820 296.736,25.600 296.600 C 25.380 296.464,25.200 296.524,25.200 296.734 C 25.200 297.625,26.237 297.459,26.312 296.555 C 26.355 296.030,26.303 295.600,26.196 295.600 C 26.088 295.600,26.000 295.881,26.000 296.224 M373.752 305.001 C 373.703 306.452,374.135 306.867,374.556 305.771 C 374.749 305.266,374.235 303.598,373.886 303.601 C 373.839 303.601,373.779 304.231,373.752 305.001 M373.152 319.913 C 373.021 320.707,373.079 321.081,373.301 320.859 C 373.503 320.657,373.601 320.067,373.519 319.546 C 373.393 318.745,373.337 318.802,373.152 319.913 M372.103 322.497 C 372.056 323.119,372.152 323.172,372.623 322.781 C 373.340 322.186,373.365 321.733,372.680 321.733 C 372.394 321.733,372.134 322.077,372.103 322.497 M28.012 329.200 C 28.012 329.890,28.680 331.070,28.911 330.788 C 28.996 330.685,28.829 330.150,28.539 329.600 C 28.248 329.049,28.012 328.869,28.012 329.200 M371.282 337.900 C 371.347 338.285,371.205 338.565,370.967 338.522 C 370.728 338.479,370.533 338.704,370.533 339.022 C 370.533 339.843,371.098 339.738,371.586 338.826 C 372.115 337.837,372.114 337.200,371.582 337.200 C 371.353 337.200,371.218 337.515,371.282 337.900 M368.832 354.343 C 368.807 355.070,368.955 355.226,369.478 355.026 C 370.071 354.798,370.064 354.867,369.416 355.583 C 369.009 356.032,368.878 356.400,369.124 356.400 C 369.528 356.400,370.400 355.188,370.400 354.626 C 370.400 354.502,370.145 354.400,369.833 354.400 C 369.522 354.400,369.176 354.175,369.065 353.900 C 368.954 353.625,368.849 353.824,368.832 354.343 M32.524 373.400 C 32.526 374.720,32.601 375.212,32.690 374.493 C 32.779 373.774,32.777 372.694,32.686 372.093 C 32.595 371.492,32.522 372.080,32.524 373.400 M367.630 372.164 C 367.309 372.550,367.294 372.811,367.581 372.988 C 368.139 373.333,368.800 372.893,368.800 372.176 C 368.800 371.442,368.234 371.436,367.630 372.164 M33.200 379.800 C 33.599 380.281,33.595 380.400,33.182 380.400 C 32.899 380.400,32.775 380.508,32.907 380.640 C 33.039 380.772,33.331 380.766,33.556 380.627 C 34.043 380.326,33.690 379.200,33.108 379.200 C 32.874 379.200,32.913 379.454,33.200 379.800 M367.320 382.000 C 367.320 383.210,367.395 383.705,367.487 383.100 C 367.578 382.495,367.578 381.505,367.487 380.900 C 367.395 380.295,367.320 380.790,367.320 382.000 M34.032 395.500 C 34.014 395.995,34.180 396.400,34.400 396.400 C 34.620 396.400,34.755 396.603,34.700 396.850 C 34.645 397.098,34.870 397.381,35.200 397.480 C 35.733 397.641,35.733 397.614,35.200 397.237 C 34.667 396.859,34.667 396.810,35.200 396.793 C 35.715 396.777,35.711 396.706,35.165 396.287 C 34.816 396.019,34.425 395.530,34.296 395.200 C 34.139 394.795,34.053 394.892,34.032 395.500 M361.368 410.052 C 361.027 410.604,361.810 411.365,362.365 411.022 C 362.604 410.874,362.800 410.603,362.800 410.419 C 362.800 409.887,361.652 409.593,361.368 410.052 M42.000 411.586 C 42.000 411.798,42.405 412.184,42.900 412.444 C 43.795 412.914,43.796 412.912,43.038 412.058 C 42.191 411.105,42.000 411.018,42.000 411.586 M329.397 419.317 C 329.234 419.712,329.213 420.147,329.351 420.284 C 329.488 420.421,329.600 420.329,329.600 420.079 C 329.600 419.829,329.870 419.729,330.200 419.855 C 330.530 419.982,330.800 419.876,330.800 419.619 C 330.800 419.363,330.635 419.255,330.434 419.379 C 330.233 419.503,329.984 419.379,329.881 419.102 C 329.754 418.763,329.597 418.832,329.397 419.317 M90.400 425.137 C 90.400 425.658,91.970 426.563,92.301 426.232 C 92.429 426.105,92.313 426.000,92.043 426.000 C 91.764 426.000,91.677 425.785,91.841 425.500 C 91.999 425.225,91.981 425.133,91.801 425.297 C 91.621 425.460,91.232 425.393,90.937 425.148 C 90.557 424.832,90.400 424.829,90.400 425.137 M292.646 429.526 C 292.480 429.794,292.132 429.886,291.872 429.730 C 291.613 429.574,291.653 429.759,291.963 430.140 C 292.572 430.891,293.420 430.461,293.118 429.555 C 292.985 429.156,292.878 429.150,292.646 429.526 M138.806 438.651 C 138.798 439.244,139.947 440.187,140.276 439.857 C 140.418 439.716,140.301 439.600,140.018 439.600 C 139.605 439.600,139.601 439.481,140.000 439.000 C 140.344 438.585,140.359 438.400,140.049 438.400 C 139.802 438.400,139.597 438.625,139.594 438.900 C 139.590 439.233,139.458 439.200,139.200 438.800 C 138.987 438.470,138.809 438.403,138.806 438.651 M259.700 439.061 C 259.736 439.549,259.971 439.832,260.251 439.725 C 260.866 439.489,261.307 438.400,260.787 438.400 C 260.574 438.400,260.397 438.625,260.394 438.900 C 260.390 439.235,260.263 439.203,260.012 438.805 C 259.712 438.331,259.648 438.384,259.700 439.061 M149.600 441.998 C 149.600 442.483,150.722 443.012,151.052 442.682 C 151.171 442.562,150.893 442.264,150.434 442.018 C 149.856 441.709,149.600 441.703,149.600 441.998 M218.100 450.676 C 218.485 450.776,219.115 450.776,219.500 450.676 C 219.885 450.575,219.570 450.493,218.800 450.493 C 218.030 450.493,217.715 450.575,218.100 450.676 M187.630 452.382 C 187.097 452.711,187.353 453.600,187.981 453.600 C 188.437 453.600,188.838 452.471,188.463 452.239 C 188.298 452.137,187.922 452.201,187.630 452.382 M211.439 452.337 C 211.131 452.835,211.877 453.723,212.355 453.428 C 212.600 453.276,212.800 453.003,212.800 452.819 C 212.800 452.363,211.671 451.962,211.439 452.337 " stroke="none" fill="#fcdc3c" fill-rule="evenodd"></path><path id="path1" d="M146.966 88.319 L 146.132 88.438 145.866 132.519 C 145.720 156.764,145.600 203.533,145.600 236.451 C 145.600 303.579,145.880 297.808,142.669 296.851 C 141.076 296.376,139.090 295.840,132.400 294.078 C 130.750 293.644,128.005 292.908,126.300 292.444 C 123.100 291.573,118.493 290.330,115.000 289.397 C 113.900 289.103,111.650 288.481,110.000 288.015 C 108.350 287.550,106.010 286.912,104.800 286.598 C 103.590 286.283,101.250 285.638,99.600 285.164 C 97.950 284.690,95.340 283.953,93.800 283.526 C 92.260 283.100,89.740 282.394,88.200 281.958 C 86.660 281.522,84.140 280.827,82.600 280.413 C 81.060 279.999,78.450 279.283,76.800 278.821 C 71.237 277.264,69.135 276.793,68.767 277.021 C 68.320 277.297,68.275 322.385,68.722 323.087 C 69.011 323.542,72.114 324.630,75.800 325.568 C 76.680 325.792,78.660 326.323,80.200 326.749 C 84.313 327.887,89.020 329.162,92.200 330.000 C 96.251 331.067,100.565 332.234,104.000 333.191 C 105.650 333.650,107.990 334.277,109.200 334.585 C 110.410 334.892,112.750 335.527,114.400 335.996 C 116.050 336.465,118.448 337.094,119.729 337.393 C 121.010 337.692,122.360 338.063,122.729 338.218 C 123.098 338.372,124.390 338.738,125.600 339.032 C 128.721 339.788,132.271 340.723,134.600 341.401 C 136.924 342.078,140.867 343.160,145.400 344.364 C 147.160 344.832,149.500 345.477,150.600 345.798 C 153.029 346.507,158.738 348.007,164.400 349.424 C 165.830 349.782,167.360 350.233,167.800 350.427 C 168.240 350.620,169.680 351.043,171.000 351.366 C 172.320 351.688,174.390 352.218,175.600 352.542 C 182.659 354.433,184.126 354.769,184.446 354.572 C 184.650 354.445,184.800 298.152,184.800 221.384 L 184.800 88.416 166.300 88.308 C 156.125 88.249,147.425 88.254,146.966 88.319 M217.769 99.200 C 217.769 103.710,217.827 105.555,217.898 103.300 C 217.970 101.045,217.970 97.355,217.898 95.100 C 217.827 92.845,217.769 94.690,217.769 99.200 M294.200 247.200 C 294.061 247.426,294.385 247.600,294.944 247.600 C 295.489 247.600,296.264 247.724,296.667 247.875 C 297.312 248.117,297.334 248.069,296.851 247.475 C 296.250 246.736,294.593 246.564,294.200 247.200 M217.744 314.400 C 217.744 316.490,217.812 317.345,217.894 316.300 C 217.976 315.255,217.976 313.545,217.894 312.500 C 217.812 311.455,217.744 312.310,217.744 314.400 " stroke="none" fill="#ebebeb" fill-rule="evenodd"></path><path id="path2" d="M0.000 5.000 C 0.000 8.730,0.127 10.002,0.500 10.006 C 0.866 10.011,0.854 10.105,0.455 10.358 C 0.121 10.569,0.074 10.761,0.334 10.852 C 0.611 10.949,0.787 13.940,0.842 19.484 C 0.898 25.083,1.064 27.884,1.331 27.719 C 1.572 27.570,1.635 27.731,1.488 28.114 C 1.312 28.573,1.413 28.693,1.837 28.531 C 2.165 28.405,2.404 28.459,2.369 28.651 C 2.176 29.707,2.440 44.893,2.648 44.686 C 3.572 43.761,3.909 45.789,3.902 52.246 C 3.896 58.753,4.105 60.739,4.847 61.219 C 5.034 61.340,5.215 64.580,5.250 68.419 C 5.291 72.812,5.479 75.614,5.757 75.977 C 6.094 76.416,6.080 76.482,5.700 76.253 C 4.964 75.811,5.091 76.335,6.000 77.491 C 6.987 78.745,7.045 79.488,6.100 78.756 C 5.437 78.243,5.436 78.257,6.082 79.019 C 6.658 79.698,6.773 80.834,6.819 86.338 C 6.859 90.987,7.032 93.155,7.424 93.911 C 7.795 94.627,7.837 95.054,7.553 95.229 C 7.294 95.389,7.376 95.582,7.766 95.732 C 8.312 95.941,8.400 96.971,8.400 103.138 C 8.400 109.492,8.479 110.362,9.100 110.832 C 9.696 111.282,9.725 111.278,9.300 110.801 C 9.025 110.492,8.800 110.056,8.800 109.831 C 8.800 109.606,9.058 109.790,9.373 110.240 C 9.822 110.882,9.962 112.956,10.021 119.829 C 10.084 127.169,10.199 128.717,10.726 129.318 C 11.241 129.904,11.374 131.337,11.451 137.118 C 11.563 145.572,11.506 144.800,12.024 144.800 C 12.257 144.800,12.336 144.620,12.200 144.400 C 12.064 144.180,12.143 144.000,12.376 144.000 C 12.656 144.000,12.816 146.280,12.846 150.700 C 12.891 157.224,13.011 160.793,13.201 161.200 C 13.253 161.310,13.271 161.580,13.242 161.800 C 13.212 162.020,13.444 161.874,13.756 161.476 C 14.254 160.840,14.331 161.426,14.380 166.276 C 14.482 176.172,14.597 178.357,15.035 178.795 C 15.344 179.104,15.467 179.057,15.467 178.631 C 15.467 178.303,15.289 178.145,15.072 178.279 C 14.851 178.416,14.802 178.320,14.962 178.062 C 15.744 176.796,15.943 178.243,15.983 185.485 C 16.026 193.189,16.097 193.657,17.291 194.093 C 17.452 194.152,17.598 198.299,17.616 203.308 C 17.635 208.354,17.805 212.321,17.997 212.202 C 18.658 211.794,18.771 212.702,18.882 219.302 C 18.943 222.946,19.105 225.859,19.241 225.775 C 19.377 225.691,19.359 226.332,19.200 227.200 C 19.041 228.068,19.006 228.873,19.122 228.989 C 19.481 229.348,20.000 229.222,20.000 228.776 C 20.000 228.543,19.792 228.481,19.538 228.638 C 19.241 228.822,19.185 228.747,19.383 228.427 C 20.110 227.252,20.345 229.088,20.468 236.904 C 20.569 243.224,20.716 245.164,21.087 245.022 C 21.909 244.706,21.962 245.197,22.038 253.965 C 22.109 262.033,22.151 262.454,22.856 262.269 C 23.562 262.085,23.600 262.461,23.600 269.557 C 23.600 274.990,23.737 277.188,24.100 277.579 C 24.500 278.010,24.500 278.061,24.100 277.835 C 23.343 277.408,23.501 278.043,24.386 278.986 C 25.108 279.754,25.177 280.451,25.217 287.437 C 25.241 291.624,25.424 295.309,25.624 295.625 C 25.934 296.115,25.989 296.117,25.994 295.633 C 25.997 295.322,26.108 295.175,26.241 295.307 C 26.373 295.440,26.483 298.485,26.485 302.074 C 26.486 305.663,26.654 308.915,26.858 309.300 C 27.062 309.685,27.073 310.000,26.884 310.000 C 26.695 310.000,26.553 310.612,26.570 311.360 C 26.586 312.108,26.723 312.645,26.872 312.554 C 27.022 312.462,27.258 312.570,27.396 312.793 C 27.534 313.017,27.446 313.200,27.200 313.200 C 26.954 313.200,26.866 313.383,27.004 313.607 C 27.142 313.830,27.423 313.909,27.628 313.783 C 27.935 313.593,28.191 320.604,28.078 326.100 C 28.066 326.705,28.268 327.203,28.528 327.206 C 28.843 327.210,28.823 327.325,28.466 327.551 C 27.738 328.012,27.811 328.307,28.882 329.252 C 29.387 329.697,29.575 329.947,29.300 329.807 C 28.709 329.507,28.617 330.240,29.200 330.600 C 29.442 330.750,29.600 333.612,29.600 337.847 C 29.600 343.331,29.708 344.786,30.100 344.565 C 30.500 344.339,30.500 344.390,30.100 344.821 C 29.403 345.572,29.473 345.874,30.400 346.116 C 31.248 346.338,31.225 345.964,31.289 360.600 C 31.294 361.700,31.478 362.825,31.698 363.100 C 31.918 363.375,31.941 363.603,31.749 363.606 C 31.557 363.609,31.649 363.770,31.953 363.962 C 32.382 364.234,32.530 365.883,32.613 371.329 C 32.715 378.071,32.886 379.441,33.570 379.019 C 33.743 378.912,33.931 381.294,33.988 384.312 C 34.139 392.257,34.178 392.951,34.507 393.466 C 34.671 393.722,34.628 393.992,34.413 394.066 C 33.950 394.224,34.337 396.000,34.834 396.000 C 35.022 396.000,35.062 395.685,34.924 395.300 C 34.786 394.915,34.805 394.719,34.966 394.863 C 35.463 395.309,35.511 396.584,35.043 396.894 C 34.734 397.099,34.751 397.190,35.100 397.194 C 35.473 397.198,35.600 398.460,35.600 402.150 C 35.600 407.767,35.858 409.600,36.650 409.600 C 36.953 409.600,37.200 409.780,37.200 410.000 C 37.200 410.220,37.391 410.400,37.624 410.400 C 37.857 410.400,37.936 410.220,37.800 410.000 C 37.664 409.780,37.812 409.600,38.130 409.600 C 38.447 409.600,38.801 409.960,38.916 410.400 C 39.093 411.077,39.462 411.200,41.318 411.200 C 43.109 411.200,43.501 411.321,43.456 411.858 C 43.413 412.368,43.850 412.555,45.400 412.690 C 46.500 412.786,47.757 413.165,48.193 413.532 C 48.940 414.161,48.955 414.160,48.444 413.500 C 47.695 412.533,48.668 412.539,49.553 413.507 C 49.962 413.955,50.829 414.231,51.914 414.258 C 52.879 414.283,53.942 414.585,54.346 414.951 C 54.740 415.308,55.740 415.600,56.568 415.600 C 57.468 415.600,58.483 415.922,59.091 416.400 C 59.821 416.974,60.714 417.200,62.254 417.200 C 64.133 417.200,64.400 417.299,64.400 418.000 C 64.400 418.734,64.667 418.800,67.624 418.800 C 69.397 418.800,70.749 418.960,70.628 419.155 C 70.237 419.788,71.443 420.399,73.040 420.379 C 74.929 420.354,75.874 420.531,76.288 420.986 C 76.460 421.174,76.377 421.200,76.105 421.043 C 75.793 420.864,75.683 420.952,75.809 421.279 C 75.932 421.600,76.699 421.800,77.804 421.800 C 78.792 421.800,79.587 421.973,79.570 422.184 C 79.522 422.808,80.837 423.142,83.463 423.172 C 85.752 423.198,85.910 423.258,85.708 424.030 C 85.561 424.593,85.670 424.835,86.045 424.783 C 88.261 424.473,92.067 424.848,91.872 425.356 C 91.651 425.932,93.100 426.400,95.106 426.400 C 95.659 426.400,96.326 426.693,96.588 427.051 C 97.076 427.718,97.724 427.860,100.700 427.949 C 101.922 427.986,102.400 428.169,102.400 428.600 C 102.400 429.142,103.888 429.391,106.667 429.313 C 106.925 429.306,107.070 429.637,106.990 430.050 C 106.911 430.462,107.016 430.800,107.223 430.800 C 107.430 430.800,107.605 430.485,107.612 430.100 C 107.624 429.433,107.644 429.433,108.032 430.100 C 108.349 430.645,108.977 430.800,110.867 430.800 C 113.023 430.800,113.272 430.882,113.102 431.533 C 112.996 431.937,113.110 432.278,113.355 432.292 C 113.600 432.306,115.000 432.361,116.466 432.416 C 118.671 432.497,119.111 432.626,119.008 433.158 C 118.909 433.672,119.301 433.826,120.942 433.917 C 123.409 434.055,124.484 434.341,124.208 434.787 C 123.912 435.267,124.747 435.467,126.900 435.431 C 128.542 435.404,128.801 435.509,128.806 436.200 C 128.811 436.863,128.879 436.897,129.200 436.400 C 129.458 436.000,129.590 435.967,129.594 436.300 C 129.598 436.644,130.355 436.800,132.024 436.800 C 133.357 436.800,134.349 436.960,134.228 437.155 C 133.799 437.849,135.036 438.297,137.561 438.362 C 140.245 438.431,140.954 438.627,140.600 439.200 C 140.259 439.751,140.892 439.946,143.343 440.046 C 144.605 440.097,145.748 440.315,145.881 440.531 C 146.014 440.747,145.928 440.803,145.689 440.655 C 145.451 440.508,145.142 440.570,145.004 440.793 C 144.866 441.017,144.988 441.219,145.276 441.243 C 145.564 441.266,146.070 441.325,146.400 441.374 C 146.730 441.423,147.843 441.494,148.873 441.532 C 150.290 441.583,150.802 441.776,150.975 442.322 C 151.103 442.725,151.601 443.054,152.102 443.065 C 155.238 443.139,155.600 443.220,155.600 443.849 C 155.600 444.408,155.694 444.422,156.277 443.949 C 156.737 443.576,156.857 443.560,156.653 443.900 C 156.425 444.280,156.987 444.400,158.994 444.400 C 161.287 444.400,161.620 444.492,161.518 445.100 C 161.419 445.688,161.767 445.819,163.700 445.920 C 165.299 446.003,166.000 446.204,166.000 446.577 C 166.000 447.295,166.563 447.459,169.379 447.561 C 171.217 447.628,171.882 447.824,172.302 448.424 C 172.752 449.067,173.337 449.202,175.723 449.213 C 178.340 449.224,178.530 449.279,177.824 449.813 C 176.931 450.488,177.386 450.562,181.600 450.431 C 183.187 450.381,183.634 450.474,183.203 450.764 C 182.157 451.470,183.271 451.964,186.083 452.041 C 187.962 452.093,188.823 452.283,188.975 452.678 C 189.094 452.989,189.013 453.132,188.795 452.997 C 188.578 452.863,188.400 452.943,188.400 453.176 C 188.400 453.431,189.437 453.600,191.000 453.600 C 192.467 453.600,193.600 453.774,193.600 454.000 C 193.600 454.250,196.000 454.400,200.000 454.400 C 204.000 454.400,206.400 454.250,206.400 454.000 C 206.400 453.774,207.542 453.600,209.027 453.600 C 211.499 453.600,211.638 453.551,211.392 452.774 C 211.212 452.208,211.298 451.972,211.665 452.022 C 213.209 452.232,217.217 451.951,217.028 451.645 C 216.667 451.061,217.881 450.330,219.080 450.410 C 221.541 450.574,223.018 450.399,222.412 450.016 C 221.526 449.456,221.936 449.306,225.000 449.070 C 226.540 448.952,227.839 448.842,227.887 448.827 C 227.936 448.812,227.871 448.530,227.745 448.200 C 227.557 447.711,227.925 447.600,229.730 447.600 C 231.533 447.600,231.990 447.462,232.180 446.861 C 232.369 446.269,232.867 446.109,234.707 446.052 C 237.536 445.965,238.400 445.712,238.400 444.973 C 238.400 444.544,238.962 444.400,240.637 444.400 C 242.538 444.400,242.906 444.280,243.084 443.600 C 243.199 443.160,243.587 442.803,243.947 442.806 C 244.515 442.811,244.522 442.863,244.000 443.200 C 243.639 443.433,243.590 443.590,243.876 443.594 C 244.138 443.597,244.445 443.451,244.558 443.268 C 244.671 443.085,245.661 442.955,246.758 442.978 C 248.355 443.012,248.791 442.879,248.939 442.310 C 249.041 441.920,249.457 441.586,249.863 441.570 C 251.106 441.519,254.171 441.322,254.700 441.259 C 254.975 441.227,255.200 440.930,255.200 440.600 C 255.200 440.079,257.649 439.692,259.300 439.953 C 259.465 439.979,259.600 439.640,259.600 439.200 C 259.600 438.469,263.173 437.958,265.368 438.375 C 265.570 438.414,265.480 438.130,265.168 437.746 C 264.855 437.361,264.813 437.174,265.072 437.330 C 265.332 437.486,265.658 437.430,265.796 437.207 C 265.934 436.983,267.046 436.800,268.266 436.800 C 270.053 436.800,270.442 436.686,270.260 436.213 C 269.974 435.467,270.732 434.972,271.296 435.536 C 271.531 435.771,272.010 435.827,272.361 435.660 C 272.713 435.494,273.676 435.370,274.503 435.385 C 275.603 435.404,276.066 435.222,276.230 434.706 C 276.436 434.057,278.182 433.768,281.127 433.897 C 281.416 433.910,281.554 433.821,281.433 433.700 C 280.943 433.210,282.707 432.425,284.324 432.413 C 285.594 432.403,285.968 432.268,285.747 431.900 C 285.523 431.527,285.610 431.533,286.090 431.921 C 286.636 432.364,286.772 432.319,286.993 431.621 C 287.241 430.841,288.917 430.536,292.000 430.707 C 292.474 430.734,292.453 430.633,291.900 430.226 C 290.888 429.483,291.019 429.336,292.700 429.331 C 295.336 429.323,296.989 429.045,297.400 428.542 C 297.620 428.272,298.790 427.982,300.000 427.898 C 301.235 427.811,302.200 427.552,302.200 427.305 C 302.200 427.064,302.364 426.717,302.564 426.533 C 302.774 426.342,302.813 426.401,302.658 426.672 C 302.509 426.932,302.570 427.258,302.793 427.396 C 303.017 427.534,303.200 427.367,303.200 427.024 C 303.200 426.426,305.054 426.143,307.356 426.389 C 307.939 426.451,308.062 426.279,307.893 425.635 C 307.685 424.838,307.826 424.800,310.993 424.800 C 313.908 424.800,314.304 424.715,314.256 424.100 C 314.211 423.537,314.630 423.354,316.400 423.165 C 317.610 423.036,318.452 422.901,318.271 422.865 C 316.919 422.597,319.404 421.718,321.319 421.787 C 322.947 421.846,323.600 421.723,323.600 421.358 C 323.600 421.077,323.778 420.737,323.995 420.603 C 324.222 420.463,324.289 420.623,324.153 420.979 C 324.022 421.321,324.114 421.600,324.357 421.600 C 324.601 421.600,324.800 421.330,324.800 421.000 C 324.800 420.590,325.212 420.399,326.100 420.397 C 326.815 420.396,327.940 420.037,328.600 419.600 C 329.344 419.108,330.485 418.802,331.600 418.797 C 333.977 418.786,335.200 418.432,335.200 417.753 C 335.200 417.392,335.666 417.200,336.544 417.200 C 338.847 417.200,341.592 416.710,341.363 416.340 C 341.243 416.146,340.932 416.106,340.672 416.252 C 340.349 416.434,340.326 416.380,340.600 416.082 C 340.820 415.842,342.115 415.607,343.478 415.558 C 344.912 415.507,345.924 415.297,345.878 415.060 C 345.792 414.606,348.470 414.035,349.933 414.195 C 350.664 414.275,350.825 414.138,350.674 413.562 C 350.569 413.158,350.599 412.843,350.741 412.861 C 352.812 413.131,356.055 412.720,355.860 412.213 C 355.736 411.890,355.835 411.502,356.079 411.351 C 356.348 411.185,356.411 411.259,356.238 411.538 C 356.081 411.792,356.128 412.000,356.343 412.000 C 356.558 412.000,356.793 411.830,356.867 411.622 C 356.940 411.415,358.010 411.205,359.245 411.156 C 361.237 411.078,361.468 410.981,361.291 410.304 C 361.160 409.805,361.283 409.567,361.645 409.617 C 363.859 409.927,364.268 409.653,364.338 407.819 C 364.375 406.839,364.776 405.409,365.229 404.641 C 365.906 403.494,365.969 403.090,365.586 402.374 C 365.330 401.895,365.283 401.604,365.482 401.727 C 365.799 401.923,365.889 400.041,365.982 391.276 C 365.992 390.328,366.161 389.652,366.358 389.774 C 366.555 389.896,366.816 389.736,366.938 389.418 C 367.085 389.033,366.966 388.915,366.580 389.063 C 365.800 389.362,365.842 388.803,366.644 388.217 C 367.196 387.814,367.296 386.599,367.344 379.774 C 367.393 372.762,367.484 371.717,368.100 371.101 C 368.723 370.477,368.800 369.459,368.800 361.844 C 368.800 353.942,368.853 353.293,369.500 353.344 C 370.143 353.395,370.209 352.722,370.308 345.100 C 370.368 340.535,370.576 336.800,370.771 336.800 C 370.966 336.800,371.078 337.115,371.020 337.500 C 370.962 337.885,370.992 337.975,371.087 337.700 C 371.181 337.425,371.395 337.200,371.562 337.200 C 371.931 337.200,371.873 335.965,371.475 335.321 C 371.316 335.065,371.370 334.742,371.593 334.604 C 371.841 334.451,372.000 331.872,372.000 328.000 C 372.000 324.196,372.161 321.548,372.400 321.400 C 372.620 321.264,372.797 320.938,372.794 320.676 C 372.790 320.390,372.633 320.439,372.400 320.800 C 372.125 321.226,372.010 321.250,372.006 320.883 C 372.003 320.599,372.360 319.980,372.800 319.508 C 373.680 318.563,373.824 318.000,373.186 318.000 C 372.919 318.000,372.902 317.752,373.138 317.300 C 373.340 316.915,373.506 313.673,373.509 310.096 C 373.512 304.857,373.636 303.405,374.143 302.631 C 374.652 301.853,374.781 300.289,374.818 294.439 C 374.848 289.762,375.016 287.114,375.294 286.942 C 375.547 286.785,375.608 286.864,375.441 287.134 C 375.264 287.420,375.370 287.510,375.723 287.374 C 376.066 287.242,376.292 286.576,376.298 285.679 C 376.303 284.865,376.328 281.084,376.354 277.276 C 376.384 272.700,376.538 270.438,376.807 270.604 C 377.030 270.742,377.092 271.051,376.945 271.289 C 376.779 271.557,376.864 271.608,377.165 271.421 C 377.434 271.255,377.560 270.873,377.445 270.572 C 377.329 270.272,377.387 269.932,377.572 269.817 C 377.758 269.702,377.948 266.052,377.995 261.704 C 378.041 257.357,378.091 253.600,378.106 253.356 C 378.121 253.111,378.399 252.931,378.725 252.956 C 379.065 252.981,379.348 252.618,379.391 252.100 C 379.432 251.605,379.271 251.197,379.033 251.194 C 378.732 251.190,378.729 251.098,379.022 250.894 C 379.513 250.552,379.498 250.809,379.556 242.000 C 379.595 236.023,379.678 235.200,380.247 235.200 C 380.719 235.200,380.842 234.933,380.704 234.212 C 380.601 233.669,380.639 233.300,380.789 233.393 C 380.940 233.486,381.068 232.086,381.075 230.281 C 381.106 221.836,381.300 218.432,381.745 218.515 C 382.070 218.576,382.231 216.260,382.309 210.411 C 382.381 204.984,382.569 202.084,382.867 201.811 C 383.193 201.514,383.243 201.610,383.050 202.157 C 382.832 202.772,382.886 202.826,383.342 202.448 C 383.783 202.082,383.917 200.337,383.970 194.291 C 384.043 185.802,384.109 184.908,384.638 185.200 C 384.837 185.310,384.940 185.580,384.867 185.800 C 384.793 186.020,384.872 186.061,385.041 185.892 C 385.463 185.470,385.545 183.987,385.132 184.242 C 384.949 184.355,384.800 184.257,384.800 184.024 C 384.800 183.791,384.960 183.600,385.155 183.600 C 385.351 183.600,385.517 182.745,385.525 181.700 C 385.533 180.655,385.553 177.584,385.570 174.876 C 385.586 172.168,385.744 170.042,385.920 170.151 C 386.746 170.661,387.040 168.358,387.138 160.609 C 387.237 152.815,387.301 152.165,388.042 151.475 C 388.620 150.937,388.725 150.592,388.424 150.229 C 388.195 149.952,388.121 149.612,388.260 149.473 C 388.400 149.334,388.555 145.968,388.605 141.995 C 388.656 138.021,388.839 134.642,389.012 134.485 C 389.186 134.328,389.211 134.524,389.068 134.921 C 388.926 135.317,388.964 135.546,389.153 135.429 C 389.798 135.030,389.979 132.805,390.017 124.796 C 390.041 119.867,390.201 116.877,390.434 117.021 C 390.643 117.150,390.711 117.421,390.586 117.623 C 390.461 117.825,390.627 117.888,390.955 117.762 C 391.454 117.570,391.556 116.279,391.574 109.866 C 391.596 102.415,391.622 102.179,392.498 101.447 L 393.400 100.693 392.500 100.974 C 391.954 101.144,391.600 101.086,391.600 100.827 C 391.600 100.592,391.735 100.421,391.900 100.447 C 392.930 100.610,393.281 100.379,392.830 99.836 C 392.509 99.450,392.494 99.189,392.781 99.012 C 393.048 98.847,393.200 96.178,393.200 91.665 C 393.200 85.073,393.256 84.530,394.000 83.893 C 394.848 83.167,395.121 82.155,394.338 82.638 C 394.021 82.834,393.988 82.748,394.232 82.362 C 394.618 81.751,394.691 80.485,394.790 72.600 C 394.832 69.291,394.981 67.691,395.200 68.200 C 395.480 68.852,395.549 68.875,395.572 68.324 C 395.587 67.952,395.409 67.529,395.176 67.385 C 394.905 67.218,394.996 66.945,395.425 66.631 C 396.012 66.202,396.105 65.164,396.149 58.569 C 396.195 51.691,396.262 51.005,396.884 51.053 C 397.261 51.082,397.554 50.992,397.537 50.853 C 397.104 47.398,397.706 35.259,398.300 35.450 C 398.862 35.631,398.887 35.596,398.428 35.270 C 397.715 34.764,397.531 33.690,398.097 33.340 C 398.349 33.184,398.407 33.266,398.238 33.538 C 398.074 33.804,398.193 34.000,398.520 34.000 C 398.992 34.000,399.101 32.456,399.163 24.900 C 399.207 19.572,399.396 15.745,399.619 15.667 C 399.843 15.588,400.000 12.323,400.000 7.767 L 400.000 0.000 200.000 0.000 L 0.000 0.000 0.000 5.000 M363.633 36.639 C 364.075 37.172,364.044 38.625,363.450 45.339 C 363.058 49.773,362.489 56.533,362.186 60.363 C 361.883 64.192,361.459 68.602,361.243 70.163 C 361.027 71.723,360.743 74.980,360.612 77.400 C 360.481 79.820,360.195 83.150,359.976 84.800 C 359.757 86.450,359.316 91.130,358.994 95.200 C 358.673 99.270,358.233 104.490,358.016 106.800 C 357.623 110.993,357.210 115.756,356.421 125.200 C 356.191 127.950,355.729 132.990,355.395 136.400 C 354.757 142.908,353.797 153.827,353.181 161.600 C 352.980 164.130,352.548 168.990,352.221 172.400 C 351.622 178.638,351.250 182.878,350.203 195.400 C 349.890 199.140,349.444 204.090,349.211 206.400 C 348.671 211.753,347.675 223.145,347.183 229.600 C 346.973 232.350,346.626 236.040,346.411 237.800 C 346.196 239.560,345.831 243.790,345.599 247.200 C 345.367 250.610,345.007 254.660,344.799 256.200 C 344.592 257.740,344.227 261.880,343.990 265.400 C 343.752 268.920,343.398 272.880,343.203 274.200 C 343.008 275.520,342.733 278.490,342.593 280.800 C 342.453 283.110,342.093 287.340,341.792 290.200 C 341.492 293.060,341.139 296.930,341.009 298.800 C 340.879 300.670,340.512 304.810,340.193 308.000 C 339.875 311.190,339.437 316.050,339.220 318.800 C 338.805 324.071,338.232 330.615,337.574 337.600 C 337.357 339.910,336.913 345.220,336.589 349.400 C 336.265 353.580,335.826 358.260,335.613 359.800 C 335.401 361.340,335.119 364.490,334.987 366.800 C 334.855 369.110,334.566 372.425,334.345 374.168 C 334.124 375.910,333.793 379.214,333.609 381.510 C 333.180 386.867,334.696 386.018,317.400 390.592 C 316.300 390.883,313.690 391.605,311.600 392.195 C 309.510 392.786,306.810 393.513,305.600 393.811 C 300.561 395.051,292.691 397.230,292.069 397.556 C 291.701 397.749,290.590 398.032,289.600 398.185 C 288.610 398.338,286.720 398.798,285.400 399.207 C 282.635 400.064,279.545 400.933,276.400 401.738 C 275.190 402.047,272.580 402.761,270.600 403.323 C 268.620 403.886,265.200 404.815,263.000 405.389 C 258.169 406.649,255.010 407.532,253.400 408.070 C 252.740 408.291,251.030 408.708,249.600 408.998 C 248.170 409.287,246.550 409.710,246.000 409.937 C 244.759 410.450,239.857 411.856,238.073 412.211 C 237.343 412.357,236.263 412.727,235.673 413.035 C 235.083 413.343,233.970 413.597,233.200 413.600 C 232.430 413.603,231.281 413.876,230.647 414.206 C 230.013 414.537,228.753 414.910,227.847 415.035 C 226.941 415.160,225.840 415.424,225.400 415.623 C 224.517 416.021,213.135 419.054,210.600 419.567 C 209.720 419.745,207.582 420.365,205.849 420.945 C 201.879 422.274,200.576 422.310,200.252 421.100 C 199.614 418.720,199.988 37.269,200.629 36.629 C 201.601 35.656,362.826 35.667,363.633 36.639 M185.511 87.823 L 186.400 88.445 186.400 221.449 C 186.400 312.367,186.269 354.697,185.986 355.226 C 185.476 356.178,183.399 356.265,181.746 355.402 C 181.116 355.074,180.202 354.804,179.715 354.802 C 179.228 354.801,177.916 354.440,176.800 354.000 C 175.684 353.560,174.309 353.200,173.746 353.200 C 173.182 353.200,172.154 352.951,171.460 352.647 C 170.767 352.343,169.120 351.873,167.800 351.602 C 166.480 351.331,165.220 350.994,165.000 350.854 C 164.780 350.715,163.610 350.386,162.400 350.124 C 161.190 349.862,158.850 349.263,157.200 348.793 C 155.550 348.324,152.940 347.607,151.400 347.200 C 149.860 346.793,147.250 346.080,145.600 345.615 C 143.950 345.150,141.464 344.507,140.076 344.186 C 138.687 343.865,137.247 343.443,136.876 343.248 C 136.504 343.052,135.390 342.761,134.400 342.599 C 133.410 342.438,132.114 342.057,131.520 341.753 C 130.926 341.449,130.066 341.200,129.610 341.200 C 129.153 341.200,127.756 340.840,126.504 340.400 C 125.252 339.960,123.799 339.600,123.274 339.600 C 122.750 339.600,121.754 339.350,121.060 339.044 C 119.734 338.458,116.220 337.508,112.200 336.648 C 110.880 336.366,109.440 335.949,109.000 335.722 C 108.560 335.495,107.399 335.187,106.420 335.037 C 105.441 334.887,104.451 334.612,104.220 334.426 C 103.989 334.239,102.720 333.872,101.400 333.609 C 100.080 333.346,98.190 332.887,97.200 332.590 C 93.262 331.406,87.447 329.846,84.000 329.048 C 82.790 328.768,81.407 328.327,80.926 328.069 C 80.446 327.811,79.681 327.600,79.228 327.600 C 78.774 327.600,77.367 327.256,76.102 326.835 C 74.836 326.414,73.088 325.949,72.219 325.801 C 71.349 325.654,69.978 325.197,69.171 324.785 L 67.705 324.037 67.514 300.719 C 67.409 287.893,67.471 276.995,67.651 276.500 C 68.042 275.431,69.995 275.283,71.600 276.200 C 72.150 276.514,72.960 276.775,73.400 276.780 C 73.840 276.785,75.415 277.151,76.900 277.594 C 78.385 278.037,80.905 278.765,82.500 279.210 C 84.095 279.656,86.210 280.273,87.200 280.582 C 88.190 280.891,89.720 281.270,90.600 281.424 C 91.480 281.579,92.560 281.893,93.000 282.122 C 93.440 282.351,94.790 282.770,96.000 283.054 C 97.210 283.337,99.550 283.953,101.200 284.422 C 102.850 284.891,105.190 285.514,106.400 285.806 C 107.610 286.098,109.140 286.530,109.800 286.768 C 110.943 287.179,113.924 287.981,117.400 288.812 C 118.280 289.023,119.990 289.481,121.200 289.831 C 125.576 291.095,128.635 291.947,130.400 292.392 C 131.390 292.642,133.550 293.206,135.200 293.645 C 136.850 294.084,139.206 294.675,140.437 294.959 C 141.667 295.242,142.861 295.591,143.091 295.733 C 144.446 296.570,144.787 266.721,144.796 146.329 C 144.800 94.255,144.863 88.394,145.429 87.829 C 146.376 86.882,184.159 86.876,185.511 87.823 M340.400 107.151 C 340.400 107.962,341.432 108.367,341.492 107.580 C 341.525 107.141,341.299 106.800,340.975 106.800 C 340.659 106.800,340.400 106.958,340.400 107.151 M217.478 109.056 C 217.107 109.426,217.553 110.000,218.211 110.000 C 218.548 110.000,218.682 109.758,218.545 109.400 C 218.301 108.764,217.899 108.634,217.478 109.056 M11.418 128.772 C 11.024 129.408,10.391 128.890,10.671 128.160 C 10.824 127.759,11.042 127.682,11.298 127.938 C 11.514 128.154,11.568 128.529,11.418 128.772 M321.428 199.555 C 321.308 199.750,321.567 200.003,322.004 200.117 C 322.967 200.369,323.454 199.783,322.565 199.442 C 321.747 199.128,321.688 199.134,321.428 199.555 M280.912 204.284 C 280.796 204.587,280.813 204.947,280.951 205.084 C 281.088 205.221,281.200 205.023,281.200 204.643 C 281.200 204.263,281.368 204.056,281.572 204.183 C 281.777 204.309,282.039 204.260,282.155 204.073 C 282.270 203.886,282.086 203.733,281.744 203.733 C 281.403 203.733,281.029 203.981,280.912 204.284 M267.257 205.956 C 266.879 206.196,266.849 206.383,267.157 206.574 C 267.401 206.724,267.600 206.670,267.600 206.453 C 267.600 206.236,267.915 205.976,268.300 205.876 C 268.796 205.746,268.825 205.681,268.400 205.653 C 268.070 205.630,267.556 205.767,267.257 205.956 M286.097 247.776 C 286.260 247.969,286.205 248.354,285.974 248.631 C 285.666 249.002,285.717 249.112,286.166 249.046 C 287.155 248.901,287.267 248.550,286.510 247.970 C 286.119 247.671,285.933 247.584,286.097 247.776 M296.800 248.575 C 297.345 249.279,297.336 249.326,296.700 249.087 C 296.315 248.943,296.000 248.978,296.000 249.166 C 296.000 249.353,296.360 249.601,296.800 249.716 C 297.803 249.978,297.867 249.107,296.900 248.349 C 296.252 247.841,296.245 247.858,296.800 248.575 M325.417 291.172 C 325.144 291.614,325.775 292.092,326.144 291.722 C 326.525 291.342,326.454 290.800,326.024 290.800 C 325.817 290.800,325.544 290.968,325.417 291.172 M32.700 363.033 C 32.319 363.415,31.555 362.797,31.839 362.338 C 32.007 362.064,32.231 362.071,32.518 362.358 C 32.754 362.594,32.836 362.898,32.700 363.033 " stroke="none" fill="#d4bb33" fill-rule="evenodd"></path><path id="path3" d="M145.429 87.829 C 144.863 88.394,144.799 94.331,144.792 147.129 C 144.781 235.019,144.399 295.338,143.852 295.696 C 143.603 295.858,143.130 295.882,142.800 295.747 C 142.470 295.612,141.390 295.334,140.400 295.128 C 139.410 294.922,138.240 294.589,137.800 294.387 C 137.026 294.033,134.327 293.326,129.448 292.198 C 128.154 291.898,126.624 291.462,126.048 291.227 C 125.471 290.992,124.190 290.626,123.200 290.414 C 119.737 289.670,116.190 288.708,115.000 288.191 C 114.340 287.904,112.919 287.539,111.841 287.380 C 110.764 287.221,109.414 286.847,108.841 286.548 C 108.269 286.249,107.399 286.004,106.908 286.002 C 106.418 286.001,105.338 285.731,104.508 285.402 C 103.679 285.073,102.190 284.630,101.200 284.418 C 100.210 284.206,97.780 283.566,95.800 282.995 C 93.820 282.425,91.390 281.774,90.400 281.549 C 89.410 281.324,88.060 280.904,87.400 280.616 C 86.740 280.328,85.349 279.971,84.309 279.823 C 83.269 279.675,82.326 279.405,82.214 279.222 C 82.101 279.040,81.332 278.770,80.504 278.622 C 79.010 278.355,75.113 277.275,71.525 276.134 C 69.045 275.345,67.913 275.539,67.627 276.800 C 67.106 279.098,67.780 324.017,68.341 324.364 C 69.323 324.970,78.157 327.492,84.400 328.948 C 85.610 329.231,86.960 329.650,87.400 329.880 C 87.840 330.110,89.081 330.426,90.159 330.582 C 91.236 330.739,92.406 331.030,92.759 331.230 C 93.111 331.430,94.480 331.854,95.800 332.173 C 97.951 332.691,99.877 333.192,106.600 334.979 C 107.700 335.272,109.050 335.687,109.600 335.901 C 110.150 336.116,111.456 336.417,112.502 336.570 C 113.548 336.724,114.898 337.107,115.502 337.422 C 116.106 337.737,117.004 337.996,117.498 337.998 C 117.993 337.999,119.433 338.334,120.698 338.742 C 123.151 339.533,125.255 340.123,128.800 341.014 C 132.536 341.952,135.745 342.829,137.000 343.256 C 137.660 343.480,139.190 343.906,140.400 344.201 C 142.965 344.828,145.189 345.417,148.800 346.425 C 150.230 346.824,152.840 347.527,154.600 347.985 C 156.360 348.444,158.430 349.025,159.200 349.276 C 159.970 349.527,161.590 349.967,162.800 350.253 C 167.585 351.385,170.236 352.091,171.000 352.439 C 171.440 352.639,172.750 352.979,173.911 353.193 C 175.072 353.408,176.336 353.752,176.720 353.957 C 177.104 354.163,178.314 354.508,179.409 354.726 C 180.504 354.943,181.953 355.346,182.629 355.621 C 184.706 356.467,185.911 355.885,186.192 353.898 C 186.949 348.561,186.197 88.334,185.424 87.768 C 184.196 86.870,146.329 86.928,145.429 87.829 M184.800 221.384 C 184.800 298.152,184.650 354.445,184.446 354.572 C 184.126 354.769,182.659 354.433,175.600 352.542 C 174.390 352.218,172.320 351.688,171.000 351.366 C 169.680 351.043,168.240 350.620,167.800 350.427 C 167.360 350.233,165.830 349.782,164.400 349.424 C 158.738 348.007,153.029 346.507,150.600 345.798 C 149.500 345.477,147.160 344.832,145.400 344.364 C 140.867 343.160,136.924 342.078,134.600 341.401 C 132.271 340.723,128.721 339.788,125.600 339.032 C 124.390 338.738,123.098 338.372,122.729 338.218 C 122.360 338.063,121.010 337.692,119.729 337.393 C 118.448 337.094,116.050 336.465,114.400 335.996 C 112.750 335.527,110.410 334.892,109.200 334.585 C 107.990 334.277,105.650 333.650,104.000 333.191 C 100.565 332.234,96.251 331.067,92.200 330.000 C 89.020 329.162,84.313 327.887,80.200 326.749 C 78.660 326.323,76.680 325.792,75.800 325.568 C 72.114 324.630,69.011 323.542,68.722 323.087 C 68.275 322.385,68.320 277.297,68.767 277.021 C 69.135 276.793,71.237 277.264,76.800 278.821 C 78.450 279.283,81.060 279.999,82.600 280.413 C 84.140 280.827,86.660 281.522,88.200 281.958 C 89.740 282.394,92.260 283.100,93.800 283.526 C 95.340 283.953,97.950 284.690,99.600 285.164 C 101.250 285.638,103.590 286.283,104.800 286.598 C 106.010 286.912,108.350 287.550,110.000 288.015 C 111.650 288.481,113.900 289.103,115.000 289.397 C 118.493 290.330,123.100 291.573,126.300 292.444 C 128.005 292.908,130.750 293.644,132.400 294.078 C 139.090 295.840,141.076 296.376,142.669 296.851 C 145.880 297.808,145.600 303.579,145.600 236.451 C 145.600 203.533,145.720 156.764,145.866 132.519 L 146.132 88.438 146.966 88.319 C 147.425 88.254,156.125 88.249,166.300 88.308 L 184.800 88.416 184.800 221.384 M217.369 99.200 C 217.369 103.710,217.427 105.555,217.498 103.300 C 217.570 101.045,217.570 97.355,217.498 95.100 C 217.427 92.845,217.369 94.690,217.369 99.200 M387.569 151.676 C 387.322 152.674,387.330 153.200,387.593 153.200 C 388.094 153.200,388.411 152.054,387.983 151.789 C 387.772 151.659,387.586 151.608,387.569 151.676 M331.994 216.207 C 331.567 216.722,331.567 216.921,331.996 217.317 C 332.408 217.699,332.453 217.686,332.207 217.255 C 332.025 216.934,332.119 216.574,332.437 216.377 C 332.734 216.194,332.873 215.939,332.745 215.812 C 332.618 215.685,332.280 215.863,331.994 216.207 M219.000 252.837 C 219.000 256.116,219.135 258.799,219.300 258.800 C 219.465 258.800,219.600 256.201,219.600 253.024 C 219.600 249.847,219.465 247.164,219.300 247.061 C 219.135 246.959,219.000 249.558,219.000 252.837 M259.235 252.958 C 258.858 253.412,258.867 253.519,259.278 253.459 C 259.830 253.378,260.187 252.853,259.890 252.557 C 259.793 252.460,259.498 252.641,259.235 252.958 M22.644 262.728 C 22.515 262.938,22.662 263.320,22.972 263.577 C 23.417 263.946,23.517 263.916,23.446 263.434 C 23.325 262.608,22.932 262.262,22.644 262.728 M217.342 314.200 C 217.341 316.180,217.408 317.040,217.492 316.112 C 217.576 315.184,217.577 313.564,217.495 312.512 C 217.412 311.460,217.343 312.220,217.342 314.200 " stroke="none" fill="#dccc75" fill-rule="evenodd"></path><path id="path4" d="M200.629 36.629 C 199.988 37.269,199.614 418.720,200.252 421.100 C 200.576 422.310,201.879 422.274,205.849 420.945 C 207.582 420.365,209.720 419.745,210.600 419.567 C 213.135 419.054,224.517 416.021,225.400 415.623 C 225.840 415.424,226.941 415.160,227.847 415.035 C 228.753 414.910,230.013 414.537,230.647 414.206 C 231.281 413.876,232.430 413.603,233.200 413.600 C 233.970 413.597,235.083 413.343,235.673 413.035 C 236.263 412.727,237.343 412.357,238.073 412.211 C 239.857 411.856,244.759 410.450,246.000 409.937 C 246.550 409.710,248.170 409.287,249.600 408.998 C 251.030 408.708,252.740 408.291,253.400 408.070 C 255.010 407.532,258.169 406.649,263.000 405.389 C 265.200 404.815,268.620 403.886,270.600 403.323 C 272.580 402.761,275.190 402.047,276.400 401.738 C 279.545 400.933,282.635 400.064,285.400 399.207 C 286.720 398.798,288.610 398.338,289.600 398.185 C 290.590 398.032,291.701 397.749,292.069 397.556 C 292.691 397.230,300.561 395.051,305.600 393.811 C 306.810 393.513,309.510 392.786,311.600 392.195 C 313.690 391.605,316.300 390.883,317.400 390.592 C 334.696 386.018,333.180 386.867,333.609 381.510 C 333.793 379.214,334.124 375.910,334.345 374.168 C 334.566 372.425,334.855 369.110,334.987 366.800 C 335.119 364.490,335.401 361.340,335.613 359.800 C 335.826 358.260,336.265 353.580,336.589 349.400 C 336.913 345.220,337.357 339.910,337.574 337.600 C 338.232 330.615,338.805 324.071,339.220 318.800 C 339.437 316.050,339.875 311.190,340.193 308.000 C 340.512 304.810,340.879 300.670,341.009 298.800 C 341.139 296.930,341.492 293.060,341.792 290.200 C 342.093 287.340,342.453 283.110,342.593 280.800 C 342.733 278.490,343.008 275.520,343.203 274.200 C 343.398 272.880,343.752 268.920,343.990 265.400 C 344.227 261.880,344.592 257.740,344.799 256.200 C 345.007 254.660,345.367 250.610,345.599 247.200 C 345.831 243.790,346.196 239.560,346.411 237.800 C 346.626 236.040,346.973 232.350,347.183 229.600 C 347.675 223.145,348.671 211.753,349.211 206.400 C 349.444 204.090,349.890 199.140,350.203 195.400 C 351.250 182.878,351.622 178.638,352.221 172.400 C 352.548 168.990,352.980 164.130,353.181 161.600 C 353.797 153.827,354.757 142.908,355.395 136.400 C 355.729 132.990,356.191 127.950,356.421 125.200 C 357.210 115.756,357.623 110.993,358.016 106.800 C 358.233 104.490,358.673 99.270,358.994 95.200 C 359.316 91.130,359.757 86.450,359.976 84.800 C 360.195 83.150,360.481 79.820,360.612 77.400 C 360.743 74.980,361.027 71.723,361.243 70.163 C 361.459 68.602,361.883 64.192,362.186 60.363 C 362.489 56.533,363.058 49.773,363.450 45.339 C 364.044 38.625,364.075 37.172,363.633 36.639 C 362.826 35.667,201.601 35.656,200.629 36.629 M362.882 39.520 C 362.818 40.906,362.597 42.483,362.391 43.024 C 362.185 43.565,361.904 47.021,361.767 50.704 C 361.630 54.387,361.278 58.390,360.987 59.600 C 360.695 60.810,360.331 64.860,360.178 68.600 C 360.025 72.340,359.736 75.716,359.535 76.103 C 359.333 76.490,358.996 80.000,358.785 83.903 C 358.573 87.806,358.218 91.810,357.995 92.800 C 357.771 93.790,357.417 98.084,357.208 102.342 C 356.999 106.601,356.649 110.299,356.432 110.562 C 356.214 110.824,355.920 114.180,355.778 118.019 C 355.635 121.859,355.267 126.136,354.960 127.524 C 354.652 128.911,354.294 133.231,354.163 137.124 C 354.015 141.516,353.728 144.655,353.407 145.400 C 353.090 146.135,352.783 149.391,352.615 153.800 C 352.464 157.760,352.099 161.900,351.804 163.000 C 351.509 164.100,351.154 168.026,351.014 171.726 C 350.875 175.425,350.597 178.882,350.397 179.408 C 350.197 179.934,349.850 183.568,349.627 187.483 C 349.403 191.397,349.030 195.590,348.798 196.800 C 348.565 198.010,348.218 202.240,348.026 206.200 C 347.834 210.160,347.473 213.925,347.223 214.567 C 346.973 215.209,346.661 218.989,346.530 222.967 C 346.399 226.945,346.113 230.425,345.896 230.701 C 345.679 230.976,345.298 234.936,345.050 239.501 C 344.803 244.065,344.455 248.025,344.277 248.299 C 344.099 248.573,343.773 252.263,343.552 256.499 C 343.332 260.735,342.982 264.560,342.777 265.000 C 342.571 265.440,342.224 269.338,342.005 273.663 C 341.787 277.988,341.429 281.997,341.210 282.573 C 340.991 283.149,340.647 287.080,340.445 291.310 C 340.243 295.539,339.892 299.474,339.666 300.054 C 339.440 300.633,339.138 304.413,338.996 308.454 C 338.841 312.820,338.526 316.368,338.219 317.200 C 337.921 318.008,337.579 321.647,337.411 325.800 C 337.251 329.760,336.952 333.314,336.747 333.698 C 336.542 334.082,336.193 338.042,335.971 342.498 C 335.750 346.954,335.401 350.904,335.197 351.275 C 334.992 351.646,334.635 355.516,334.403 359.875 C 334.171 364.234,333.809 368.340,333.599 369.000 C 333.390 369.660,333.049 373.350,332.842 377.200 C 332.371 385.974,332.370 385.977,329.189 385.995 C 328.633 385.998,327.823 386.243,327.389 386.540 C 326.955 386.838,325.742 387.194,324.693 387.334 C 323.644 387.473,322.258 387.860,321.613 388.193 C 320.968 388.527,319.987 388.800,319.435 388.800 C 318.882 388.800,317.516 389.160,316.400 389.600 C 315.284 390.040,313.882 390.401,313.285 390.402 C 312.688 390.404,311.700 390.666,311.090 390.984 C 310.479 391.303,308.969 391.750,307.735 391.978 C 306.500 392.206,305.290 392.552,305.045 392.746 C 304.800 392.940,303.700 393.226,302.600 393.381 C 301.500 393.536,300.240 393.890,299.800 394.168 C 299.360 394.447,298.052 394.784,296.893 394.919 C 295.735 395.054,294.390 395.442,293.904 395.782 C 293.419 396.122,292.297 396.404,291.411 396.409 C 290.525 396.414,289.015 396.774,288.056 397.209 C 287.097 397.644,285.832 398.000,285.245 398.000 C 284.658 398.000,283.781 398.278,283.296 398.618 C 282.810 398.958,281.465 399.339,280.307 399.466 C 279.148 399.592,277.801 399.944,277.314 400.248 C 276.827 400.551,276.010 400.800,275.499 400.800 C 274.987 400.800,273.911 401.135,273.107 401.546 C 272.303 401.956,270.746 402.410,269.648 402.556 C 268.550 402.702,267.145 403.085,266.526 403.408 C 265.907 403.731,264.770 403.997,264.000 404.000 C 263.230 404.003,262.081 404.276,261.447 404.606 C 260.813 404.937,259.553 405.317,258.647 405.451 C 257.741 405.585,256.640 405.917,256.200 406.189 C 255.760 406.460,254.502 406.816,253.405 406.980 C 252.308 407.144,250.922 407.530,250.325 407.839 C 249.728 408.147,248.568 408.400,247.746 408.400 C 246.925 408.400,245.521 408.744,244.626 409.164 C 243.732 409.584,242.370 410.017,241.600 410.126 C 240.076 410.342,236.903 411.336,235.000 412.192 C 234.340 412.489,232.830 412.832,231.645 412.954 C 230.460 413.076,229.200 413.428,228.845 413.737 C 228.490 414.046,227.030 414.425,225.600 414.580 C 224.170 414.734,222.730 415.093,222.400 415.377 C 222.070 415.661,220.749 416.011,219.466 416.154 C 218.182 416.298,216.616 416.682,215.985 417.008 C 215.355 417.333,214.313 417.600,213.669 417.600 C 213.025 417.600,212.291 417.850,212.037 418.155 C 211.783 418.461,210.546 418.835,209.288 418.988 C 208.030 419.140,206.630 419.501,206.178 419.790 C 205.726 420.079,204.556 420.380,203.578 420.458 L 201.800 420.600 201.698 229.200 C 201.641 123.930,201.681 37.575,201.786 37.299 C 201.937 36.900,218.288 36.819,282.488 36.899 L 363.000 37.000 362.882 39.520 M4.002 60.476 C 4.001 60.848,4.183 61.266,4.407 61.404 C 4.630 61.542,4.709 61.823,4.583 62.028 C 4.456 62.232,4.543 62.400,4.776 62.400 C 5.325 62.400,5.314 62.310,4.602 60.946 C 4.224 60.221,4.004 60.048,4.002 60.476 M317.200 89.700 C 317.200 89.865,322.735 89.962,329.500 89.915 C 341.830 89.830,340.436 89.693,325.300 89.502 C 320.844 89.446,317.199 89.535,317.200 89.700 M340.518 107.767 C 340.383 108.005,340.414 108.071,340.588 107.914 C 340.763 107.757,341.237 107.806,341.644 108.023 C 342.209 108.326,342.333 108.291,342.174 107.876 C 341.925 107.227,340.865 107.157,340.518 107.767 M8.693 110.101 C 8.582 110.390,8.831 111.045,9.246 111.557 C 9.912 112.379,9.999 112.401,9.987 111.744 C 9.969 110.691,8.959 109.408,8.693 110.101 M218.306 117.300 C 218.470 128.666,218.645 129.497,218.726 119.300 C 218.767 114.185,218.665 110.000,218.500 110.000 C 218.335 109.999,218.248 113.284,218.306 117.300 M390.006 117.251 C 390.017 118.250,390.655 118.955,390.921 118.263 C 391.048 117.930,390.893 117.443,390.576 117.180 C 390.122 116.803,390.001 116.818,390.006 117.251 M340.000 119.800 C 340.000 120.350,340.069 120.800,340.153 120.800 C 340.238 120.800,340.393 120.350,340.498 119.800 C 340.603 119.250,340.534 118.800,340.345 118.800 C 340.155 118.800,340.000 119.250,340.000 119.800 M340.000 122.776 C 340.000 123.423,340.142 124.041,340.316 124.148 C 340.490 124.256,340.561 123.727,340.473 122.972 C 340.276 121.291,340.000 121.177,340.000 122.776 M339.852 128.209 C 339.604 128.856,339.498 128.885,339.185 128.389 C 338.980 128.065,338.815 127.980,338.819 128.200 C 338.822 128.420,339.084 128.942,339.400 129.359 C 339.716 129.776,339.862 130.299,339.725 130.521 C 339.584 130.749,339.676 130.800,339.938 130.638 C 340.556 130.256,340.529 129.202,339.900 129.194 C 339.536 129.189,339.550 129.093,339.949 128.840 C 340.251 128.649,340.419 128.256,340.322 127.966 C 340.203 127.610,340.052 127.688,339.852 128.209 M257.700 134.276 C 258.085 134.376,258.715 134.376,259.100 134.276 C 259.485 134.175,259.170 134.093,258.400 134.093 C 257.630 134.093,257.315 134.175,257.700 134.276 M319.925 134.299 C 323.514 134.366,329.274 134.366,332.725 134.299 C 336.176 134.233,333.240 134.178,326.200 134.178 C 319.160 134.179,316.336 134.233,319.925 134.299 M12.111 144.792 C 12.078 145.228,12.197 145.675,12.375 145.785 C 12.554 145.895,12.700 145.539,12.700 144.993 C 12.700 143.817,12.197 143.646,12.111 144.792 M14.000 161.224 C 14.000 161.457,13.822 161.537,13.605 161.403 C 13.378 161.263,13.311 161.423,13.447 161.779 C 13.780 162.646,14.218 162.553,14.290 161.600 C 14.323 161.160,14.271 160.800,14.175 160.800 C 14.079 160.800,14.000 160.991,14.000 161.224 M218.569 178.800 C 218.569 183.310,218.627 185.155,218.698 182.900 C 218.770 180.645,218.770 176.955,218.698 174.700 C 218.627 172.445,218.569 174.290,218.569 178.800 M15.017 177.972 C 14.744 178.414,15.375 178.892,15.744 178.522 C 16.125 178.142,16.054 177.600,15.624 177.600 C 15.417 177.600,15.144 177.768,15.017 177.972 M333.000 198.800 L 331.800 199.105 332.876 199.153 C 333.468 199.179,334.064 199.020,334.200 198.800 C 334.336 198.580,334.392 198.421,334.324 198.447 C 334.256 198.473,333.660 198.632,333.000 198.800 M307.632 200.739 C 307.091 201.751,307.089 202.000,307.624 202.000 C 307.857 202.000,307.917 201.789,307.758 201.532 C 307.567 201.223,307.682 201.146,308.095 201.304 C 308.494 201.458,308.691 201.341,308.639 200.984 C 308.495 200.006,308.079 199.905,307.632 200.739 M382.628 201.955 C 382.104 202.803,383.001 203.324,383.637 202.540 C 383.947 202.159,383.990 201.972,383.734 202.126 C 383.478 202.279,383.196 202.188,383.107 201.922 C 382.986 201.557,382.869 201.565,382.628 201.955 M293.815 202.376 C 293.687 202.582,293.947 202.724,294.391 202.691 C 294.836 202.657,295.200 202.488,295.200 202.315 C 295.200 201.873,294.096 201.921,293.815 202.376 M266.769 204.942 C 266.258 205.906,266.592 206.258,267.643 205.861 C 268.279 205.621,268.800 205.329,268.800 205.212 C 268.799 205.033,266.858 204.775,266.769 204.942 M331.453 218.205 C 331.325 218.539,331.437 218.750,331.714 218.695 C 331.981 218.643,332.175 218.915,332.144 219.300 C 332.114 219.685,332.249 220.000,332.444 220.000 C 332.998 220.000,332.863 218.806,332.239 218.182 C 331.757 217.700,331.646 217.704,331.453 218.205 M379.600 235.624 C 379.600 235.857,379.811 235.917,380.068 235.758 C 380.385 235.562,380.451 235.689,380.273 236.155 C 380.116 236.563,380.170 236.742,380.405 236.597 C 381.019 236.217,380.870 235.200,380.200 235.200 C 379.870 235.200,379.600 235.391,379.600 235.624 M329.822 237.088 C 329.676 237.466,329.686 237.648,329.842 237.491 C 329.998 237.335,330.368 237.407,330.663 237.652 C 331.084 238.001,331.200 237.914,331.200 237.249 C 331.200 236.232,330.195 236.115,329.822 237.088 M329.713 239.500 C 329.661 240.449,329.700 240.490,329.998 239.800 C 330.448 238.758,330.471 238.400,330.087 238.400 C 329.915 238.400,329.747 238.895,329.713 239.500 M296.256 250.199 C 296.115 250.566,296.018 251.166,296.040 251.533 C 296.064 251.936,296.206 251.805,296.400 251.200 C 296.641 250.448,296.730 250.799,296.760 252.611 C 296.787 254.264,296.589 255.333,296.128 256.011 L 295.455 257.000 296.328 256.238 C 297.047 255.610,297.199 255.048,297.194 253.038 C 297.187 250.426,296.716 249.000,296.256 250.199 M268.576 251.401 C 267.824 251.984,267.823 251.994,268.566 251.733 C 269.091 251.548,269.241 251.609,269.045 251.927 C 268.855 252.235,268.978 252.307,269.413 252.140 C 269.897 251.954,269.939 251.810,269.575 251.585 C 269.228 251.370,269.306 251.224,269.842 251.087 C 270.367 250.952,270.409 250.879,269.976 250.846 C 269.634 250.821,269.004 251.070,268.576 251.401 M244.900 255.476 C 245.285 255.576,245.915 255.576,246.300 255.476 C 246.685 255.375,246.370 255.293,245.600 255.293 C 244.830 255.293,244.515 255.375,244.900 255.476 M242.652 255.936 C 242.134 256.839,243.035 257.585,243.703 256.805 C 244.082 256.362,244.349 255.986,244.296 255.969 C 243.586 255.743,242.772 255.726,242.652 255.936 M233.994 257.876 C 233.989 258.490,233.929 258.509,233.600 258.000 C 233.269 257.487,233.211 257.502,233.206 258.100 C 233.199 258.945,233.731 259.007,234.370 258.236 C 234.691 257.850,234.706 257.589,234.419 257.412 C 234.186 257.268,233.997 257.474,233.994 257.876 M67.342 282.600 C 67.341 284.580,67.408 285.440,67.492 284.512 C 67.576 283.584,67.577 281.964,67.495 280.912 C 67.412 279.860,67.343 280.620,67.342 282.600 M280.509 292.391 C 280.543 292.836,280.712 293.200,280.885 293.200 C 281.327 293.200,281.279 292.096,280.824 291.815 C 280.618 291.687,280.476 291.947,280.509 292.391 M275.362 293.495 C 274.625 294.232,274.626 294.234,275.867 294.180 C 276.483 294.153,276.971 293.880,277.022 293.533 C 277.133 292.776,276.104 292.753,275.362 293.495 M253.010 299.448 C 252.653 299.804,252.474 300.207,252.611 300.344 C 252.748 300.481,253.035 300.280,253.250 299.897 C 253.464 299.514,253.821 299.200,254.043 299.200 C 254.266 299.200,254.319 299.408,254.162 299.662 C 253.985 299.948,254.052 300.015,254.338 299.838 C 254.592 299.681,254.800 299.383,254.800 299.176 C 254.800 298.576,253.717 298.740,253.010 299.448 M228.501 306.000 C 228.722 306.822,230.267 307.019,230.267 306.225 C 230.267 305.744,230.146 305.713,229.703 306.081 C 229.266 306.443,229.049 306.419,228.739 305.974 C 228.397 305.483,228.363 305.487,228.501 306.000 M372.500 319.798 C 371.855 320.531,371.870 320.667,372.600 320.667 C 372.930 320.667,373.200 320.337,373.200 319.933 C 373.200 319.066,373.153 319.056,372.500 319.798 M218.551 327.200 C 218.551 329.730,218.616 330.765,218.696 329.500 C 218.775 328.235,218.775 326.165,218.696 324.900 C 218.616 323.635,218.551 324.670,218.551 327.200 M317.541 328.036 C 317.307 328.181,317.587 328.300,318.165 328.300 C 318.742 328.300,319.305 328.153,319.416 327.974 C 319.649 327.597,318.173 327.646,317.541 328.036 M283.092 336.242 C 282.596 336.738,282.766 337.098,283.600 337.316 C 284.131 337.455,284.400 337.328,284.400 336.939 C 284.400 336.617,284.235 336.455,284.034 336.579 C 283.833 336.703,283.604 336.613,283.526 336.377 C 283.447 336.142,283.252 336.081,283.092 336.242 M278.168 337.548 C 278.322 337.797,278.257 338.000,278.024 338.000 C 277.791 338.000,277.600 338.193,277.600 338.429 C 277.600 338.665,277.915 338.798,278.300 338.724 C 279.133 338.563,279.235 337.545,278.444 337.281 C 278.107 337.169,277.998 337.274,278.168 337.548 M260.222 342.700 L 259.553 343.800 260.321 342.924 C 260.818 342.357,261.226 342.186,261.478 342.438 C 261.730 342.690,261.867 342.611,261.867 342.213 C 261.867 341.233,260.951 341.504,260.222 342.700 M242.610 347.048 C 242.253 347.404,242.062 347.796,242.185 347.918 C 242.308 348.041,242.649 347.812,242.943 347.410 C 243.280 346.949,243.673 346.798,244.001 347.001 C 244.346 347.214,244.427 347.167,244.238 346.862 C 243.847 346.229,243.375 346.283,242.610 347.048 M219.528 353.487 C 219.224 353.853,219.231 354.000,219.551 354.000 C 219.798 354.000,220.003 353.775,220.006 353.500 C 220.011 353.138,220.109 353.152,220.361 353.551 C 220.713 354.106,221.600 353.855,221.600 353.201 C 221.600 352.678,220.019 352.895,219.528 353.487 M38.293 410.400 C 38.670 410.840,39.011 411.200,39.051 411.200 C 39.092 411.200,39.031 410.840,38.916 410.400 C 38.801 409.960,38.459 409.600,38.157 409.600 C 37.737 409.600,37.768 409.787,38.293 410.400 M48.455 413.467 C 48.699 413.760,49.191 413.979,49.549 413.954 C 50.093 413.915,50.085 413.877,49.495 413.723 C 49.107 413.622,48.874 413.403,48.978 413.236 C 49.081 413.070,48.906 412.933,48.589 412.933 C 48.154 412.933,48.121 413.064,48.455 413.467 M118.184 432.827 C 117.859 433.352,117.946 433.433,119.200 433.767 L 120.200 434.033 119.239 433.470 C 118.533 433.056,118.427 432.848,118.839 432.685 C 119.178 432.551,119.211 432.451,118.924 432.432 C 118.662 432.414,118.329 432.592,118.184 432.827 M243.084 443.600 C 242.969 444.040,243.038 444.400,243.237 444.400 C 243.437 444.400,243.600 444.145,243.600 443.833 C 243.600 443.522,243.825 443.176,244.100 443.065 C 244.417 442.937,244.361 442.852,243.947 442.832 C 243.587 442.814,243.199 443.160,243.084 443.600 M232.244 446.630 C 231.911 447.496,232.068 447.652,232.808 447.195 C 233.237 446.930,233.274 446.714,232.950 446.390 C 232.625 446.065,232.436 446.129,232.244 446.630 " stroke="none" fill="#f4d23b" fill-rule="evenodd"></path></g></svg>